G04 Layer_Color=32896*
%FSLAX23Y23*%
%MOIN*%
G70*
G01*
G75*
%ADD43C,0.010*%
D43*
X3554Y6190D02*
X3654D01*
X3554D02*
X3604Y6090D01*
X3654Y6190D01*
X3554Y6090D02*
X3654D01*
X6369Y6210D02*
X6469D01*
X6369D02*
X6419Y6110D01*
X6469Y6210D01*
X6369Y6110D02*
X6469D01*
X5496Y2716D02*
Y3543D01*
Y2716D02*
X7229D01*
X5496Y3543D02*
X7229D01*
Y2716D02*
Y3543D01*
X4940Y6214D02*
X5040D01*
X4940D02*
X4990Y6114D01*
X5040Y6214D01*
X4940Y6114D02*
X5040D01*
X3721Y2716D02*
Y3543D01*
Y2716D02*
X5454D01*
X3721Y3543D02*
X5454D01*
Y2716D02*
Y3543D01*
X3180Y4445D02*
Y5065D01*
X3280Y4445D02*
Y5065D01*
X3180D02*
X3280D01*
X3180Y4445D02*
X3280D01*
X7625Y4020D02*
Y4640D01*
X7725Y4020D02*
Y4640D01*
X7625D02*
X7725D01*
X7625Y4020D02*
X7725D01*
X3200Y3200D02*
Y3820D01*
Y3200D02*
X3300D01*
X3200Y3820D02*
X3300D01*
Y3200D02*
Y3820D01*
X7620Y6105D02*
Y6131D01*
X7607Y6144D01*
X7594Y6131D01*
Y6105D01*
Y6125D01*
X7620D01*
X7554Y6138D02*
X7561Y6144D01*
X7574D01*
X7581Y6138D01*
Y6112D01*
X7574Y6105D01*
X7561D01*
X7554Y6112D01*
X7515Y6138D02*
X7522Y6144D01*
X7535D01*
X7541Y6138D01*
Y6131D01*
X7535Y6125D01*
X7522D01*
X7515Y6118D01*
Y6112D01*
X7522Y6105D01*
X7535D01*
X7541Y6112D01*
X7502Y6144D02*
X7476D01*
Y6138D01*
X7502Y6112D01*
Y6105D01*
X7436Y6144D02*
X7463D01*
Y6125D01*
X7449Y6131D01*
X7443D01*
X7436Y6125D01*
Y6112D01*
X7443Y6105D01*
X7456D01*
X7463Y6112D01*
X7423Y6138D02*
X7417Y6144D01*
X7404D01*
X7397Y6138D01*
Y6131D01*
X7404Y6125D01*
X7397Y6118D01*
Y6112D01*
X7404Y6105D01*
X7417D01*
X7423Y6112D01*
Y6118D01*
X7417Y6125D01*
X7423Y6131D01*
Y6138D01*
X7417Y6125D02*
X7404D01*
X5799Y5502D02*
X5793Y5509D01*
X5780D01*
X5773Y5502D01*
Y5476D01*
X5780Y5469D01*
X5793D01*
X5799Y5476D01*
X5812Y5469D02*
X5826D01*
X5819D01*
Y5509D01*
X5812Y5502D01*
X5845D02*
X5852Y5509D01*
X5865D01*
X5872Y5502D01*
Y5496D01*
X5865Y5489D01*
X5858D01*
X5865D01*
X5872Y5482D01*
Y5476D01*
X5865Y5469D01*
X5852D01*
X5845Y5476D01*
X5183Y6099D02*
Y6139D01*
X5202D01*
X5209Y6132D01*
Y6119D01*
X5202Y6112D01*
X5183D01*
X5196D02*
X5209Y6099D01*
X5248Y6139D02*
X5222D01*
Y6119D01*
X5235Y6125D01*
X5242D01*
X5248Y6119D01*
Y6106D01*
X5242Y6099D01*
X5228D01*
X5222Y6106D01*
X4080Y6001D02*
Y6040D01*
X4100D01*
X4106Y6034D01*
Y6021D01*
X4100Y6014D01*
X4080D01*
X4093D02*
X4106Y6001D01*
X4120D02*
X4133D01*
X4126D01*
Y6040D01*
X4120Y6034D01*
X4152Y6001D02*
X4165D01*
X4159D01*
Y6040D01*
X4152Y6034D01*
X5333Y6103D02*
Y6063D01*
X5353D01*
X5360Y6070D01*
Y6083D01*
X5353Y6089D01*
X5333D01*
X5346D02*
X5360Y6103D01*
X5373Y6063D02*
X5399D01*
Y6070D01*
X5373Y6096D01*
Y6103D01*
X6590Y6210D02*
Y6249D01*
X6610D01*
X6616Y6243D01*
Y6230D01*
X6610Y6223D01*
X6590D01*
X6603D02*
X6616Y6210D01*
X6629Y6243D02*
X6636Y6249D01*
X6649D01*
X6656Y6243D01*
Y6236D01*
X6649Y6230D01*
X6642D01*
X6649D01*
X6656Y6223D01*
Y6217D01*
X6649Y6210D01*
X6636D01*
X6629Y6217D01*
X4087Y5856D02*
X4080Y5863D01*
X4067D01*
X4061Y5856D01*
Y5830D01*
X4067Y5824D01*
X4080D01*
X4087Y5830D01*
X4100Y5824D02*
X4113D01*
X4106D01*
Y5863D01*
X4100Y5856D01*
X4159Y5863D02*
X4133D01*
Y5843D01*
X4146Y5850D01*
X4152D01*
X4159Y5843D01*
Y5830D01*
X4152Y5824D01*
X4139D01*
X4133Y5830D01*
X4533Y5345D02*
X4526Y5351D01*
X4513D01*
X4506Y5345D01*
Y5318D01*
X4513Y5312D01*
X4526D01*
X4533Y5318D01*
X4546Y5312D02*
X4559D01*
X4552D01*
Y5351D01*
X4546Y5345D01*
X4579Y5318D02*
X4585Y5312D01*
X4598D01*
X4605Y5318D01*
Y5345D01*
X4598Y5351D01*
X4585D01*
X4579Y5345D01*
Y5338D01*
X4585Y5332D01*
X4605D01*
X4102Y5538D02*
X4096Y5544D01*
X4083D01*
X4076Y5538D01*
Y5511D01*
X4083Y5505D01*
X4096D01*
X4102Y5511D01*
X4116Y5505D02*
X4129D01*
X4122D01*
Y5544D01*
X4116Y5538D01*
X4148Y5544D02*
X4175D01*
Y5538D01*
X4148Y5511D01*
Y5505D01*
X4677Y6545D02*
X4671Y6552D01*
X4658D01*
X4651Y6545D01*
Y6519D01*
X4658Y6513D01*
X4671D01*
X4677Y6519D01*
X4717Y6513D02*
X4690D01*
X4717Y6539D01*
Y6545D01*
X4710Y6552D01*
X4697D01*
X4690Y6545D01*
X4756Y6552D02*
X4743Y6545D01*
X4730Y6532D01*
Y6519D01*
X4736Y6513D01*
X4749D01*
X4756Y6519D01*
Y6526D01*
X4749Y6532D01*
X4730D01*
X5484Y5876D02*
X5478Y5883D01*
X5465D01*
X5458Y5876D01*
Y5850D01*
X5465Y5843D01*
X5478D01*
X5484Y5850D01*
X5498D02*
X5504Y5843D01*
X5517D01*
X5524Y5850D01*
Y5876D01*
X5517Y5883D01*
X5504D01*
X5498Y5876D01*
Y5870D01*
X5504Y5863D01*
X5524D01*
X5484Y5640D02*
X5478Y5646D01*
X5465D01*
X5458Y5640D01*
Y5614D01*
X5465Y5607D01*
X5478D01*
X5484Y5614D01*
X5498Y5607D02*
X5511D01*
X5504D01*
Y5646D01*
X5498Y5640D01*
X5530Y5607D02*
X5543D01*
X5537D01*
Y5646D01*
X5530Y5640D01*
X6647Y5679D02*
X6641Y5686D01*
X6628D01*
X6621Y5679D01*
Y5653D01*
X6628Y5646D01*
X6641D01*
X6647Y5653D01*
X6687Y5686D02*
X6660D01*
Y5666D01*
X6674Y5673D01*
X6680D01*
X6687Y5666D01*
Y5653D01*
X6680Y5646D01*
X6667D01*
X6660Y5653D01*
X6647Y5856D02*
X6641Y5863D01*
X6628D01*
X6621Y5856D01*
Y5830D01*
X6628Y5824D01*
X6641D01*
X6647Y5830D01*
X6680Y5824D02*
Y5863D01*
X6660Y5843D01*
X6687D01*
X7349Y6147D02*
X7355Y6141D01*
X7368D01*
X7375Y6147D01*
Y6173D01*
X7368Y6180D01*
X7355D01*
X7349Y6173D01*
X7309Y6180D02*
X7336D01*
X7309Y6154D01*
Y6147D01*
X7316Y6141D01*
X7329D01*
X7336Y6147D01*
X7270Y6180D02*
X7296D01*
X7270Y6154D01*
Y6147D01*
X7277Y6141D01*
X7290D01*
X7296Y6147D01*
X3420Y6154D02*
Y6128D01*
X3433Y6115D01*
X3446Y6128D01*
Y6154D01*
X3459D02*
Y6115D01*
X3479D01*
X3486Y6122D01*
Y6148D01*
X3479Y6154D01*
X3459D01*
X3499Y6148D02*
X3505Y6154D01*
X3518D01*
X3525Y6148D01*
Y6141D01*
X3518Y6135D01*
X3525Y6128D01*
Y6122D01*
X3518Y6115D01*
X3505D01*
X3499Y6122D01*
Y6128D01*
X3505Y6135D01*
X3499Y6141D01*
Y6148D01*
X3505Y6135D02*
X3518D01*
X3765Y6119D02*
Y6158D01*
X3785D01*
X3791Y6152D01*
Y6139D01*
X3785Y6132D01*
X3765D01*
X3778D02*
X3791Y6119D01*
X3805Y6125D02*
X3811Y6119D01*
X3824D01*
X3831Y6125D01*
Y6152D01*
X3824Y6158D01*
X3811D01*
X3805Y6152D01*
Y6145D01*
X3811Y6139D01*
X3831D01*
X4454Y6119D02*
Y6158D01*
X4474D01*
X4480Y6152D01*
Y6139D01*
X4474Y6132D01*
X4454D01*
X4467D02*
X4480Y6119D01*
X4494D02*
X4507D01*
X4500D01*
Y6158D01*
X4494Y6152D01*
X4553Y6119D02*
X4526D01*
X4553Y6145D01*
Y6152D01*
X4546Y6158D01*
X4533D01*
X4526Y6152D01*
X5714Y6099D02*
Y6139D01*
X5734D01*
X5740Y6132D01*
Y6119D01*
X5734Y6112D01*
X5714D01*
X5727D02*
X5740Y6099D01*
X5753Y6132D02*
X5760Y6139D01*
X5773D01*
X5780Y6132D01*
Y6125D01*
X5773Y6119D01*
X5780Y6112D01*
Y6106D01*
X5773Y6099D01*
X5760D01*
X5753Y6106D01*
Y6112D01*
X5760Y6119D01*
X5753Y6125D01*
Y6132D01*
X5760Y6119D02*
X5773D01*
X5917Y6152D02*
X5911Y6158D01*
X5898D01*
X5891Y6152D01*
Y6125D01*
X5898Y6119D01*
X5911D01*
X5917Y6125D01*
X5957Y6119D02*
X5931D01*
X5957Y6145D01*
Y6152D01*
X5950Y6158D01*
X5937D01*
X5931Y6152D01*
X5990Y6119D02*
Y6158D01*
X5970Y6139D01*
X5996D01*
X5029Y6304D02*
Y6343D01*
X5049D01*
X5055Y6337D01*
Y6324D01*
X5049Y6317D01*
X5029D01*
X5042D02*
X5055Y6304D01*
X5095Y6343D02*
X5081Y6337D01*
X5068Y6324D01*
Y6311D01*
X5075Y6304D01*
X5088D01*
X5095Y6311D01*
Y6317D01*
X5088Y6324D01*
X5068D01*
X6285Y6296D02*
Y6335D01*
X6305D01*
X6311Y6329D01*
Y6316D01*
X6305Y6309D01*
X6285D01*
X6298D02*
X6311Y6296D01*
X6351D02*
X6324D01*
X6351Y6322D01*
Y6329D01*
X6344Y6335D01*
X6331D01*
X6324Y6329D01*
X6482Y6123D02*
Y6163D01*
X6502D01*
X6509Y6156D01*
Y6143D01*
X6502Y6136D01*
X6482D01*
X6495D02*
X6509Y6123D01*
X6522D02*
X6535D01*
X6528D01*
Y6163D01*
X6522Y6156D01*
X7135Y6165D02*
Y6204D01*
X7155D01*
X7161Y6198D01*
Y6185D01*
X7155Y6178D01*
X7135D01*
X7148D02*
X7161Y6165D01*
X7194D02*
Y6204D01*
X7174Y6185D01*
X7201D01*
X6265Y6414D02*
Y6388D01*
X6278Y6375D01*
X6291Y6388D01*
Y6414D01*
X6305D02*
Y6375D01*
X6324D01*
X6331Y6381D01*
Y6408D01*
X6324Y6414D01*
X6305D01*
X6370Y6375D02*
X6344D01*
X6370Y6401D01*
Y6408D01*
X6364Y6414D01*
X6351D01*
X6344Y6408D01*
X5615Y3624D02*
Y3585D01*
X5595D01*
X5589Y3592D01*
Y3618D01*
X5595Y3624D01*
X5615D01*
X5576D02*
Y3585D01*
X5556D01*
X5549Y3592D01*
Y3618D01*
X5556Y3624D01*
X5576D01*
X5510Y3585D02*
X5536D01*
X5510Y3611D01*
Y3618D01*
X5517Y3624D01*
X5530D01*
X5536Y3618D01*
X7218Y5387D02*
X7212Y5394D01*
X7199D01*
X7192Y5387D01*
Y5361D01*
X7199Y5354D01*
X7212D01*
X7218Y5361D01*
X7231Y5394D02*
X7258D01*
Y5387D01*
X7231Y5361D01*
Y5354D01*
X3315Y5830D02*
Y5869D01*
X3335D01*
X3341Y5863D01*
Y5850D01*
X3335Y5843D01*
X3315D01*
X3328D02*
X3341Y5830D01*
X3354D02*
X3367D01*
X3361D01*
Y5869D01*
X3354Y5863D01*
X3387D02*
X3394Y5869D01*
X3407D01*
X3413Y5863D01*
Y5837D01*
X3407Y5830D01*
X3394D01*
X3387Y5837D01*
Y5863D01*
X4785Y6418D02*
Y6392D01*
X4798Y6379D01*
X4811Y6392D01*
Y6418D01*
X4824D02*
Y6379D01*
X4844D01*
X4851Y6385D01*
Y6412D01*
X4844Y6418D01*
X4824D01*
X4890D02*
X4864D01*
Y6398D01*
X4877Y6405D01*
X4883D01*
X4890Y6398D01*
Y6385D01*
X4883Y6379D01*
X4870D01*
X4864Y6385D01*
X3840Y3609D02*
Y3570D01*
X3820D01*
X3814Y3577D01*
Y3603D01*
X3820Y3609D01*
X3840D01*
X3801D02*
Y3570D01*
X3781D01*
X3774Y3577D01*
Y3603D01*
X3781Y3609D01*
X3801D01*
X3761Y3570D02*
X3748D01*
X3755D01*
Y3609D01*
X3761Y3603D01*
M02*
