G04 Layer_Physical_Order=4*
G04 Layer_Color=16711680*
%FSLAX23Y23*%
%MOIN*%
G70*
G01*
G75*
%ADD12R,0.064X0.064*%
%ADD13R,0.064X0.064*%
%ADD17C,0.039*%
%ADD18C,0.020*%
%ADD19C,0.012*%
%ADD20C,0.157*%
%ADD21C,0.079*%
%ADD22C,0.024*%
%ADD24C,0.016*%
%ADD25C,0.118*%
%ADD26C,0.004*%
%ADD27C,0.201*%
%ADD28C,0.087*%
%ADD29C,0.098*%
%ADD30C,0.079*%
%ADD31C,0.087*%
%ADD32C,0.059*%
%ADD33C,0.083*%
%ADD34R,0.087X0.087*%
%ADD35C,0.360*%
%ADD36C,0.059*%
%ADD37R,0.079X0.079*%
%ADD38R,0.087X0.087*%
%ADD39C,0.060*%
%ADD40C,0.050*%
%ADD41C,0.004*%
%ADD42C,0.059*%
G36*
X7785Y5897D02*
X7780Y5895D01*
X7777Y5900D01*
X7766Y5909D01*
X7753Y5914D01*
X7740Y5915D01*
X7727Y5914D01*
X7714Y5909D01*
X7703Y5900D01*
X7695Y5890D01*
X7692Y5882D01*
X7687Y5883D01*
X7687Y5887D01*
X7686Y5912D01*
X7681Y5936D01*
X7673Y5960D01*
X7662Y5982D01*
X7648Y6003D01*
X7632Y6022D01*
X7613Y6038D01*
X7592Y6052D01*
X7570Y6063D01*
X7546Y6071D01*
X7522Y6076D01*
X7497Y6077D01*
X7472Y6076D01*
X7448Y6071D01*
X7424Y6063D01*
X7402Y6052D01*
X7381Y6038D01*
X7362Y6022D01*
X7346Y6003D01*
X7332Y5982D01*
X7321Y5960D01*
X7313Y5936D01*
X7308Y5912D01*
X7307Y5887D01*
X7308Y5862D01*
X7313Y5838D01*
X7321Y5814D01*
X7332Y5792D01*
X7346Y5771D01*
X7362Y5752D01*
X7381Y5736D01*
X7402Y5722D01*
X7424Y5711D01*
X7448Y5703D01*
X7472Y5698D01*
X7497Y5697D01*
X7522Y5698D01*
X7546Y5703D01*
X7570Y5711D01*
X7592Y5722D01*
X7613Y5736D01*
X7632Y5752D01*
X7648Y5771D01*
X7662Y5792D01*
X7673Y5814D01*
X7681Y5838D01*
X7684Y5855D01*
X7689Y5855D01*
X7690Y5850D01*
X7695Y5838D01*
X7703Y5827D01*
X7714Y5819D01*
X7727Y5814D01*
X7740Y5812D01*
X7753Y5814D01*
X7766Y5819D01*
X7777Y5827D01*
X7780Y5832D01*
X7785Y5830D01*
Y2630D01*
X3170D01*
Y4971D01*
X3175Y4972D01*
X3181Y4962D01*
X3188Y4953D01*
X3197Y4946D01*
X3203Y4943D01*
X3203Y4942D01*
X3203Y4937D01*
X3195Y4930D01*
X3187Y4920D01*
X3182Y4908D01*
X3180Y4895D01*
X3182Y4882D01*
X3187Y4870D01*
X3195Y4860D01*
X3205Y4852D01*
X3215Y4848D01*
Y4842D01*
X3205Y4838D01*
X3195Y4830D01*
X3187Y4820D01*
X3182Y4808D01*
X3180Y4795D01*
X3182Y4782D01*
X3187Y4770D01*
X3195Y4760D01*
X3205Y4752D01*
X3215Y4748D01*
Y4742D01*
X3205Y4738D01*
X3195Y4730D01*
X3187Y4720D01*
X3182Y4708D01*
X3180Y4695D01*
X3182Y4682D01*
X3187Y4670D01*
X3195Y4660D01*
X3205Y4652D01*
X3215Y4648D01*
Y4642D01*
X3205Y4638D01*
X3195Y4630D01*
X3187Y4620D01*
X3182Y4608D01*
X3180Y4595D01*
X3182Y4582D01*
X3187Y4570D01*
X3195Y4560D01*
X3205Y4552D01*
X3211Y4549D01*
X3210Y4544D01*
X3181D01*
Y4446D01*
X3279D01*
Y4473D01*
X3565D01*
X3565Y4473D01*
X3574Y4474D01*
X3581Y4479D01*
X3609Y4508D01*
X3643D01*
X3645Y4505D01*
X3652Y4500D01*
X3661Y4496D01*
X3670Y4495D01*
X3670Y4495D01*
X3673Y4490D01*
X3621Y4439D01*
X3619Y4439D01*
X3610Y4440D01*
X3601Y4439D01*
X3592Y4436D01*
X3585Y4430D01*
X3579Y4423D01*
X3576Y4414D01*
X3575Y4405D01*
X3576Y4396D01*
X3579Y4387D01*
X3585Y4380D01*
X3592Y4374D01*
X3601Y4371D01*
X3610Y4370D01*
X3619Y4371D01*
X3628Y4374D01*
X3635Y4380D01*
X3641Y4387D01*
X3644Y4396D01*
X3645Y4405D01*
X3644Y4414D01*
X3644Y4416D01*
X3703Y4476D01*
X3708Y4474D01*
Y3777D01*
X3575Y3643D01*
X3569Y3645D01*
X3569Y3652D01*
X3564Y3663D01*
X3557Y3672D01*
X3548Y3679D01*
X3537Y3684D01*
X3525Y3685D01*
X3513Y3684D01*
X3502Y3679D01*
X3493Y3672D01*
X3486Y3663D01*
X3481Y3652D01*
X3480Y3640D01*
X3481Y3628D01*
X3486Y3617D01*
X3493Y3608D01*
X3502Y3601D01*
X3505Y3600D01*
X3505Y3596D01*
X3505Y3595D01*
X3499Y3588D01*
X3496Y3579D01*
X3495Y3570D01*
X3496Y3561D01*
X3499Y3552D01*
X3505Y3545D01*
X3512Y3539D01*
X3521Y3536D01*
X3530Y3535D01*
X3539Y3536D01*
X3548Y3539D01*
X3555Y3545D01*
X3561Y3552D01*
X3564Y3561D01*
X3565Y3570D01*
X3565Y3576D01*
X3743Y3754D01*
X3747Y3761D01*
X3749Y3768D01*
Y4365D01*
X3754Y4367D01*
X3755Y4365D01*
X3758Y4363D01*
Y4260D01*
X3758Y4260D01*
X3759Y4251D01*
X3764Y4244D01*
X3932Y4076D01*
X3930Y4072D01*
X3930Y4067D01*
X3924Y4064D01*
X3923Y4066D01*
X3914Y4069D01*
X3905Y4070D01*
X3896Y4069D01*
X3887Y4066D01*
X3880Y4060D01*
X3874Y4053D01*
X3871Y4044D01*
X3870Y4035D01*
X3871Y4026D01*
X3874Y4017D01*
X3880Y4010D01*
X3887Y4004D01*
X3896Y4001D01*
X3905Y4000D01*
X3911Y4000D01*
X3951Y3961D01*
X3957Y3956D01*
X3965Y3955D01*
X4156D01*
X4160Y3950D01*
X4167Y3944D01*
X4176Y3941D01*
X4185Y3940D01*
X4194Y3941D01*
X4203Y3944D01*
X4210Y3950D01*
X4214Y3955D01*
X4482D01*
X4485Y3951D01*
X4485Y3945D01*
X4486Y3936D01*
X4489Y3927D01*
X4495Y3920D01*
X4502Y3914D01*
X4511Y3911D01*
X4520Y3910D01*
X4529Y3911D01*
X4538Y3914D01*
X4545Y3920D01*
X4551Y3927D01*
X4554Y3936D01*
X4555Y3945D01*
X4554Y3954D01*
X4551Y3963D01*
X4545Y3970D01*
X4538Y3976D01*
X4529Y3979D01*
X4520Y3980D01*
X4514Y3980D01*
X4504Y3989D01*
X4498Y3994D01*
X4490Y3995D01*
X4214D01*
X4210Y4000D01*
X4203Y4006D01*
X4194Y4009D01*
X4185Y4010D01*
X4176Y4009D01*
X4167Y4006D01*
X4160Y4000D01*
X4156Y3995D01*
X3973D01*
X3942Y4027D01*
X3942Y4030D01*
X3944Y4031D01*
X3948Y4032D01*
X3955Y4029D01*
X3964Y4028D01*
X3974Y4029D01*
X3982Y4032D01*
X3989Y4038D01*
X3995Y4045D01*
X3999Y4054D01*
X4000Y4063D01*
X3999Y4072D01*
X3995Y4081D01*
X3989Y4088D01*
X3982Y4094D01*
X3975Y4097D01*
X3939Y4133D01*
X3941Y4137D01*
X3952Y4138D01*
X3963Y4143D01*
X3972Y4150D01*
X3980Y4159D01*
X3984Y4170D01*
X3986Y4182D01*
X3984Y4194D01*
X3980Y4205D01*
X3972Y4214D01*
X3963Y4221D01*
X3952Y4226D01*
X3940Y4227D01*
X3929Y4226D01*
X3918Y4221D01*
X3909Y4214D01*
X3901Y4205D01*
X3897Y4194D01*
X3896Y4183D01*
X3891Y4180D01*
X3802Y4269D01*
Y4363D01*
X3805Y4365D01*
X3811Y4372D01*
X3814Y4381D01*
X3815Y4390D01*
X3815Y4393D01*
X3893Y4471D01*
X3908D01*
X3910Y4466D01*
X3906Y4457D01*
X3905Y4445D01*
X3906Y4433D01*
X3911Y4422D01*
X3918Y4413D01*
X3927Y4406D01*
X3938Y4401D01*
X3950Y4400D01*
X3962Y4401D01*
X3973Y4406D01*
X3982Y4413D01*
X3989Y4422D01*
X3993Y4432D01*
X3998Y4434D01*
X4003Y4429D01*
X4003Y4429D01*
X4010Y4424D01*
X4019Y4423D01*
X4019Y4423D01*
X4048D01*
X4050Y4420D01*
X4057Y4414D01*
X4066Y4411D01*
X4075Y4410D01*
X4084Y4411D01*
X4093Y4414D01*
X4100Y4420D01*
X4102Y4423D01*
X4142D01*
X4154Y4411D01*
X4154Y4411D01*
X4161Y4406D01*
X4170Y4404D01*
X4170Y4404D01*
X4230D01*
X4230Y4404D01*
X4239Y4406D01*
X4246Y4411D01*
X4258Y4423D01*
X4582D01*
X4583Y4418D01*
X4576Y4415D01*
X4567Y4408D01*
X4560Y4399D01*
X4555Y4388D01*
X4554Y4376D01*
X4555Y4364D01*
X4560Y4353D01*
X4567Y4344D01*
X4576Y4337D01*
X4587Y4332D01*
X4599Y4331D01*
X4611Y4332D01*
X4622Y4337D01*
X4631Y4344D01*
X4638Y4353D01*
X4643Y4364D01*
X4644Y4376D01*
X4643Y4388D01*
X4638Y4399D01*
X4631Y4408D01*
X4622Y4415D01*
X4615Y4418D01*
X4616Y4423D01*
X4643D01*
X4645Y4420D01*
X4652Y4414D01*
X4661Y4411D01*
X4670Y4410D01*
X4679Y4411D01*
X4688Y4414D01*
X4695Y4420D01*
X4697Y4423D01*
X4746D01*
X4778Y4391D01*
Y4319D01*
X4773Y4317D01*
X4768Y4321D01*
X4759Y4324D01*
X4750Y4325D01*
X4741Y4324D01*
X4732Y4321D01*
X4725Y4315D01*
X4719Y4308D01*
X4716Y4299D01*
X4715Y4290D01*
X4716Y4281D01*
X4719Y4272D01*
X4725Y4265D01*
X4732Y4259D01*
X4741Y4256D01*
X4750Y4255D01*
X4751Y4255D01*
X4754Y4250D01*
X4698Y4195D01*
X4695Y4195D01*
X4688Y4201D01*
X4679Y4204D01*
X4670Y4205D01*
X4661Y4204D01*
X4652Y4201D01*
X4645Y4195D01*
X4643Y4192D01*
X4611D01*
X4608Y4197D01*
X4609Y4201D01*
X4610Y4210D01*
X4609Y4219D01*
X4606Y4228D01*
X4600Y4235D01*
X4593Y4241D01*
X4584Y4244D01*
X4575Y4245D01*
X4566Y4244D01*
X4557Y4241D01*
X4550Y4235D01*
X4546Y4230D01*
X4263D01*
X4220Y4274D01*
X4220Y4280D01*
X4219Y4289D01*
X4216Y4298D01*
X4214Y4300D01*
X4216Y4305D01*
X4278D01*
X4314Y4269D01*
X4320Y4264D01*
X4327Y4261D01*
X4335Y4260D01*
X4572D01*
X4572Y4259D01*
X4581Y4256D01*
X4590Y4255D01*
X4599Y4256D01*
X4608Y4259D01*
X4615Y4265D01*
X4621Y4272D01*
X4624Y4281D01*
X4625Y4290D01*
X4624Y4299D01*
X4621Y4308D01*
X4615Y4315D01*
X4608Y4321D01*
X4599Y4324D01*
X4590Y4325D01*
X4581Y4324D01*
X4572Y4321D01*
X4572Y4320D01*
X4347D01*
X4312Y4356D01*
X4305Y4361D01*
X4298Y4364D01*
X4290Y4365D01*
X4225D01*
X4224Y4366D01*
X4222Y4368D01*
X4220Y4370D01*
X4213Y4376D01*
X4204Y4379D01*
X4195Y4380D01*
X4186Y4379D01*
X4177Y4376D01*
X4170Y4370D01*
X4164Y4363D01*
X4161Y4354D01*
X4160Y4345D01*
X4161Y4336D01*
X4164Y4327D01*
X4170Y4320D01*
X4173Y4318D01*
X4172Y4312D01*
X4167Y4311D01*
X4160Y4305D01*
X4156Y4300D01*
X3944D01*
X3941Y4308D01*
X3935Y4315D01*
X3928Y4321D01*
X3919Y4324D01*
X3910Y4325D01*
X3901Y4324D01*
X3892Y4321D01*
X3885Y4315D01*
X3879Y4308D01*
X3876Y4299D01*
X3875Y4290D01*
X3876Y4281D01*
X3879Y4272D01*
X3885Y4265D01*
X3892Y4259D01*
X3901Y4256D01*
X3910Y4255D01*
X3919Y4256D01*
X3928Y4259D01*
X3928Y4260D01*
X4156D01*
X4160Y4255D01*
X4167Y4249D01*
X4176Y4246D01*
X4185Y4245D01*
X4191Y4245D01*
X4239Y4197D01*
X4237Y4192D01*
X4102D01*
X4100Y4195D01*
X4093Y4201D01*
X4084Y4204D01*
X4075Y4205D01*
X4066Y4204D01*
X4057Y4201D01*
X4050Y4195D01*
X4044Y4188D01*
X4041Y4179D01*
X4040Y4170D01*
X4041Y4161D01*
X4044Y4152D01*
X4050Y4145D01*
X4057Y4139D01*
X4066Y4136D01*
X4075Y4135D01*
X4084Y4136D01*
X4093Y4139D01*
X4100Y4145D01*
X4102Y4148D01*
X4537D01*
X4539Y4146D01*
X4539Y4146D01*
X4546Y4141D01*
X4555Y4139D01*
X4595D01*
X4595Y4139D01*
X4604Y4141D01*
X4611Y4146D01*
X4613Y4148D01*
X4643D01*
X4645Y4145D01*
X4652Y4139D01*
X4661Y4136D01*
X4670Y4135D01*
X4679Y4136D01*
X4688Y4139D01*
X4695Y4145D01*
X4697Y4148D01*
X4705D01*
X4705Y4148D01*
X4714Y4149D01*
X4721Y4154D01*
X4816Y4249D01*
X4816Y4249D01*
X4821Y4256D01*
X4822Y4265D01*
X4822Y4265D01*
Y4400D01*
X4822Y4400D01*
X4821Y4409D01*
X4816Y4416D01*
X4816Y4416D01*
X4771Y4461D01*
X4764Y4466D01*
X4755Y4467D01*
X4755Y4467D01*
X4697D01*
X4695Y4470D01*
X4688Y4476D01*
X4679Y4479D01*
X4670Y4480D01*
X4661Y4479D01*
X4652Y4476D01*
X4645Y4470D01*
X4645Y4470D01*
X4644Y4475D01*
X4644Y4476D01*
X4698Y4530D01*
X4726D01*
X4730Y4525D01*
X4737Y4519D01*
X4746Y4516D01*
X4755Y4515D01*
X4764Y4516D01*
X4773Y4519D01*
X4780Y4525D01*
X4786Y4532D01*
X4789Y4541D01*
X4790Y4550D01*
X4789Y4559D01*
X4786Y4568D01*
X4780Y4575D01*
X4773Y4581D01*
X4764Y4584D01*
X4755Y4585D01*
X4746Y4584D01*
X4737Y4581D01*
X4730Y4575D01*
X4726Y4570D01*
X4690D01*
X4682Y4569D01*
X4676Y4564D01*
X4622Y4510D01*
X4615D01*
X4615Y4511D01*
X4614Y4515D01*
X4620Y4520D01*
X4626Y4527D01*
X4629Y4536D01*
X4630Y4545D01*
X4629Y4554D01*
X4626Y4563D01*
X4620Y4570D01*
X4613Y4576D01*
X4604Y4579D01*
X4595Y4580D01*
X4586Y4579D01*
X4577Y4576D01*
X4570Y4570D01*
X4566Y4565D01*
X4392D01*
X4388Y4567D01*
X4387Y4570D01*
X4388Y4570D01*
X4397Y4571D01*
X4408Y4576D01*
X4417Y4583D01*
X4424Y4592D01*
X4429Y4603D01*
X4430Y4615D01*
X4429Y4627D01*
X4424Y4638D01*
X4417Y4647D01*
X4408Y4654D01*
X4397Y4659D01*
X4385Y4660D01*
X4373Y4659D01*
X4362Y4654D01*
X4353Y4647D01*
X4346Y4638D01*
X4341Y4627D01*
X4340Y4615D01*
X4341Y4603D01*
X4346Y4592D01*
X4353Y4583D01*
X4362Y4576D01*
X4373Y4571D01*
X4382Y4570D01*
X4383Y4570D01*
X4382Y4567D01*
X4378Y4565D01*
X4225D01*
X4224Y4569D01*
X4221Y4578D01*
X4215Y4585D01*
X4208Y4591D01*
X4199Y4594D01*
X4190Y4595D01*
X4181Y4594D01*
X4172Y4591D01*
X4165Y4585D01*
X4161Y4580D01*
X3938D01*
X3938Y4581D01*
X3929Y4584D01*
X3920Y4585D01*
X3911Y4584D01*
X3902Y4581D01*
X3895Y4575D01*
X3889Y4568D01*
X3886Y4559D01*
X3885Y4550D01*
X3886Y4541D01*
X3889Y4532D01*
X3895Y4525D01*
X3900Y4521D01*
X3899Y4516D01*
X3884D01*
X3875Y4514D01*
X3868Y4509D01*
X3868Y4509D01*
X3783Y4425D01*
X3780Y4425D01*
X3771Y4424D01*
X3762Y4421D01*
X3755Y4415D01*
X3754Y4413D01*
X3749Y4415D01*
Y4481D01*
X3773Y4505D01*
X3777Y4512D01*
X3779Y4519D01*
Y4615D01*
X3784Y4617D01*
X3787Y4614D01*
X3796Y4611D01*
X3805Y4610D01*
X3814Y4611D01*
X3823Y4614D01*
X3830Y4620D01*
X3836Y4627D01*
X3839Y4636D01*
X3840Y4645D01*
X3839Y4654D01*
X3839Y4656D01*
X3907Y4724D01*
X4569D01*
X4570Y4722D01*
X4575Y4715D01*
X4583Y4709D01*
X4591Y4706D01*
X4600Y4705D01*
X4609Y4706D01*
X4618Y4709D01*
X4625Y4715D01*
X4631Y4722D01*
X4634Y4731D01*
X4635Y4740D01*
X4634Y4749D01*
X4633Y4752D01*
X4637Y4755D01*
X4678Y4714D01*
X4677Y4709D01*
X4673Y4709D01*
X4662Y4704D01*
X4653Y4697D01*
X4646Y4688D01*
X4641Y4677D01*
X4640Y4665D01*
X4641Y4653D01*
X4646Y4642D01*
X4653Y4633D01*
X4662Y4626D01*
X4673Y4621D01*
X4685Y4620D01*
X4697Y4621D01*
X4708Y4626D01*
X4717Y4633D01*
X4724Y4642D01*
X4729Y4653D01*
X4729Y4657D01*
X4734Y4658D01*
X4834Y4558D01*
Y4137D01*
X4493Y3796D01*
X3851D01*
X3851Y3798D01*
X3845Y3805D01*
X3838Y3811D01*
X3829Y3814D01*
X3820Y3815D01*
X3811Y3814D01*
X3802Y3811D01*
X3795Y3805D01*
X3789Y3798D01*
X3786Y3789D01*
X3785Y3780D01*
X3786Y3771D01*
X3789Y3762D01*
X3795Y3755D01*
X3802Y3749D01*
X3811Y3746D01*
X3820Y3745D01*
X3829Y3746D01*
X3838Y3749D01*
X3845Y3755D01*
X3851Y3762D01*
X3851Y3764D01*
X3960D01*
X3961Y3759D01*
X3952Y3756D01*
X3945Y3750D01*
X3939Y3743D01*
X3936Y3734D01*
X3935Y3725D01*
X3936Y3716D01*
X3939Y3707D01*
X3945Y3700D01*
X3948Y3698D01*
Y3437D01*
X3906Y3395D01*
X3900Y3395D01*
X3891Y3394D01*
X3882Y3391D01*
X3875Y3385D01*
X3869Y3378D01*
X3866Y3369D01*
X3865Y3360D01*
X3866Y3351D01*
X3869Y3342D01*
X3875Y3335D01*
X3882Y3329D01*
X3891Y3326D01*
X3900Y3325D01*
X3909Y3326D01*
X3918Y3329D01*
X3925Y3335D01*
X3931Y3342D01*
X3934Y3351D01*
X3935Y3360D01*
X3935Y3366D01*
X3983Y3414D01*
X3987Y3421D01*
X3989Y3428D01*
Y3695D01*
X3995Y3700D01*
X4000Y3706D01*
X4001Y3706D01*
X4004D01*
X4005Y3706D01*
X4010Y3700D01*
X4013Y3698D01*
Y3480D01*
X4013Y3480D01*
X4014Y3471D01*
X4019Y3464D01*
X4030Y3453D01*
X4030Y3450D01*
X4031Y3441D01*
X4034Y3432D01*
X4040Y3425D01*
X4047Y3419D01*
X4056Y3416D01*
X4065Y3415D01*
X4074Y3416D01*
X4083Y3419D01*
X4090Y3425D01*
X4096Y3432D01*
X4099Y3441D01*
X4100Y3450D01*
X4099Y3459D01*
X4096Y3468D01*
X4090Y3475D01*
X4083Y3481D01*
X4074Y3484D01*
X4065Y3485D01*
X4062Y3485D01*
X4057Y3489D01*
Y3698D01*
X4060Y3700D01*
X4066Y3707D01*
X4069Y3716D01*
X4070Y3725D01*
X4069Y3734D01*
X4066Y3743D01*
X4060Y3750D01*
X4053Y3756D01*
X4044Y3759D01*
X4045Y3764D01*
X4500D01*
X4506Y3765D01*
X4511Y3769D01*
X4829Y4086D01*
X4834Y4084D01*
Y3855D01*
X4835Y3849D01*
X4839Y3844D01*
X4894Y3789D01*
X4899Y3785D01*
X4905Y3784D01*
X5813D01*
X5839Y3758D01*
X5839Y3753D01*
X5830Y3742D01*
X5830Y3740D01*
X5825D01*
X5824Y3742D01*
X5815Y3753D01*
X5804Y3762D01*
X5791Y3767D01*
X5777Y3769D01*
X5763Y3767D01*
X5750Y3762D01*
X5739Y3753D01*
X5730Y3742D01*
X5730Y3740D01*
X5725D01*
X5724Y3742D01*
X5715Y3753D01*
X5704Y3762D01*
X5691Y3767D01*
X5677Y3769D01*
X5663Y3767D01*
X5650Y3762D01*
X5639Y3753D01*
X5630Y3742D01*
X5630Y3740D01*
X5625D01*
X5624Y3742D01*
X5615Y3753D01*
X5604Y3762D01*
X5591Y3767D01*
X5577Y3769D01*
X5563Y3767D01*
X5550Y3762D01*
X5539Y3753D01*
X5530Y3742D01*
X5530Y3740D01*
X5525D01*
X5524Y3742D01*
X5515Y3753D01*
X5504Y3762D01*
X5491Y3767D01*
X5477Y3769D01*
X5463Y3767D01*
X5450Y3762D01*
X5439Y3753D01*
X5430Y3742D01*
X5430Y3740D01*
X5425D01*
X5424Y3742D01*
X5415Y3753D01*
X5404Y3762D01*
X5391Y3767D01*
X5377Y3769D01*
X5363Y3767D01*
X5350Y3762D01*
X5339Y3753D01*
X5330Y3742D01*
X5330Y3740D01*
X5325D01*
X5324Y3742D01*
X5315Y3753D01*
X5304Y3762D01*
X5291Y3767D01*
X5277Y3769D01*
X5263Y3767D01*
X5250Y3762D01*
X5239Y3753D01*
X5230Y3742D01*
X5225Y3729D01*
X5223Y3715D01*
X5225Y3701D01*
X5230Y3688D01*
X5239Y3677D01*
X5247Y3671D01*
Y3660D01*
X5241Y3656D01*
X5233Y3645D01*
X5228Y3632D01*
X5226Y3619D01*
X5228Y3606D01*
X5233Y3593D01*
X5241Y3582D01*
X5252Y3574D01*
X5262Y3570D01*
X5261Y3565D01*
X4993D01*
X4993Y3566D01*
X4984Y3569D01*
X4975Y3570D01*
X4966Y3569D01*
X4957Y3566D01*
X4950Y3560D01*
X4944Y3553D01*
X4941Y3544D01*
X4940Y3535D01*
X4941Y3526D01*
X4944Y3517D01*
X4950Y3510D01*
X4957Y3504D01*
X4966Y3501D01*
X4975Y3500D01*
X4984Y3501D01*
X4993Y3504D01*
X4993Y3505D01*
X5325D01*
X5328Y3500D01*
X5326Y3497D01*
X5320Y3487D01*
X5317Y3476D01*
X5316Y3464D01*
X5317Y3453D01*
X5320Y3442D01*
X5326Y3431D01*
X5333Y3422D01*
X5342Y3415D01*
X5352Y3409D01*
X5363Y3406D01*
X5375Y3405D01*
X5387Y3406D01*
X5398Y3409D01*
X5408Y3415D01*
X5417Y3422D01*
X5424Y3431D01*
X5430Y3442D01*
X5433Y3453D01*
X5434Y3464D01*
X5434Y3470D01*
X5439Y3472D01*
X5468Y3443D01*
X5474Y3438D01*
X5481Y3435D01*
X5489Y3434D01*
X5524D01*
X5526Y3431D01*
X5533Y3422D01*
X5542Y3415D01*
X5552Y3409D01*
X5564Y3406D01*
X5575Y3405D01*
X5587Y3406D01*
X5598Y3409D01*
X5608Y3415D01*
X5617Y3422D01*
X5625Y3431D01*
X5630Y3442D01*
X5634Y3453D01*
X5635Y3464D01*
X5634Y3476D01*
X5630Y3487D01*
X5625Y3497D01*
X5617Y3506D01*
X5608Y3514D01*
X5598Y3519D01*
X5587Y3523D01*
X5575Y3524D01*
X5564Y3523D01*
X5552Y3519D01*
X5542Y3514D01*
X5533Y3506D01*
X5526Y3497D01*
X5524Y3494D01*
X5502D01*
X5430Y3566D01*
X5423Y3571D01*
X5416Y3574D01*
X5413Y3574D01*
X5411Y3580D01*
X5415Y3582D01*
X5423Y3593D01*
X5426Y3600D01*
X5431D01*
X5433Y3593D01*
X5441Y3582D01*
X5452Y3574D01*
X5465Y3569D01*
X5478Y3567D01*
X5492Y3569D01*
X5504Y3574D01*
X5515Y3582D01*
X5523Y3593D01*
X5526Y3600D01*
X5531D01*
X5533Y3593D01*
X5541Y3582D01*
X5552Y3574D01*
X5565Y3569D01*
X5578Y3567D01*
X5592Y3569D01*
X5604Y3574D01*
X5615Y3582D01*
X5623Y3593D01*
X5626Y3600D01*
X5631D01*
X5633Y3593D01*
X5641Y3582D01*
X5652Y3574D01*
X5665Y3569D01*
X5678Y3567D01*
X5692Y3569D01*
X5704Y3574D01*
X5715Y3582D01*
X5723Y3593D01*
X5726Y3600D01*
X5731D01*
X5733Y3593D01*
X5741Y3582D01*
X5752Y3574D01*
X5765Y3569D01*
X5778Y3567D01*
X5792Y3569D01*
X5804Y3574D01*
X5815Y3582D01*
X5823Y3593D01*
X5826Y3600D01*
X5831D01*
X5833Y3593D01*
X5841Y3582D01*
X5852Y3574D01*
X5858Y3572D01*
Y3551D01*
X5852Y3549D01*
X5841Y3541D01*
X5833Y3530D01*
X5828Y3517D01*
X5826Y3504D01*
X5828Y3491D01*
X5833Y3478D01*
X5841Y3467D01*
X5852Y3459D01*
X5865Y3454D01*
X5878Y3452D01*
X5892Y3454D01*
X5904Y3459D01*
X5915Y3467D01*
X5923Y3478D01*
X5928Y3491D01*
X5930Y3504D01*
X5928Y3517D01*
X5923Y3530D01*
X5915Y3541D01*
X5904Y3549D01*
X5898Y3551D01*
Y3572D01*
X5904Y3574D01*
X5915Y3582D01*
X5923Y3593D01*
X5926Y3600D01*
X5931D01*
X5933Y3593D01*
X5941Y3582D01*
X5952Y3574D01*
X5965Y3569D01*
X5978Y3567D01*
X5992Y3569D01*
X5998Y3572D01*
X6037Y3535D01*
X6033Y3530D01*
X6028Y3517D01*
X6026Y3504D01*
X6028Y3491D01*
X6033Y3478D01*
X6041Y3467D01*
X6052Y3459D01*
X6065Y3454D01*
X6078Y3452D01*
X6092Y3454D01*
X6104Y3459D01*
X6115Y3467D01*
X6123Y3478D01*
X6128Y3491D01*
X6130Y3504D01*
X6128Y3517D01*
X6123Y3530D01*
X6115Y3541D01*
X6104Y3549D01*
X6092Y3554D01*
X6078Y3556D01*
X6075Y3555D01*
X6066Y3564D01*
X6068Y3569D01*
X6078Y3567D01*
X6092Y3569D01*
X6104Y3574D01*
X6115Y3582D01*
X6123Y3593D01*
X6126Y3600D01*
X6131D01*
X6133Y3593D01*
X6141Y3582D01*
X6152Y3574D01*
X6165Y3569D01*
X6178Y3567D01*
X6192Y3569D01*
X6204Y3574D01*
X6215Y3582D01*
X6223Y3593D01*
X6226Y3600D01*
X6231D01*
X6233Y3593D01*
X6241Y3582D01*
X6252Y3574D01*
X6265Y3569D01*
X6278Y3567D01*
X6292Y3569D01*
X6304Y3574D01*
X6315Y3582D01*
X6323Y3593D01*
X6326Y3600D01*
X6331D01*
X6333Y3593D01*
X6341Y3582D01*
X6352Y3574D01*
X6359Y3572D01*
Y3567D01*
X6352Y3564D01*
X6341Y3556D01*
X6333Y3545D01*
X6328Y3532D01*
X6326Y3519D01*
X6328Y3506D01*
X6333Y3493D01*
X6341Y3482D01*
X6352Y3474D01*
X6365Y3469D01*
X6378Y3467D01*
X6392Y3469D01*
X6404Y3474D01*
X6415Y3482D01*
X6423Y3493D01*
X6426Y3500D01*
X6431D01*
X6433Y3493D01*
X6441Y3482D01*
X6452Y3474D01*
X6465Y3469D01*
X6478Y3467D01*
X6492Y3469D01*
X6504Y3474D01*
X6515Y3482D01*
X6523Y3493D01*
X6528Y3506D01*
X6530Y3519D01*
X6528Y3532D01*
X6523Y3545D01*
X6515Y3556D01*
X6504Y3564D01*
X6498Y3567D01*
Y3572D01*
X6504Y3574D01*
X6515Y3582D01*
X6523Y3593D01*
X6526Y3600D01*
X6531D01*
X6533Y3593D01*
X6541Y3582D01*
X6552Y3574D01*
X6565Y3569D01*
X6578Y3567D01*
X6592Y3569D01*
X6604Y3574D01*
X6615Y3582D01*
X6620Y3589D01*
X6636D01*
X6641Y3582D01*
X6652Y3574D01*
X6665Y3569D01*
X6678Y3567D01*
X6692Y3569D01*
X6704Y3574D01*
X6715Y3582D01*
X6723Y3593D01*
X6726Y3600D01*
X6731D01*
X6733Y3593D01*
X6741Y3582D01*
X6752Y3574D01*
X6765Y3569D01*
X6778Y3567D01*
X6792Y3569D01*
X6804Y3574D01*
X6815Y3582D01*
X6823Y3593D01*
X6826Y3600D01*
X6831D01*
X6833Y3593D01*
X6841Y3582D01*
X6852Y3574D01*
X6865Y3569D01*
X6878Y3567D01*
X6892Y3569D01*
X6904Y3574D01*
X6915Y3582D01*
X6923Y3593D01*
X6926Y3600D01*
X6931D01*
X6933Y3593D01*
X6940Y3584D01*
Y3555D01*
X6885D01*
X6878Y3556D01*
X6865Y3554D01*
X6852Y3549D01*
X6841Y3541D01*
X6833Y3530D01*
X6831Y3523D01*
X6826D01*
X6823Y3530D01*
X6815Y3541D01*
X6804Y3549D01*
X6792Y3554D01*
X6778Y3556D01*
X6765Y3554D01*
X6752Y3549D01*
X6741Y3541D01*
X6733Y3530D01*
X6728Y3517D01*
X6726Y3504D01*
X6728Y3491D01*
X6733Y3478D01*
X6741Y3467D01*
X6752Y3459D01*
X6765Y3454D01*
X6778Y3452D01*
X6792Y3454D01*
X6804Y3459D01*
X6815Y3467D01*
X6823Y3478D01*
X6826Y3485D01*
X6831D01*
X6833Y3478D01*
X6841Y3467D01*
X6852Y3459D01*
X6865Y3454D01*
X6878Y3452D01*
X6892Y3454D01*
X6904Y3459D01*
X6915Y3467D01*
X6923Y3478D01*
X6928Y3491D01*
X6929Y3495D01*
X6970D01*
X6978Y3496D01*
X6985Y3499D01*
X6991Y3504D01*
X6996Y3510D01*
X6999Y3517D01*
X7000Y3525D01*
Y3572D01*
X7004Y3574D01*
X7015Y3582D01*
X7023Y3593D01*
X7028Y3606D01*
X7030Y3619D01*
X7028Y3632D01*
X7023Y3645D01*
X7015Y3656D01*
X7007Y3662D01*
Y3671D01*
X7015Y3677D01*
X7019Y3682D01*
X7024Y3681D01*
X7024Y3680D01*
X7032Y3670D01*
X7042Y3662D01*
X7053Y3657D01*
X7065Y3653D01*
X7077Y3652D01*
X7089Y3653D01*
X7101Y3657D01*
X7112Y3662D01*
X7122Y3670D01*
X7125Y3674D01*
X7130D01*
X7132Y3670D01*
X7142Y3662D01*
X7153Y3657D01*
X7165Y3653D01*
X7177Y3652D01*
X7189Y3653D01*
X7201Y3657D01*
X7212Y3662D01*
X7222Y3670D01*
X7230Y3680D01*
X7236Y3691D01*
X7239Y3703D01*
X7240Y3715D01*
X7239Y3727D01*
X7236Y3739D01*
X7230Y3750D01*
X7222Y3760D01*
X7212Y3768D01*
X7201Y3774D01*
X7189Y3777D01*
X7177Y3778D01*
X7165Y3777D01*
X7153Y3774D01*
X7142Y3768D01*
X7132Y3760D01*
X7130Y3757D01*
X7125D01*
X7122Y3760D01*
X7112Y3768D01*
X7101Y3774D01*
X7089Y3777D01*
X7077Y3778D01*
X7065Y3777D01*
X7053Y3774D01*
X7042Y3768D01*
X7032Y3760D01*
X7024Y3750D01*
X7024Y3749D01*
X7019Y3748D01*
X7015Y3753D01*
X7004Y3762D01*
X6991Y3767D01*
X6977Y3769D01*
X6963Y3767D01*
X6950Y3762D01*
X6939Y3753D01*
X6930Y3742D01*
X6930Y3740D01*
X6925D01*
X6924Y3742D01*
X6915Y3753D01*
X6904Y3762D01*
X6891Y3767D01*
X6879Y3769D01*
X6716Y3931D01*
X6711Y3935D01*
X6705Y3936D01*
X5226D01*
X5078Y4085D01*
X5079Y4090D01*
X5084Y4091D01*
X5093Y4094D01*
X5100Y4100D01*
X5106Y4107D01*
X5109Y4116D01*
X5110Y4125D01*
X5109Y4134D01*
X5106Y4143D01*
X5100Y4150D01*
X5093Y4156D01*
X5091Y4156D01*
Y4284D01*
X5222Y4415D01*
X5227Y4413D01*
X5226Y4409D01*
X5228Y4396D01*
X5233Y4383D01*
X5241Y4372D01*
X5249Y4367D01*
X5249Y4365D01*
X5249Y4361D01*
X5239Y4353D01*
X5230Y4342D01*
X5225Y4329D01*
X5223Y4315D01*
X5225Y4301D01*
X5230Y4288D01*
X5239Y4277D01*
X5247Y4271D01*
Y4209D01*
X5147Y4109D01*
X5146Y4109D01*
X5137Y4106D01*
X5130Y4100D01*
X5124Y4093D01*
X5121Y4084D01*
X5120Y4075D01*
X5121Y4066D01*
X5124Y4057D01*
X5130Y4050D01*
X5137Y4044D01*
X5146Y4041D01*
X5155Y4040D01*
X5164Y4041D01*
X5173Y4044D01*
X5180Y4050D01*
X5186Y4057D01*
X5189Y4066D01*
X5189Y4067D01*
X5298Y4176D01*
X5303Y4182D01*
X5304Y4185D01*
X5306Y4189D01*
X5307Y4197D01*
Y4271D01*
X5315Y4277D01*
X5319Y4282D01*
X5324Y4281D01*
X5324Y4280D01*
X5332Y4270D01*
X5342Y4262D01*
X5353Y4257D01*
X5365Y4253D01*
X5377Y4252D01*
X5389Y4253D01*
X5401Y4257D01*
X5412Y4262D01*
X5422Y4270D01*
X5430Y4280D01*
X5430Y4281D01*
X5435Y4282D01*
X5439Y4277D01*
X5450Y4269D01*
X5463Y4263D01*
X5477Y4261D01*
X5491Y4263D01*
X5504Y4269D01*
X5515Y4277D01*
X5516Y4277D01*
X5520Y4275D01*
Y4144D01*
X5515Y4140D01*
X5509Y4133D01*
X5506Y4124D01*
X5505Y4115D01*
X5506Y4106D01*
X5509Y4097D01*
X5515Y4090D01*
X5522Y4084D01*
X5531Y4081D01*
X5540Y4080D01*
X5549Y4081D01*
X5558Y4084D01*
X5565Y4090D01*
X5571Y4097D01*
X5574Y4106D01*
X5575Y4115D01*
X5574Y4124D01*
X5571Y4133D01*
X5565Y4140D01*
X5560Y4144D01*
Y4260D01*
X5565Y4263D01*
X5577Y4261D01*
X5591Y4263D01*
X5604Y4269D01*
X5615Y4277D01*
X5624Y4288D01*
X5625Y4290D01*
X5630D01*
X5630Y4288D01*
X5639Y4277D01*
X5650Y4269D01*
X5663Y4263D01*
X5677Y4261D01*
X5687Y4263D01*
X5690Y4258D01*
X5629Y4197D01*
X5625Y4192D01*
X5624Y4185D01*
Y4130D01*
X5550Y4056D01*
X5482D01*
X5474Y4064D01*
X5474Y4066D01*
X5475Y4075D01*
X5474Y4084D01*
X5471Y4093D01*
X5465Y4100D01*
X5458Y4106D01*
X5449Y4109D01*
X5440Y4110D01*
X5431Y4109D01*
X5422Y4106D01*
X5415Y4100D01*
X5409Y4093D01*
X5406Y4084D01*
X5405Y4075D01*
X5406Y4066D01*
X5409Y4057D01*
X5415Y4050D01*
X5422Y4044D01*
X5431Y4041D01*
X5440Y4040D01*
X5449Y4041D01*
X5451Y4041D01*
X5464Y4029D01*
X5469Y4025D01*
X5475Y4024D01*
X5557D01*
X5563Y4025D01*
X5568Y4029D01*
X5651Y4112D01*
X5652Y4113D01*
X5658Y4112D01*
X5659Y4107D01*
X5665Y4100D01*
X5672Y4094D01*
X5681Y4091D01*
X5690Y4090D01*
X5699Y4091D01*
X5708Y4094D01*
X5715Y4100D01*
X5721Y4107D01*
X5724Y4116D01*
X5725Y4125D01*
X5724Y4134D01*
X5721Y4143D01*
X5715Y4150D01*
X5708Y4156D01*
X5699Y4159D01*
X5690Y4160D01*
X5681Y4159D01*
X5672Y4156D01*
X5665Y4150D01*
X5661Y4145D01*
X5656Y4147D01*
Y4179D01*
X5748Y4270D01*
X5750Y4269D01*
X5763Y4263D01*
X5777Y4261D01*
X5791Y4263D01*
X5804Y4269D01*
X5815Y4277D01*
X5821Y4285D01*
X5833D01*
X5839Y4277D01*
X5850Y4269D01*
X5863Y4263D01*
X5877Y4261D01*
X5891Y4263D01*
X5904Y4269D01*
X5915Y4277D01*
X5924Y4288D01*
X5925Y4290D01*
X5930D01*
X5930Y4288D01*
X5939Y4277D01*
X5950Y4269D01*
X5963Y4263D01*
X5977Y4261D01*
X5991Y4263D01*
X6004Y4269D01*
X6015Y4277D01*
X6024Y4288D01*
X6025Y4290D01*
X6030D01*
X6030Y4288D01*
X6039Y4277D01*
X6050Y4269D01*
X6063Y4263D01*
X6077Y4261D01*
X6091Y4263D01*
X6104Y4269D01*
X6115Y4277D01*
X6124Y4288D01*
X6125Y4290D01*
X6130D01*
X6130Y4288D01*
X6139Y4277D01*
X6150Y4269D01*
X6163Y4263D01*
X6177Y4261D01*
X6191Y4263D01*
X6204Y4269D01*
X6215Y4277D01*
X6224Y4288D01*
X6225Y4290D01*
X6230D01*
X6230Y4288D01*
X6239Y4277D01*
X6250Y4269D01*
X6263Y4263D01*
X6277Y4261D01*
X6291Y4263D01*
X6304Y4269D01*
X6315Y4277D01*
X6324Y4288D01*
X6325Y4290D01*
X6330D01*
X6330Y4288D01*
X6339Y4277D01*
X6350Y4269D01*
X6363Y4263D01*
X6377Y4261D01*
X6391Y4263D01*
X6404Y4269D01*
X6415Y4277D01*
X6424Y4288D01*
X6425Y4290D01*
X6430D01*
X6430Y4288D01*
X6439Y4277D01*
X6450Y4269D01*
X6463Y4263D01*
X6477Y4261D01*
X6491Y4263D01*
X6504Y4269D01*
X6515Y4277D01*
X6524Y4288D01*
X6525Y4290D01*
X6530D01*
X6530Y4288D01*
X6539Y4277D01*
X6550Y4269D01*
X6563Y4263D01*
X6577Y4261D01*
X6591Y4263D01*
X6604Y4269D01*
X6615Y4277D01*
X6624Y4288D01*
X6625Y4290D01*
X6630D01*
X6630Y4288D01*
X6639Y4277D01*
X6650Y4269D01*
X6663Y4263D01*
X6677Y4261D01*
X6691Y4263D01*
X6704Y4269D01*
X6715Y4277D01*
X6724Y4288D01*
X6725Y4290D01*
X6730D01*
X6730Y4288D01*
X6739Y4277D01*
X6750Y4269D01*
X6763Y4263D01*
X6777Y4261D01*
X6791Y4263D01*
X6804Y4269D01*
X6815Y4277D01*
X6824Y4288D01*
X6825Y4290D01*
X6830D01*
X6830Y4288D01*
X6839Y4277D01*
X6850Y4269D01*
X6863Y4263D01*
X6877Y4261D01*
X6891Y4263D01*
X6904Y4269D01*
X6915Y4277D01*
X6924Y4288D01*
X6925Y4290D01*
X6930D01*
X6930Y4288D01*
X6939Y4277D01*
X6950Y4269D01*
X6963Y4263D01*
X6977Y4261D01*
X6991Y4263D01*
X7004Y4269D01*
X7015Y4277D01*
X7024Y4288D01*
X7025Y4290D01*
X7030D01*
X7030Y4288D01*
X7039Y4277D01*
X7050Y4269D01*
X7063Y4263D01*
X7077Y4261D01*
X7091Y4263D01*
X7104Y4269D01*
X7115Y4277D01*
X7124Y4288D01*
X7125Y4290D01*
X7130D01*
X7130Y4288D01*
X7139Y4277D01*
X7150Y4269D01*
X7163Y4263D01*
X7177Y4261D01*
X7191Y4263D01*
X7204Y4269D01*
X7215Y4277D01*
X7224Y4288D01*
X7229Y4301D01*
X7231Y4315D01*
X7229Y4329D01*
X7224Y4342D01*
X7215Y4353D01*
X7207Y4359D01*
Y4371D01*
X7215Y4377D01*
X7223Y4388D01*
X7228Y4401D01*
X7230Y4414D01*
X7228Y4427D01*
X7223Y4440D01*
X7215Y4451D01*
X7204Y4459D01*
X7192Y4464D01*
X7178Y4466D01*
X7165Y4464D01*
X7152Y4459D01*
X7141Y4451D01*
X7133Y4440D01*
X7131Y4433D01*
X7126D01*
X7123Y4440D01*
X7115Y4451D01*
X7104Y4459D01*
X7092Y4464D01*
X7078Y4466D01*
X7065Y4464D01*
X7052Y4459D01*
X7041Y4451D01*
X7033Y4440D01*
X7031Y4433D01*
X7026D01*
X7023Y4440D01*
X7015Y4451D01*
X7004Y4459D01*
X6992Y4464D01*
X6978Y4466D01*
X6965Y4464D01*
X6952Y4459D01*
X6941Y4451D01*
X6933Y4440D01*
X6931Y4433D01*
X6926D01*
X6923Y4440D01*
X6915Y4451D01*
X6904Y4459D01*
X6892Y4464D01*
X6878Y4466D01*
X6865Y4464D01*
X6852Y4459D01*
X6841Y4451D01*
X6833Y4440D01*
X6831Y4433D01*
X6826D01*
X6823Y4440D01*
X6815Y4451D01*
X6804Y4459D01*
X6792Y4464D01*
X6781Y4465D01*
Y5106D01*
X6780Y5114D01*
X6777Y5121D01*
X6772Y5128D01*
X6700Y5200D01*
X6702Y5205D01*
X6702Y5205D01*
X6860Y5047D01*
X6867Y5043D01*
X6870Y5041D01*
X6874Y5040D01*
X6879Y5039D01*
X7255Y4663D01*
Y4267D01*
X7091Y4103D01*
X6502D01*
X6501Y4104D01*
X6493Y4108D01*
X6484Y4109D01*
X6474Y4108D01*
X6466Y4104D01*
X6459Y4098D01*
X6453Y4091D01*
X6449Y4083D01*
X6448Y4074D01*
X6449Y4064D01*
X6453Y4056D01*
X6459Y4049D01*
X6466Y4043D01*
X6474Y4039D01*
X6484Y4038D01*
X6493Y4039D01*
X6501Y4043D01*
X6502Y4044D01*
X7104D01*
X7111Y4045D01*
X7118Y4048D01*
X7125Y4052D01*
X7306Y4234D01*
X7311Y4240D01*
X7314Y4247D01*
X7315Y4255D01*
Y4671D01*
X7320Y4673D01*
X7450Y4543D01*
Y3602D01*
X7098Y3250D01*
X6365D01*
X6357Y3249D01*
X6353Y3247D01*
X6350Y3246D01*
X6344Y3241D01*
X6282Y3180D01*
X6268D01*
X6268Y3180D01*
X6259Y3184D01*
X6250Y3185D01*
X6241Y3184D01*
X6236Y3182D01*
X6233Y3186D01*
X6338Y3291D01*
X6341Y3291D01*
X6342Y3289D01*
X6351Y3286D01*
X6360Y3285D01*
X6369Y3286D01*
X6378Y3289D01*
X6385Y3295D01*
X6391Y3302D01*
X6394Y3311D01*
X6395Y3320D01*
X6394Y3329D01*
X6391Y3338D01*
X6385Y3345D01*
X6378Y3351D01*
X6369Y3354D01*
X6360Y3355D01*
X6352Y3354D01*
X6350Y3356D01*
X6343Y3359D01*
X6335Y3360D01*
X6327Y3359D01*
X6320Y3356D01*
X6314Y3351D01*
X6173Y3210D01*
X5607D01*
X5441Y3376D01*
X5435Y3381D01*
X5428Y3384D01*
X5420Y3385D01*
X4957D01*
X4830Y3512D01*
Y3737D01*
X4831Y3737D01*
X4834Y3746D01*
X4835Y3755D01*
X4834Y3764D01*
X4831Y3773D01*
X4825Y3780D01*
X4818Y3786D01*
X4809Y3789D01*
X4800Y3790D01*
X4791Y3789D01*
X4782Y3786D01*
X4775Y3780D01*
X4769Y3773D01*
X4766Y3764D01*
X4765Y3755D01*
X4766Y3746D01*
X4769Y3737D01*
X4770Y3737D01*
Y3500D01*
X4771Y3492D01*
X4774Y3485D01*
X4779Y3479D01*
X4924Y3334D01*
X4930Y3329D01*
X4937Y3326D01*
X4945Y3325D01*
X5408D01*
X5574Y3159D01*
X5580Y3154D01*
X5587Y3151D01*
X5595Y3150D01*
X6185D01*
X6193Y3151D01*
X6200Y3154D01*
X6206Y3159D01*
X6214Y3166D01*
X6218Y3163D01*
X6216Y3159D01*
X6215Y3150D01*
X6216Y3140D01*
X6218Y3135D01*
X6215Y3130D01*
X6053D01*
X6045Y3129D01*
X6041Y3128D01*
X6038Y3126D01*
X6032Y3122D01*
X5984Y3073D01*
X5979Y3067D01*
X5976Y3060D01*
X5975Y3054D01*
X5967Y3048D01*
X5958Y3037D01*
X5957Y3035D01*
X5952D01*
X5952Y3037D01*
X5943Y3048D01*
X5932Y3057D01*
X5919Y3062D01*
X5905Y3064D01*
X5891Y3062D01*
X5878Y3057D01*
X5867Y3048D01*
X5858Y3037D01*
X5858Y3035D01*
X5852D01*
X5852Y3037D01*
X5843Y3048D01*
X5832Y3057D01*
X5819Y3062D01*
X5805Y3064D01*
X5791Y3062D01*
X5778Y3057D01*
X5767Y3048D01*
X5758Y3037D01*
X5758Y3035D01*
X5753D01*
X5752Y3037D01*
X5743Y3048D01*
X5732Y3057D01*
X5719Y3062D01*
X5705Y3064D01*
X5691Y3062D01*
X5678Y3057D01*
X5667Y3048D01*
X5658Y3037D01*
X5657Y3035D01*
X5653D01*
X5652Y3037D01*
X5643Y3048D01*
X5632Y3057D01*
X5619Y3062D01*
X5605Y3064D01*
X5591Y3062D01*
X5578Y3057D01*
X5567Y3048D01*
X5558Y3037D01*
X5553Y3024D01*
X5551Y3010D01*
X5553Y2996D01*
X5558Y2983D01*
X5567Y2972D01*
X5578Y2963D01*
X5580Y2963D01*
Y2957D01*
X5578Y2957D01*
X5567Y2948D01*
X5558Y2937D01*
X5553Y2924D01*
X5551Y2910D01*
X5553Y2896D01*
X5558Y2883D01*
X5567Y2872D01*
X5571Y2869D01*
X5570Y2864D01*
X5562Y2863D01*
X5549Y2859D01*
X5537Y2853D01*
X5526Y2844D01*
X5518Y2833D01*
X5511Y2821D01*
X5507Y2809D01*
X5506Y2795D01*
X5507Y2781D01*
X5511Y2769D01*
X5518Y2757D01*
X5526Y2746D01*
X5537Y2737D01*
X5549Y2731D01*
X5562Y2727D01*
X5575Y2726D01*
X5589Y2727D01*
X5602Y2731D01*
X5614Y2737D01*
X5624Y2746D01*
X5633Y2757D01*
X5639Y2769D01*
X5643Y2781D01*
X5644Y2795D01*
X5643Y2809D01*
X5639Y2821D01*
X5633Y2833D01*
X5624Y2844D01*
X5614Y2852D01*
X5614Y2854D01*
X5615Y2857D01*
X5619Y2858D01*
X5632Y2863D01*
X5643Y2872D01*
X5652Y2883D01*
X5653Y2885D01*
X5657D01*
X5658Y2883D01*
X5667Y2872D01*
X5678Y2863D01*
X5691Y2858D01*
X5705Y2856D01*
X5719Y2858D01*
X5732Y2863D01*
X5743Y2872D01*
X5752Y2883D01*
X5753Y2885D01*
X5758D01*
X5758Y2883D01*
X5767Y2872D01*
X5778Y2863D01*
X5791Y2858D01*
X5805Y2856D01*
X5819Y2858D01*
X5832Y2863D01*
X5843Y2872D01*
X5852Y2883D01*
X5852Y2885D01*
X5858D01*
X5858Y2883D01*
X5867Y2872D01*
X5878Y2863D01*
X5891Y2858D01*
X5905Y2856D01*
X5919Y2858D01*
X5932Y2863D01*
X5943Y2872D01*
X5952Y2883D01*
X5952Y2885D01*
X5957D01*
X5958Y2883D01*
X5967Y2872D01*
X5978Y2863D01*
X5991Y2858D01*
X6005Y2856D01*
X6019Y2858D01*
X6032Y2863D01*
X6043Y2872D01*
X6052Y2883D01*
X6052Y2885D01*
X6057D01*
X6058Y2883D01*
X6067Y2872D01*
X6078Y2863D01*
X6091Y2858D01*
X6105Y2856D01*
X6119Y2858D01*
X6132Y2863D01*
X6143Y2872D01*
X6152Y2883D01*
X6153Y2885D01*
X6157D01*
X6158Y2883D01*
X6167Y2872D01*
X6178Y2863D01*
X6191Y2858D01*
X6205Y2856D01*
X6219Y2858D01*
X6232Y2863D01*
X6243Y2872D01*
X6252Y2883D01*
X6253Y2885D01*
X6258D01*
X6258Y2883D01*
X6267Y2872D01*
X6278Y2863D01*
X6291Y2858D01*
X6305Y2856D01*
X6319Y2858D01*
X6332Y2863D01*
X6343Y2872D01*
X6347Y2877D01*
X6352Y2876D01*
X6352Y2875D01*
X6360Y2865D01*
X6370Y2857D01*
X6381Y2852D01*
X6393Y2848D01*
X6405Y2847D01*
X6417Y2848D01*
X6429Y2852D01*
X6440Y2857D01*
X6450Y2865D01*
X6458Y2875D01*
X6463Y2886D01*
X6467Y2898D01*
X6468Y2910D01*
X6467Y2922D01*
X6463Y2934D01*
X6458Y2945D01*
X6450Y2955D01*
X6446Y2957D01*
Y2963D01*
X6450Y2965D01*
X6458Y2975D01*
X6463Y2986D01*
X6467Y2998D01*
X6468Y3010D01*
X6467Y3022D01*
X6463Y3034D01*
X6458Y3045D01*
X6450Y3055D01*
X6446Y3058D01*
X6447Y3063D01*
X6784D01*
X6792Y3064D01*
X6795Y3066D01*
X6800Y3066D01*
X6809Y3070D01*
X6816Y3075D01*
X6822Y3083D01*
X6825Y3091D01*
X6827Y3100D01*
X6825Y3110D01*
X6822Y3118D01*
X6816Y3125D01*
X6809Y3131D01*
X6800Y3134D01*
X6791Y3136D01*
X6782Y3134D01*
X6774Y3131D01*
X6766Y3125D01*
X6765Y3123D01*
X6317D01*
X6315Y3128D01*
X6316Y3128D01*
X6377Y3190D01*
X7110D01*
X7118Y3191D01*
X7125Y3194D01*
X7131Y3199D01*
X7501Y3569D01*
X7506Y3575D01*
X7507Y3578D01*
X7509Y3582D01*
X7510Y3590D01*
Y4555D01*
X7509Y4563D01*
X7507Y4567D01*
X7506Y4570D01*
X7501Y4576D01*
X6816Y5261D01*
Y5358D01*
X6815Y5366D01*
X6812Y5373D01*
X6808Y5380D01*
X6685Y5502D01*
Y5565D01*
X6688Y5568D01*
X6792D01*
Y5672D01*
X6705D01*
X6702Y5676D01*
X6703Y5677D01*
X6703Y5680D01*
X6655D01*
X6607D01*
X6607Y5677D01*
X6612Y5665D01*
X6620Y5655D01*
X6627Y5650D01*
X6627Y5643D01*
X6627Y5643D01*
X6620Y5635D01*
X6617Y5625D01*
X6615Y5615D01*
X6617Y5605D01*
X6620Y5595D01*
X6625Y5589D01*
Y5490D01*
X6626Y5482D01*
X6629Y5475D01*
X6634Y5469D01*
X6697Y5405D01*
X6695Y5401D01*
X6694Y5401D01*
X6591D01*
X6589Y5406D01*
X6592Y5408D01*
X6601Y5419D01*
X6606Y5432D01*
X6608Y5446D01*
X6606Y5460D01*
X6601Y5473D01*
X6592Y5484D01*
X6581Y5492D01*
X6579Y5493D01*
Y5498D01*
X6581Y5499D01*
X6592Y5508D01*
X6601Y5519D01*
X6606Y5532D01*
X6608Y5546D01*
X6606Y5560D01*
X6601Y5573D01*
X6592Y5584D01*
X6581Y5592D01*
X6579Y5593D01*
Y5598D01*
X6581Y5599D01*
X6592Y5608D01*
X6601Y5619D01*
X6606Y5632D01*
X6608Y5646D01*
X6606Y5660D01*
X6601Y5673D01*
X6592Y5684D01*
X6587Y5687D01*
X6588Y5692D01*
X6589Y5693D01*
X6599Y5701D01*
X6603Y5706D01*
X6607Y5703D01*
X6607Y5703D01*
X6607Y5700D01*
X6655D01*
X6703D01*
X6703Y5703D01*
X6701Y5708D01*
X6704Y5712D01*
X6782D01*
Y5796D01*
X6698D01*
Y5795D01*
X6681D01*
X6675Y5800D01*
X6665Y5803D01*
X6655Y5805D01*
X6645Y5803D01*
X6635Y5800D01*
X6627Y5793D01*
X6620Y5785D01*
X6617Y5775D01*
X6616Y5774D01*
X6611Y5773D01*
X6607Y5781D01*
X6599Y5790D01*
X6589Y5798D01*
X6588Y5799D01*
X6587Y5804D01*
X6592Y5808D01*
X6601Y5819D01*
X6606Y5832D01*
X6608Y5846D01*
X6606Y5860D01*
X6601Y5873D01*
X6592Y5884D01*
X6587Y5887D01*
X6588Y5892D01*
X6589Y5893D01*
X6599Y5901D01*
X6607Y5911D01*
X6613Y5921D01*
X6616Y5933D01*
X6617Y5946D01*
X6616Y5958D01*
X6613Y5970D01*
X6607Y5981D01*
X6599Y5990D01*
X6589Y5998D01*
X6588Y5999D01*
X6587Y6004D01*
X6592Y6008D01*
X6601Y6019D01*
X6606Y6032D01*
X6608Y6046D01*
X6606Y6060D01*
X6601Y6073D01*
X6592Y6084D01*
X6581Y6092D01*
X6576Y6094D01*
Y6101D01*
X6588D01*
Y6185D01*
X6504D01*
Y6101D01*
X6516D01*
Y6084D01*
X6516Y6084D01*
X6508Y6073D01*
X6502Y6060D01*
X6500Y6046D01*
X6502Y6032D01*
X6508Y6019D01*
X6516Y6008D01*
X6521Y6004D01*
X6520Y5999D01*
X6519Y5998D01*
X6509Y5990D01*
X6508Y5989D01*
X6503Y5991D01*
Y6001D01*
X6462D01*
Y5950D01*
Y5898D01*
X6503D01*
Y5901D01*
X6508Y5902D01*
X6509Y5901D01*
X6519Y5893D01*
X6520Y5892D01*
X6521Y5887D01*
X6516Y5884D01*
X6510Y5876D01*
X6482D01*
X6474Y5875D01*
X6470Y5873D01*
X6467Y5872D01*
X6461Y5867D01*
X6451Y5858D01*
X6450D01*
X6444Y5860D01*
X6436Y5861D01*
X6397D01*
X6393Y5867D01*
X6384Y5873D01*
X6384Y5879D01*
X6384Y5879D01*
X6390Y5882D01*
X6399Y5890D01*
X6406Y5898D01*
X6442D01*
Y5950D01*
Y6001D01*
X6421D01*
X6420Y6006D01*
X6433Y6008D01*
X6446Y6013D01*
X6457Y6022D01*
X6465Y6033D01*
X6471Y6046D01*
X6473Y6060D01*
X6471Y6074D01*
X6465Y6087D01*
X6457Y6098D01*
X6449Y6104D01*
Y6144D01*
X6449Y6149D01*
X6448Y6157D01*
X6447Y6161D01*
X6445Y6164D01*
X6441Y6170D01*
X6440Y6171D01*
X6434Y6176D01*
X6427Y6179D01*
X6419Y6180D01*
X6414Y6179D01*
X6356D01*
X6354Y6179D01*
X6353Y6179D01*
X6351Y6178D01*
X6349Y6178D01*
X6347Y6177D01*
X6345Y6177D01*
X6343Y6176D01*
X6341Y6175D01*
X6340Y6174D01*
X6338Y6173D01*
X6297Y6141D01*
X6275D01*
X6274Y6148D01*
X6272Y6152D01*
X6271Y6155D01*
X6266Y6161D01*
X6265Y6162D01*
Y6263D01*
X6269Y6267D01*
X6274Y6265D01*
Y6191D01*
X6358D01*
Y6230D01*
X6375D01*
X6381Y6222D01*
X6392Y6213D01*
X6405Y6208D01*
X6419Y6206D01*
X6433Y6208D01*
X6446Y6213D01*
X6457Y6222D01*
X6463Y6230D01*
X6523D01*
Y6223D01*
X6607D01*
Y6307D01*
X6600D01*
X6599Y6312D01*
X6603Y6313D01*
X6613Y6322D01*
X6621Y6332D01*
X6624Y6339D01*
X6629D01*
X6632Y6332D01*
X6640Y6322D01*
X6651Y6313D01*
X6655Y6312D01*
X6657Y6307D01*
X6657Y6307D01*
X6657Y6307D01*
Y6223D01*
X6689D01*
X6691Y6223D01*
X6692Y6223D01*
X6741D01*
Y6307D01*
X6728D01*
Y6349D01*
X6728Y6353D01*
X6728Y6358D01*
X6727Y6372D01*
X6726Y6372D01*
Y6451D01*
X6861D01*
Y6381D01*
X6861Y6380D01*
X6859Y6367D01*
X6861Y6354D01*
X6866Y6341D01*
X6874Y6330D01*
X6885Y6322D01*
X6898Y6317D01*
X6911Y6315D01*
X6924Y6317D01*
X6937Y6322D01*
X6948Y6330D01*
X6956Y6341D01*
X6961Y6354D01*
X6963Y6367D01*
X6961Y6380D01*
X6961Y6381D01*
Y6451D01*
X7134D01*
Y6389D01*
X7129Y6388D01*
X7129Y6389D01*
X7120Y6400D01*
X7110Y6408D01*
X7097Y6413D01*
X7084Y6415D01*
X7070Y6413D01*
X7058Y6408D01*
X7047Y6400D01*
X7039Y6389D01*
X7034Y6377D01*
X7032Y6363D01*
X7034Y6350D01*
X7039Y6338D01*
X7047Y6327D01*
X7054Y6322D01*
Y6310D01*
X7049Y6307D01*
X7041Y6313D01*
X7028Y6319D01*
X7014Y6320D01*
X7001Y6319D01*
X6988Y6313D01*
X6976Y6305D01*
X6968Y6293D01*
X6963Y6280D01*
X6961Y6267D01*
X6963Y6253D01*
X6968Y6240D01*
X6976Y6229D01*
X6985Y6222D01*
Y6217D01*
X6940Y6173D01*
X6722D01*
Y6185D01*
X6638D01*
Y6101D01*
X6722D01*
Y6113D01*
X6841D01*
X6842Y6108D01*
X6830Y6104D01*
X6819Y6098D01*
X6809Y6090D01*
X6802Y6081D01*
X6796Y6070D01*
X6792Y6058D01*
X6791Y6046D01*
X6792Y6033D01*
X6796Y6021D01*
X6802Y6011D01*
X6809Y6001D01*
X6813Y5998D01*
Y5993D01*
X6809Y5990D01*
X6802Y5981D01*
X6796Y5970D01*
X6792Y5958D01*
X6791Y5946D01*
X6792Y5933D01*
X6796Y5921D01*
X6802Y5911D01*
X6809Y5901D01*
X6819Y5893D01*
X6820Y5892D01*
X6821Y5887D01*
X6816Y5884D01*
X6808Y5873D01*
X6802Y5860D01*
X6800Y5846D01*
X6802Y5832D01*
X6808Y5819D01*
X6816Y5808D01*
X6821Y5804D01*
X6820Y5799D01*
X6819Y5798D01*
X6809Y5790D01*
X6802Y5781D01*
X6796Y5770D01*
X6792Y5758D01*
X6791Y5746D01*
X6792Y5733D01*
X6796Y5721D01*
X6802Y5711D01*
X6809Y5701D01*
X6819Y5693D01*
X6820Y5692D01*
X6821Y5687D01*
X6816Y5684D01*
X6808Y5673D01*
X6802Y5660D01*
X6800Y5646D01*
X6802Y5632D01*
X6808Y5619D01*
X6816Y5608D01*
X6827Y5599D01*
X6830Y5598D01*
Y5593D01*
X6827Y5592D01*
X6816Y5584D01*
X6808Y5573D01*
X6802Y5560D01*
X6800Y5546D01*
X6802Y5532D01*
X6808Y5519D01*
X6816Y5508D01*
X6827Y5499D01*
X6830Y5498D01*
Y5493D01*
X6827Y5492D01*
X6816Y5484D01*
X6808Y5473D01*
X6802Y5460D01*
X6800Y5446D01*
X6802Y5432D01*
X6808Y5419D01*
X6816Y5408D01*
X6827Y5399D01*
X6840Y5394D01*
X6854Y5392D01*
X6868Y5394D01*
X6881Y5399D01*
X6892Y5408D01*
X6901Y5419D01*
X6906Y5432D01*
X6908Y5446D01*
X6906Y5460D01*
X6905Y5462D01*
X6909Y5465D01*
X6911Y5463D01*
X6914Y5459D01*
X6914D01*
X6914Y5459D01*
Y5375D01*
X6998D01*
Y5387D01*
X7026D01*
X7028Y5386D01*
Y5087D01*
X7029Y5079D01*
X7032Y5072D01*
X7037Y5066D01*
X7071Y5032D01*
X7071Y5031D01*
X7074Y5022D01*
X7080Y5015D01*
X7087Y5009D01*
X7096Y5006D01*
X7105Y5005D01*
X7114Y5006D01*
X7123Y5009D01*
X7130Y5015D01*
X7136Y5022D01*
X7139Y5031D01*
X7140Y5040D01*
X7139Y5049D01*
X7136Y5058D01*
X7130Y5065D01*
X7123Y5071D01*
X7114Y5074D01*
X7113Y5074D01*
X7088Y5099D01*
Y5386D01*
X7093Y5390D01*
X7101Y5400D01*
X7106Y5412D01*
X7108Y5425D01*
X7106Y5438D01*
X7101Y5450D01*
X7093Y5460D01*
X7085Y5467D01*
X7085Y5472D01*
X7085Y5473D01*
X7091Y5476D01*
X7100Y5483D01*
X7107Y5492D01*
X7113Y5502D01*
X7116Y5514D01*
X7117Y5525D01*
X7116Y5537D01*
X7113Y5548D01*
X7107Y5558D01*
X7100Y5567D01*
X7091Y5575D01*
X7081Y5580D01*
X7070Y5583D01*
X7058Y5585D01*
X7047Y5583D01*
X7035Y5580D01*
X7025Y5575D01*
X7016Y5567D01*
X7012Y5563D01*
X7007Y5564D01*
Y5603D01*
X6904D01*
Y5576D01*
X6899Y5575D01*
X6892Y5584D01*
X6881Y5592D01*
X6879Y5593D01*
Y5598D01*
X6881Y5599D01*
X6892Y5608D01*
X6901Y5619D01*
X6906Y5632D01*
X6908Y5646D01*
X6906Y5660D01*
X6901Y5673D01*
X6892Y5684D01*
X6887Y5687D01*
X6888Y5692D01*
X6889Y5693D01*
X6899Y5701D01*
X6907Y5711D01*
X6913Y5721D01*
X6916Y5733D01*
X6917Y5746D01*
X6916Y5758D01*
X6913Y5770D01*
X6907Y5781D01*
X6899Y5790D01*
X6889Y5798D01*
X6888Y5799D01*
X6887Y5804D01*
X6892Y5808D01*
X6901Y5819D01*
X6906Y5832D01*
X6908Y5846D01*
X6906Y5860D01*
X6901Y5873D01*
X6892Y5884D01*
X6887Y5887D01*
X6888Y5892D01*
X6889Y5893D01*
X6899Y5901D01*
X6907Y5911D01*
X6913Y5921D01*
X6916Y5933D01*
X6917Y5946D01*
X6916Y5958D01*
X6913Y5970D01*
X6907Y5981D01*
X6899Y5990D01*
X6896Y5993D01*
Y5998D01*
X6899Y6001D01*
X6907Y6011D01*
X6913Y6021D01*
X6916Y6033D01*
X6917Y6046D01*
X6916Y6058D01*
X6913Y6070D01*
X6907Y6081D01*
X6899Y6090D01*
X6889Y6098D01*
X6878Y6104D01*
X6867Y6108D01*
X6867Y6113D01*
X6953D01*
X6960Y6114D01*
X6968Y6117D01*
X6974Y6121D01*
X7036Y6183D01*
X7040Y6189D01*
X7043Y6197D01*
X7044Y6204D01*
Y6222D01*
X7052Y6229D01*
X7053Y6229D01*
X7058Y6228D01*
Y6219D01*
X7142D01*
Y6303D01*
X7114D01*
Y6322D01*
X7120Y6327D01*
X7129Y6338D01*
X7131Y6344D01*
X7136D01*
X7139Y6338D01*
X7147Y6327D01*
X7158Y6319D01*
X7170Y6313D01*
X7182Y6312D01*
Y6209D01*
X7286D01*
Y6312D01*
X7208D01*
X7207Y6317D01*
X7210Y6319D01*
X7220Y6327D01*
X7229Y6338D01*
X7234Y6350D01*
X7236Y6363D01*
X7234Y6377D01*
X7234Y6377D01*
Y6462D01*
X7234Y6462D01*
X7244Y6471D01*
X7253Y6481D01*
X7259Y6493D01*
X7263Y6506D01*
X7264Y6520D01*
X7263Y6534D01*
X7259Y6547D01*
X7253Y6559D01*
X7244Y6569D01*
X7234Y6578D01*
X7222Y6584D01*
X7209Y6588D01*
X7195Y6589D01*
X6425D01*
X6411Y6588D01*
X6398Y6584D01*
X6386Y6578D01*
X6376Y6569D01*
X6206Y6399D01*
X6202Y6402D01*
X6204Y6406D01*
X6205Y6414D01*
X6204Y6422D01*
X6201Y6429D01*
X6196Y6435D01*
X6190Y6440D01*
X6183Y6443D01*
Y6478D01*
X6077D01*
Y6444D01*
X6071D01*
Y6472D01*
X5987D01*
Y6388D01*
X6030D01*
X6037Y6385D01*
X6045Y6384D01*
X6077D01*
Y6372D01*
X6172D01*
X6174Y6367D01*
X6167Y6359D01*
X6161Y6347D01*
X6157Y6334D01*
X6156Y6320D01*
X6157Y6306D01*
X6161Y6293D01*
X6167Y6282D01*
X6165Y6280D01*
X6163Y6279D01*
X6154Y6283D01*
X6142Y6287D01*
X6130Y6288D01*
X6118Y6287D01*
X6106Y6283D01*
X6095Y6278D01*
X6086Y6270D01*
X6083Y6271D01*
X6081Y6271D01*
Y6348D01*
X5977D01*
Y6244D01*
X6066D01*
X6069Y6240D01*
X6068Y6237D01*
X6067Y6225D01*
X6068Y6213D01*
X6072Y6201D01*
X6077Y6190D01*
X6085Y6180D01*
X6095Y6172D01*
X6106Y6167D01*
X6118Y6163D01*
X6130Y6162D01*
X6142Y6163D01*
X6154Y6167D01*
X6165Y6172D01*
X6175Y6180D01*
X6180Y6187D01*
X6185Y6185D01*
Y6140D01*
X6186Y6130D01*
X6188Y6126D01*
X6059Y5996D01*
X6054Y5990D01*
X6051Y5983D01*
X6050Y5975D01*
Y5566D01*
Y5502D01*
X6045Y5500D01*
X5934Y5611D01*
X5935Y5614D01*
X5937Y5627D01*
X5935Y5640D01*
X5930Y5652D01*
X5922Y5662D01*
X5914Y5668D01*
X5914Y5674D01*
X5914Y5674D01*
X5920Y5677D01*
X5929Y5685D01*
X5937Y5694D01*
X5942Y5704D01*
X5945Y5715D01*
X5947Y5727D01*
X5945Y5738D01*
X5942Y5750D01*
X5937Y5760D01*
X5929Y5769D01*
X5920Y5776D01*
X5910Y5782D01*
X5899Y5785D01*
X5887Y5786D01*
X5876Y5785D01*
X5865Y5782D01*
X5854Y5776D01*
X5845Y5769D01*
X5842Y5764D01*
X5837Y5766D01*
Y5804D01*
X5733D01*
Y5790D01*
X5729Y5788D01*
X5728Y5789D01*
X5719Y5797D01*
X5717Y5798D01*
X5717Y5803D01*
X5721Y5806D01*
X5730Y5817D01*
X5735Y5830D01*
X5737Y5844D01*
X5735Y5858D01*
X5730Y5871D01*
X5721Y5882D01*
X5717Y5886D01*
X5717Y5891D01*
X5719Y5892D01*
X5728Y5899D01*
X5736Y5909D01*
X5742Y5920D01*
X5745Y5932D01*
X5747Y5944D01*
X5745Y5956D01*
X5742Y5968D01*
X5736Y5979D01*
X5728Y5989D01*
X5725Y5992D01*
Y5997D01*
X5728Y5999D01*
X5736Y6009D01*
X5742Y6020D01*
X5745Y6032D01*
X5747Y6044D01*
X5745Y6056D01*
X5742Y6068D01*
X5736Y6079D01*
X5728Y6089D01*
X5719Y6097D01*
X5708Y6103D01*
X5696Y6106D01*
X5683Y6107D01*
X5671Y6106D01*
X5659Y6103D01*
X5648Y6097D01*
X5639Y6089D01*
X5631Y6079D01*
X5625Y6068D01*
X5621Y6056D01*
X5620Y6044D01*
X5621Y6032D01*
X5625Y6020D01*
X5631Y6009D01*
X5639Y5999D01*
X5642Y5997D01*
Y5992D01*
X5639Y5989D01*
X5631Y5979D01*
X5625Y5968D01*
X5621Y5956D01*
X5620Y5944D01*
X5621Y5932D01*
X5625Y5920D01*
X5631Y5909D01*
X5639Y5899D01*
X5648Y5892D01*
X5650Y5891D01*
X5650Y5886D01*
X5645Y5882D01*
X5637Y5871D01*
X5631Y5858D01*
X5630Y5844D01*
X5631Y5830D01*
X5637Y5817D01*
X5645Y5806D01*
X5650Y5803D01*
X5650Y5798D01*
X5648Y5797D01*
X5639Y5789D01*
X5631Y5779D01*
X5625Y5768D01*
X5621Y5756D01*
X5620Y5744D01*
X5621Y5732D01*
X5625Y5720D01*
X5631Y5709D01*
X5639Y5699D01*
X5648Y5692D01*
X5650Y5691D01*
X5650Y5686D01*
X5645Y5682D01*
X5637Y5671D01*
X5631Y5658D01*
X5630Y5644D01*
X5631Y5630D01*
X5637Y5617D01*
X5645Y5606D01*
X5656Y5598D01*
X5659Y5597D01*
Y5592D01*
X5656Y5591D01*
X5645Y5582D01*
X5637Y5571D01*
X5631Y5558D01*
X5630Y5544D01*
X5631Y5530D01*
X5637Y5517D01*
X5645Y5506D01*
X5656Y5498D01*
X5659Y5497D01*
Y5492D01*
X5656Y5491D01*
X5645Y5482D01*
X5637Y5471D01*
X5631Y5458D01*
X5630Y5444D01*
X5631Y5430D01*
X5637Y5417D01*
X5645Y5406D01*
X5656Y5398D01*
X5669Y5392D01*
X5683Y5390D01*
X5697Y5392D01*
X5710Y5398D01*
X5721Y5406D01*
X5730Y5417D01*
X5735Y5430D01*
X5737Y5444D01*
X5735Y5458D01*
X5730Y5471D01*
X5721Y5482D01*
X5710Y5491D01*
X5708Y5492D01*
Y5497D01*
X5710Y5498D01*
X5721Y5506D01*
X5730Y5517D01*
X5735Y5530D01*
X5736Y5539D01*
X5774Y5577D01*
X5827D01*
Y5605D01*
X5843D01*
X5844Y5602D01*
X5852Y5592D01*
X5862Y5584D01*
X5874Y5579D01*
X5887Y5577D01*
X5900Y5579D01*
X5903Y5580D01*
X6087Y5395D01*
X6085Y5390D01*
X5924D01*
X5920Y5395D01*
X5913Y5401D01*
X5904Y5404D01*
X5895Y5405D01*
X5886Y5404D01*
X5877Y5401D01*
X5870Y5395D01*
X5864Y5388D01*
X5861Y5379D01*
X5860Y5370D01*
X5861Y5361D01*
X5864Y5352D01*
X5870Y5345D01*
X5875Y5341D01*
X5873Y5336D01*
X5602D01*
X5589Y5349D01*
X5584Y5353D01*
X5578Y5354D01*
X5507D01*
X5506Y5359D01*
X5508Y5359D01*
X5515Y5365D01*
X5521Y5372D01*
X5524Y5381D01*
X5525Y5390D01*
X5524Y5399D01*
X5521Y5408D01*
X5515Y5415D01*
X5508Y5421D01*
X5499Y5424D01*
X5490Y5425D01*
X5481Y5424D01*
X5472Y5421D01*
X5465Y5415D01*
X5459Y5408D01*
X5459Y5406D01*
X5455D01*
X5449Y5405D01*
X5444Y5401D01*
X5423Y5381D01*
X4862D01*
X4860Y5386D01*
X4865Y5390D01*
X4871Y5397D01*
X4874Y5406D01*
X4875Y5415D01*
X4874Y5424D01*
X4871Y5433D01*
X4865Y5440D01*
X4858Y5446D01*
X4849Y5449D01*
X4840Y5450D01*
X4831Y5449D01*
X4822Y5446D01*
X4815Y5440D01*
X4809Y5433D01*
X4806Y5424D01*
X4805Y5415D01*
X4806Y5406D01*
X4809Y5397D01*
X4815Y5390D01*
X4820Y5386D01*
X4818Y5381D01*
X4705D01*
X4699Y5380D01*
X4694Y5376D01*
X4606Y5289D01*
X4549D01*
X4549Y5294D01*
X4554Y5294D01*
X4561Y5299D01*
X4711Y5449D01*
X4711Y5449D01*
X4716Y5456D01*
X4717Y5465D01*
Y5496D01*
X4720Y5497D01*
X4730Y5505D01*
X4738Y5515D01*
X4743Y5527D01*
X4745Y5540D01*
X4743Y5553D01*
X4738Y5565D01*
X4730Y5575D01*
X4722Y5582D01*
X4722Y5587D01*
X4722Y5588D01*
X4728Y5591D01*
X4737Y5598D01*
X4744Y5607D01*
X4750Y5617D01*
X4753Y5628D01*
X4754Y5640D01*
X4753Y5652D01*
X4750Y5663D01*
X4744Y5673D01*
X4737Y5682D01*
X4728Y5689D01*
X4718Y5695D01*
X4707Y5698D01*
X4695Y5699D01*
X4683Y5698D01*
X4672Y5695D01*
X4662Y5689D01*
X4654Y5682D01*
X4649Y5684D01*
Y5718D01*
X4551D01*
X4548Y5723D01*
X4549Y5725D01*
X4552Y5737D01*
X4554Y5749D01*
X4552Y5761D01*
X4549Y5773D01*
X4543Y5784D01*
X4535Y5794D01*
X4526Y5802D01*
X4524Y5803D01*
X4524Y5808D01*
X4528Y5811D01*
X4537Y5822D01*
X4542Y5835D01*
X4544Y5849D01*
X4542Y5863D01*
X4537Y5876D01*
X4528Y5887D01*
X4524Y5891D01*
X4524Y5896D01*
X4526Y5897D01*
X4535Y5904D01*
X4543Y5914D01*
X4549Y5925D01*
X4552Y5937D01*
X4554Y5949D01*
X4552Y5961D01*
X4549Y5973D01*
X4543Y5984D01*
X4535Y5994D01*
X4532Y5997D01*
Y6002D01*
X4535Y6004D01*
X4543Y6014D01*
X4549Y6025D01*
X4552Y6037D01*
X4554Y6049D01*
X4552Y6061D01*
X4549Y6073D01*
X4543Y6084D01*
X4535Y6094D01*
X4526Y6102D01*
X4515Y6108D01*
X4503Y6111D01*
X4490Y6112D01*
X4478Y6111D01*
X4466Y6108D01*
X4455Y6102D01*
X4446Y6094D01*
X4438Y6084D01*
X4432Y6073D01*
X4428Y6061D01*
X4427Y6049D01*
X4428Y6037D01*
X4432Y6025D01*
X4438Y6014D01*
X4446Y6004D01*
X4449Y6002D01*
Y5997D01*
X4446Y5994D01*
X4438Y5984D01*
X4432Y5973D01*
X4428Y5961D01*
X4427Y5949D01*
X4428Y5937D01*
X4432Y5925D01*
X4438Y5914D01*
X4446Y5904D01*
X4455Y5897D01*
X4457Y5896D01*
X4457Y5891D01*
X4452Y5887D01*
X4444Y5876D01*
X4438Y5863D01*
X4437Y5849D01*
X4438Y5835D01*
X4444Y5822D01*
X4452Y5811D01*
X4457Y5808D01*
X4457Y5803D01*
X4455Y5802D01*
X4446Y5794D01*
X4438Y5784D01*
X4432Y5773D01*
X4428Y5761D01*
X4427Y5749D01*
X4428Y5737D01*
X4432Y5725D01*
X4438Y5714D01*
X4446Y5704D01*
X4455Y5697D01*
X4457Y5696D01*
X4457Y5691D01*
X4452Y5687D01*
X4444Y5676D01*
X4438Y5663D01*
X4437Y5649D01*
X4438Y5635D01*
X4444Y5622D01*
X4452Y5611D01*
X4464Y5603D01*
X4466Y5602D01*
Y5597D01*
X4464Y5596D01*
X4452Y5587D01*
X4444Y5576D01*
X4438Y5563D01*
X4437Y5549D01*
X4438Y5535D01*
X4444Y5522D01*
X4452Y5511D01*
X4464Y5503D01*
X4466Y5502D01*
Y5497D01*
X4464Y5496D01*
X4452Y5487D01*
X4444Y5476D01*
X4438Y5463D01*
X4437Y5449D01*
X4438Y5435D01*
X4444Y5422D01*
X4452Y5411D01*
X4464Y5403D01*
X4476Y5397D01*
X4490Y5395D01*
X4504Y5397D01*
X4517Y5403D01*
X4528Y5411D01*
X4537Y5422D01*
X4542Y5435D01*
X4544Y5449D01*
X4542Y5463D01*
X4537Y5476D01*
X4528Y5487D01*
X4517Y5496D01*
X4515Y5497D01*
Y5502D01*
X4517Y5503D01*
X4528Y5511D01*
X4534Y5518D01*
X4555D01*
Y5490D01*
X4639D01*
Y5518D01*
X4651D01*
X4652Y5515D01*
X4660Y5505D01*
X4670Y5497D01*
X4673Y5496D01*
Y5474D01*
X4539Y5341D01*
X4533Y5346D01*
X4524Y5349D01*
X4515Y5350D01*
X4506Y5349D01*
X4497Y5346D01*
X4490Y5340D01*
X4484Y5333D01*
X4481Y5324D01*
X4480Y5315D01*
X4481Y5306D01*
X4484Y5297D01*
X4487Y5294D01*
X4485Y5289D01*
X4159D01*
X4079Y5369D01*
X4073Y5373D01*
X4067Y5374D01*
X3927D01*
X3921Y5373D01*
X3916Y5369D01*
X3910Y5364D01*
X3885D01*
X3883Y5369D01*
X3886Y5372D01*
X3889Y5381D01*
X3890Y5390D01*
X3889Y5399D01*
X3886Y5408D01*
X3880Y5415D01*
X3873Y5421D01*
X3864Y5424D01*
X3855Y5425D01*
X3846Y5424D01*
X3837Y5421D01*
X3830Y5415D01*
X3824Y5408D01*
X3821Y5399D01*
X3820Y5390D01*
X3821Y5381D01*
X3824Y5372D01*
X3827Y5369D01*
X3825Y5364D01*
X3758D01*
X3755Y5367D01*
X3755Y5370D01*
X3754Y5379D01*
X3751Y5388D01*
X3745Y5395D01*
X3738Y5401D01*
X3729Y5404D01*
X3720Y5405D01*
X3711Y5404D01*
X3702Y5401D01*
X3695Y5395D01*
X3689Y5388D01*
X3686Y5379D01*
X3685Y5370D01*
X3686Y5361D01*
X3689Y5352D01*
X3695Y5345D01*
X3702Y5339D01*
X3711Y5336D01*
X3720Y5335D01*
X3729Y5336D01*
X3731Y5336D01*
X3731Y5336D01*
X3737Y5332D01*
X3743Y5331D01*
X3917D01*
X3918Y5331D01*
X3922Y5327D01*
X3921Y5324D01*
X3921Y5322D01*
X3744Y5146D01*
X3739Y5139D01*
X3738Y5130D01*
X3738Y5130D01*
Y4799D01*
X3708Y4770D01*
X3705Y4770D01*
X3696Y4769D01*
X3687Y4766D01*
X3680Y4760D01*
X3674Y4753D01*
X3671Y4744D01*
X3670Y4735D01*
X3671Y4726D01*
X3674Y4717D01*
X3680Y4710D01*
X3687Y4704D01*
X3696Y4701D01*
X3705Y4700D01*
X3714Y4701D01*
X3723Y4704D01*
X3730Y4710D01*
X3736Y4717D01*
X3739Y4726D01*
X3740Y4735D01*
X3740Y4738D01*
X3776Y4774D01*
X3776Y4774D01*
X3781Y4781D01*
X3782Y4790D01*
Y5121D01*
X3943Y5282D01*
X3946Y5281D01*
X3955Y5280D01*
X3964Y5281D01*
X3973Y5284D01*
X3980Y5290D01*
X3986Y5297D01*
X3989Y5306D01*
X3990Y5315D01*
X3989Y5324D01*
X3986Y5333D01*
X3983Y5336D01*
X3985Y5341D01*
X4061D01*
X4133Y5269D01*
X4131Y5265D01*
X3965D01*
X3959Y5264D01*
X3954Y5260D01*
X3799Y5105D01*
X3795Y5099D01*
X3794Y5093D01*
Y4762D01*
X3719Y4687D01*
X3716Y4682D01*
X3715Y4676D01*
Y4537D01*
X3710Y4533D01*
X3705Y4535D01*
X3704Y4539D01*
X3700Y4548D01*
X3695Y4555D01*
X3687Y4561D01*
X3679Y4564D01*
X3670Y4565D01*
X3662Y4564D01*
X3659Y4567D01*
X3658Y4569D01*
X3659Y4571D01*
X3660Y4580D01*
X3659Y4589D01*
X3656Y4598D01*
X3650Y4605D01*
X3643Y4611D01*
X3641Y4611D01*
Y4793D01*
X3645Y4796D01*
X3646Y4796D01*
X3655Y4795D01*
X3664Y4796D01*
X3673Y4799D01*
X3680Y4805D01*
X3686Y4812D01*
X3689Y4821D01*
X3690Y4830D01*
X3689Y4839D01*
X3686Y4848D01*
X3680Y4855D01*
X3673Y4861D01*
X3664Y4864D01*
X3655Y4865D01*
X3646Y4864D01*
X3637Y4861D01*
X3630Y4855D01*
X3624Y4848D01*
X3621Y4839D01*
X3620Y4830D01*
X3621Y4821D01*
X3621Y4819D01*
X3614Y4811D01*
X3610Y4806D01*
X3609Y4800D01*
Y4611D01*
X3607Y4611D01*
X3600Y4605D01*
X3594Y4598D01*
X3591Y4589D01*
X3590Y4580D01*
X3591Y4571D01*
X3594Y4562D01*
X3598Y4557D01*
X3597Y4552D01*
X3592Y4551D01*
X3584Y4546D01*
X3584Y4546D01*
X3556Y4517D01*
X3279D01*
Y4544D01*
X3250D01*
X3249Y4549D01*
X3255Y4552D01*
X3265Y4560D01*
X3273Y4570D01*
X3278Y4582D01*
X3280Y4595D01*
X3278Y4608D01*
X3273Y4620D01*
X3265Y4630D01*
X3255Y4638D01*
X3245Y4642D01*
Y4648D01*
X3255Y4652D01*
X3265Y4660D01*
X3273Y4670D01*
X3278Y4682D01*
X3280Y4695D01*
X3278Y4708D01*
X3273Y4720D01*
X3265Y4730D01*
X3255Y4738D01*
X3245Y4742D01*
Y4748D01*
X3255Y4752D01*
X3265Y4760D01*
X3273Y4770D01*
X3278Y4782D01*
X3280Y4795D01*
X3278Y4808D01*
X3273Y4820D01*
X3265Y4830D01*
X3255Y4838D01*
X3245Y4842D01*
Y4848D01*
X3255Y4852D01*
X3265Y4860D01*
X3273Y4870D01*
X3278Y4882D01*
X3280Y4895D01*
X3278Y4908D01*
X3273Y4920D01*
X3265Y4930D01*
X3257Y4937D01*
X3257Y4942D01*
X3257Y4943D01*
X3263Y4946D01*
X3272Y4953D01*
X3279Y4962D01*
X3285Y4972D01*
X3288Y4983D01*
X3289Y4995D01*
X3288Y5007D01*
X3285Y5018D01*
X3279Y5028D01*
X3272Y5037D01*
X3263Y5044D01*
X3253Y5050D01*
X3242Y5053D01*
X3230Y5054D01*
X3218Y5053D01*
X3207Y5050D01*
X3197Y5044D01*
X3188Y5037D01*
X3181Y5028D01*
X3175Y5018D01*
X3170Y5019D01*
Y6655D01*
X7785D01*
Y5897D01*
D02*
G37*
G36*
X6389Y6104D02*
X6381Y6098D01*
X6372Y6087D01*
X6367Y6074D01*
X6365Y6060D01*
X6367Y6046D01*
X6372Y6033D01*
X6381Y6022D01*
X6392Y6013D01*
X6405Y6008D01*
X6417Y6006D01*
X6417Y6001D01*
X6400D01*
Y5979D01*
X6395Y5977D01*
X6390Y5981D01*
X6380Y5986D01*
X6369Y5990D01*
X6357Y5991D01*
X6346Y5990D01*
X6335Y5986D01*
X6324Y5981D01*
X6315Y5973D01*
X6308Y5965D01*
X6302Y5954D01*
X6299Y5943D01*
X6298Y5932D01*
X6299Y5920D01*
X6302Y5909D01*
X6308Y5899D01*
X6315Y5890D01*
X6324Y5882D01*
X6330Y5879D01*
X6330Y5879D01*
X6331Y5873D01*
X6322Y5867D01*
X6318Y5861D01*
X6236D01*
X6233Y5869D01*
X6225Y5880D01*
X6214Y5888D01*
X6201Y5893D01*
X6188Y5895D01*
X6175Y5893D01*
X6162Y5888D01*
X6151Y5880D01*
X6143Y5869D01*
X6138Y5857D01*
X6136Y5843D01*
X6138Y5830D01*
X6143Y5817D01*
X6151Y5807D01*
X6158Y5802D01*
Y5773D01*
X6150Y5766D01*
X6141Y5755D01*
X6136Y5742D01*
X6134Y5728D01*
X6136Y5714D01*
X6141Y5702D01*
X6150Y5690D01*
X6161Y5682D01*
X6174Y5676D01*
X6188Y5675D01*
X6202Y5676D01*
X6215Y5682D01*
X6226Y5690D01*
X6235Y5702D01*
X6240Y5714D01*
X6242Y5728D01*
X6240Y5742D01*
X6235Y5755D01*
X6226Y5766D01*
X6218Y5773D01*
Y5802D01*
X6318D01*
X6322Y5796D01*
X6332Y5788D01*
X6344Y5783D01*
X6357Y5782D01*
X6370Y5783D01*
X6382Y5788D01*
X6393Y5796D01*
X6397Y5802D01*
X6410D01*
Y5774D01*
X6492D01*
X6494Y5771D01*
X6496Y5769D01*
X6492Y5758D01*
X6492Y5756D01*
X6554D01*
Y5736D01*
X6492D01*
X6492Y5733D01*
X6496Y5721D01*
X6497Y5720D01*
X6493Y5716D01*
X6410D01*
Y5678D01*
X6404D01*
X6400Y5683D01*
X6390Y5691D01*
X6378Y5696D01*
X6365Y5698D01*
X6352Y5696D01*
X6340Y5691D01*
X6330Y5683D01*
X6322Y5673D01*
X6317Y5661D01*
X6317Y5661D01*
X6145D01*
X6137Y5660D01*
X6133Y5658D01*
X6130Y5657D01*
X6124Y5652D01*
X6115Y5643D01*
X6110Y5645D01*
Y5963D01*
X6257Y6109D01*
X6261Y6107D01*
X6260Y6102D01*
X6260Y6094D01*
X6262Y6087D01*
X6266Y6080D01*
X6271Y6074D01*
X6274Y6072D01*
Y6057D01*
X6358D01*
Y6113D01*
X6367Y6119D01*
X6389D01*
Y6104D01*
D02*
G37*
G36*
X6470Y4990D02*
Y4787D01*
X6357Y4674D01*
X6352Y4668D01*
X6349Y4661D01*
X6348Y4653D01*
Y4456D01*
X6341Y4451D01*
X6333Y4440D01*
X6331Y4433D01*
X6326D01*
X6323Y4440D01*
X6315Y4451D01*
X6304Y4459D01*
X6292Y4464D01*
X6278Y4466D01*
X6265Y4464D01*
X6252Y4459D01*
X6241Y4451D01*
X6233Y4440D01*
X6231Y4433D01*
X6226D01*
X6223Y4440D01*
X6215Y4451D01*
X6204Y4459D01*
X6192Y4464D01*
X6178Y4466D01*
X6165Y4464D01*
X6152Y4459D01*
X6141Y4451D01*
X6133Y4440D01*
X6131Y4433D01*
X6126D01*
X6123Y4440D01*
X6115Y4451D01*
X6104Y4459D01*
X6092Y4464D01*
X6078Y4466D01*
X6065Y4464D01*
X6052Y4459D01*
X6041Y4451D01*
X6033Y4440D01*
X6031Y4433D01*
X6026D01*
X6023Y4440D01*
X6015Y4451D01*
X6004Y4459D01*
X5992Y4464D01*
X5978Y4466D01*
X5965Y4464D01*
X5952Y4459D01*
X5941Y4451D01*
X5933Y4440D01*
X5931Y4433D01*
X5926D01*
X5923Y4440D01*
X5915Y4451D01*
X5904Y4459D01*
X5892Y4464D01*
X5887Y4465D01*
Y4470D01*
X5890Y4470D01*
X5903Y4475D01*
X5914Y4484D01*
X5922Y4494D01*
X5927Y4507D01*
X5929Y4520D01*
X5927Y4534D01*
X5922Y4546D01*
X5914Y4557D01*
X5903Y4565D01*
X5890Y4570D01*
X5877Y4572D01*
X5864Y4570D01*
X5851Y4565D01*
X5840Y4557D01*
X5832Y4546D01*
X5830Y4540D01*
X5825D01*
X5822Y4546D01*
X5814Y4557D01*
X5803Y4565D01*
X5790Y4570D01*
X5777Y4572D01*
X5764Y4570D01*
X5751Y4565D01*
X5740Y4557D01*
X5732Y4546D01*
X5730Y4540D01*
X5725D01*
X5722Y4546D01*
X5714Y4557D01*
X5703Y4565D01*
X5690Y4570D01*
X5677Y4572D01*
X5664Y4570D01*
X5651Y4565D01*
X5640Y4557D01*
X5632Y4546D01*
X5630Y4540D01*
X5625D01*
X5622Y4546D01*
X5614Y4557D01*
X5603Y4565D01*
X5590Y4570D01*
X5577Y4572D01*
X5564Y4570D01*
X5551Y4565D01*
X5540Y4557D01*
X5532Y4546D01*
X5527Y4534D01*
X5525Y4520D01*
X5527Y4507D01*
X5532Y4494D01*
X5540Y4484D01*
X5547Y4478D01*
Y4455D01*
X5541Y4451D01*
X5533Y4440D01*
X5531Y4433D01*
X5526D01*
X5523Y4440D01*
X5515Y4451D01*
X5504Y4459D01*
X5492Y4464D01*
X5478Y4466D01*
X5465Y4464D01*
X5452Y4459D01*
X5441Y4451D01*
X5433Y4440D01*
X5428Y4427D01*
X5426Y4414D01*
X5428Y4401D01*
X5433Y4388D01*
X5441Y4377D01*
X5452Y4369D01*
X5454Y4368D01*
Y4363D01*
X5450Y4362D01*
X5439Y4353D01*
X5435Y4348D01*
X5430Y4349D01*
X5430Y4350D01*
X5422Y4360D01*
X5412Y4368D01*
X5401Y4374D01*
X5389Y4377D01*
X5377Y4378D01*
X5365Y4377D01*
X5353Y4374D01*
X5342Y4368D01*
X5332Y4360D01*
X5324Y4350D01*
X5324Y4349D01*
X5319Y4348D01*
X5315Y4353D01*
X5306Y4360D01*
X5306Y4360D01*
X5306Y4366D01*
X5306Y4366D01*
X5315Y4372D01*
X5323Y4383D01*
X5328Y4396D01*
X5330Y4409D01*
X5328Y4422D01*
X5323Y4435D01*
X5315Y4446D01*
X5304Y4454D01*
X5292Y4459D01*
X5278Y4461D01*
X5275Y4460D01*
X5272Y4465D01*
X5416Y4609D01*
X6090D01*
X6096Y4610D01*
X6101Y4614D01*
X6279Y4791D01*
X6281Y4791D01*
X6290Y4790D01*
X6299Y4791D01*
X6308Y4794D01*
X6315Y4800D01*
X6321Y4807D01*
X6324Y4816D01*
X6325Y4825D01*
X6324Y4834D01*
X6321Y4843D01*
X6315Y4850D01*
X6312Y4852D01*
X6314Y4857D01*
X6319Y4858D01*
X6332Y4863D01*
X6343Y4872D01*
X6352Y4883D01*
X6352Y4885D01*
X6358D01*
X6358Y4883D01*
X6367Y4872D01*
X6378Y4863D01*
X6391Y4858D01*
X6405Y4856D01*
X6419Y4858D01*
X6432Y4863D01*
X6443Y4872D01*
X6452Y4883D01*
X6457Y4896D01*
X6459Y4910D01*
X6457Y4924D01*
X6452Y4937D01*
X6443Y4948D01*
X6438Y4952D01*
X6439Y4957D01*
X6440Y4957D01*
X6450Y4965D01*
X6458Y4975D01*
X6463Y4986D01*
X6465Y4991D01*
X6470Y4990D01*
D02*
G37*
%LPC*%
G36*
X5512Y6615D02*
X5498Y6613D01*
X5485Y6609D01*
X5473Y6603D01*
X5463Y6594D01*
X5426Y6558D01*
X5418Y6547D01*
X5414Y6541D01*
X5410Y6541D01*
X5397Y6537D01*
X5385Y6530D01*
X5374Y6522D01*
X5262Y6409D01*
X5253Y6399D01*
X5248Y6389D01*
X5248Y6389D01*
X5243Y6388D01*
X5242Y6388D01*
X5235Y6397D01*
X5225Y6405D01*
X5212Y6410D01*
X5199Y6412D01*
X5185Y6410D01*
X5173Y6405D01*
X5162Y6397D01*
X5154Y6386D01*
X5151Y6380D01*
X5146D01*
X5144Y6386D01*
X5135Y6397D01*
X5125Y6405D01*
X5112Y6410D01*
X5099Y6412D01*
X5085Y6410D01*
X5073Y6405D01*
X5062Y6397D01*
X5054Y6386D01*
X5049Y6374D01*
X5047Y6360D01*
X5049Y6347D01*
X5054Y6334D01*
X5062Y6324D01*
Y6303D01*
X5050D01*
Y6294D01*
X5034D01*
X5028Y6302D01*
X5017Y6310D01*
X5004Y6316D01*
X4990Y6318D01*
X4976Y6316D01*
X4963Y6310D01*
X4952Y6302D01*
X4943Y6291D01*
X4938Y6278D01*
X4936Y6264D01*
X4938Y6250D01*
X4943Y6237D01*
X4952Y6226D01*
X4963Y6217D01*
X4976Y6212D01*
X4990Y6210D01*
X5004Y6212D01*
X5017Y6217D01*
X5028Y6226D01*
X5034Y6234D01*
X5050D01*
Y6219D01*
X5134D01*
Y6231D01*
X5144D01*
Y6195D01*
X5228D01*
Y6279D01*
X5187D01*
X5184Y6282D01*
X5178Y6287D01*
X5170Y6290D01*
X5163Y6291D01*
X5134D01*
Y6303D01*
X5122D01*
Y6314D01*
X5125Y6315D01*
X5135Y6324D01*
X5144Y6334D01*
X5146Y6341D01*
X5151D01*
X5154Y6334D01*
X5162Y6324D01*
X5173Y6315D01*
X5185Y6310D01*
X5199Y6308D01*
X5212Y6310D01*
X5225Y6315D01*
X5235Y6324D01*
X5242Y6332D01*
X5243Y6333D01*
X5248Y6332D01*
X5248Y6332D01*
X5253Y6322D01*
X5262Y6311D01*
X5272Y6303D01*
X5284Y6296D01*
X5290Y6294D01*
Y6279D01*
X5278D01*
Y6259D01*
X5278Y6259D01*
X5278Y6259D01*
Y6230D01*
X5139Y6090D01*
X5134Y6092D01*
Y6169D01*
X5050D01*
Y6127D01*
X5026Y6103D01*
X5017Y6110D01*
X5004Y6116D01*
X4990Y6118D01*
X4976Y6116D01*
X4963Y6110D01*
X4952Y6102D01*
X4944Y6092D01*
X4939Y6090D01*
X4933Y6085D01*
X4831Y5983D01*
X4826Y5976D01*
X4825Y5973D01*
X4823Y5969D01*
X4822Y5961D01*
Y5568D01*
X4823Y5560D01*
X4826Y5553D01*
X4831Y5547D01*
X4954Y5423D01*
X4961Y5418D01*
X4968Y5415D01*
X4975Y5414D01*
X5339D01*
X5345Y5406D01*
X5356Y5398D01*
X5369Y5392D01*
X5383Y5390D01*
X5397Y5392D01*
X5410Y5398D01*
X5421Y5406D01*
X5430Y5417D01*
X5435Y5430D01*
X5437Y5444D01*
X5435Y5458D01*
X5430Y5471D01*
X5421Y5482D01*
X5410Y5491D01*
X5408Y5492D01*
Y5497D01*
X5410Y5498D01*
X5421Y5506D01*
X5430Y5517D01*
X5435Y5530D01*
X5437Y5544D01*
X5435Y5558D01*
X5430Y5571D01*
X5421Y5582D01*
X5410Y5591D01*
X5408Y5592D01*
Y5597D01*
X5410Y5598D01*
X5421Y5606D01*
X5430Y5617D01*
X5435Y5630D01*
X5437Y5644D01*
X5435Y5658D01*
X5430Y5671D01*
X5421Y5682D01*
X5417Y5686D01*
X5417Y5691D01*
X5419Y5692D01*
X5428Y5699D01*
X5436Y5709D01*
X5442Y5720D01*
X5445Y5732D01*
X5447Y5744D01*
X5445Y5756D01*
X5442Y5768D01*
X5436Y5779D01*
X5428Y5789D01*
X5419Y5797D01*
X5417Y5798D01*
X5417Y5803D01*
X5421Y5806D01*
X5430Y5817D01*
X5435Y5830D01*
X5437Y5844D01*
X5435Y5858D01*
X5430Y5871D01*
X5421Y5882D01*
X5417Y5886D01*
X5417Y5891D01*
X5419Y5892D01*
X5428Y5899D01*
X5436Y5909D01*
X5442Y5920D01*
X5445Y5932D01*
X5447Y5944D01*
X5445Y5956D01*
X5442Y5968D01*
X5436Y5979D01*
X5428Y5989D01*
X5419Y5997D01*
X5417Y5998D01*
X5417Y6003D01*
X5421Y6006D01*
X5430Y6017D01*
X5435Y6030D01*
X5437Y6044D01*
X5435Y6058D01*
X5430Y6071D01*
X5421Y6082D01*
X5413Y6088D01*
Y6101D01*
X5425D01*
Y6142D01*
X5436Y6153D01*
X5441Y6159D01*
X5442Y6162D01*
X5444Y6166D01*
X5445Y6174D01*
Y6209D01*
X5453Y6215D01*
X5461Y6226D01*
X5467Y6239D01*
X5469Y6253D01*
X5467Y6267D01*
X5461Y6280D01*
X5453Y6291D01*
X5442Y6299D01*
X5429Y6305D01*
X5415Y6307D01*
X5401Y6305D01*
X5388Y6299D01*
X5377Y6291D01*
X5368Y6280D01*
X5367Y6278D01*
X5362Y6279D01*
Y6279D01*
X5350D01*
Y6303D01*
X5360Y6311D01*
X5451Y6402D01*
X5456Y6400D01*
Y6367D01*
X5457Y6353D01*
X5461Y6340D01*
X5467Y6328D01*
X5476Y6318D01*
X5487Y6309D01*
X5499Y6303D01*
X5512Y6299D01*
X5525Y6298D01*
X5539Y6299D01*
X5552Y6303D01*
X5564Y6309D01*
X5574Y6318D01*
X5583Y6328D01*
X5589Y6340D01*
X5593Y6353D01*
X5594Y6367D01*
Y6459D01*
X5593Y6471D01*
X5597Y6476D01*
X5747D01*
Y6457D01*
Y6386D01*
X5742Y6385D01*
X5742Y6386D01*
X5734Y6397D01*
X5723Y6405D01*
X5711Y6410D01*
X5697Y6412D01*
X5684Y6410D01*
X5671Y6405D01*
X5661Y6397D01*
X5652Y6386D01*
X5647Y6374D01*
X5645Y6360D01*
X5647Y6347D01*
X5652Y6334D01*
X5661Y6324D01*
X5667Y6319D01*
Y6283D01*
X5659D01*
X5653Y6291D01*
X5642Y6299D01*
X5629Y6305D01*
X5615Y6307D01*
X5601Y6305D01*
X5588Y6299D01*
X5577Y6291D01*
X5568Y6280D01*
X5563Y6267D01*
X5561Y6253D01*
X5562Y6243D01*
X5504Y6185D01*
X5475D01*
Y6101D01*
X5559D01*
Y6155D01*
X5605Y6200D01*
X5615Y6199D01*
X5629Y6201D01*
X5642Y6206D01*
X5653Y6215D01*
X5659Y6223D01*
X5672D01*
Y6211D01*
X5756D01*
Y6295D01*
X5727D01*
Y6319D01*
X5734Y6324D01*
X5742Y6334D01*
X5745Y6341D01*
X5750D01*
X5752Y6334D01*
X5761Y6324D01*
X5771Y6315D01*
X5784Y6310D01*
X5795Y6309D01*
X5796Y6304D01*
X5796Y6304D01*
Y6201D01*
X5900D01*
Y6304D01*
X5805D01*
X5805Y6309D01*
X5811Y6310D01*
X5823Y6315D01*
X5834Y6324D01*
X5842Y6334D01*
X5847Y6347D01*
X5849Y6360D01*
X5847Y6374D01*
X5847Y6374D01*
Y6457D01*
Y6497D01*
X5855Y6507D01*
X5861Y6519D01*
X5865Y6532D01*
X5867Y6545D01*
X5865Y6559D01*
X5861Y6572D01*
X5855Y6584D01*
X5846Y6594D01*
X5836Y6603D01*
X5824Y6609D01*
X5811Y6613D01*
X5797Y6615D01*
X5512D01*
X5512Y6615D01*
D02*
G37*
G36*
X4429Y6615D02*
X3986D01*
X3973Y6613D01*
X3960Y6609D01*
X3948Y6603D01*
X3937Y6594D01*
X3872Y6529D01*
X3863Y6518D01*
X3857Y6506D01*
X3853Y6493D01*
X3851Y6480D01*
X3853Y6466D01*
X3857Y6453D01*
X3863Y6441D01*
X3872Y6431D01*
X3882Y6422D01*
X3891Y6418D01*
Y6402D01*
X3884Y6397D01*
X3876Y6386D01*
X3873Y6380D01*
X3868D01*
X3866Y6386D01*
X3857Y6397D01*
X3847Y6405D01*
X3834Y6410D01*
X3821Y6412D01*
X3807Y6410D01*
X3795Y6405D01*
X3784Y6397D01*
X3776Y6386D01*
X3773Y6380D01*
X3768D01*
X3766Y6386D01*
X3757Y6397D01*
X3747Y6405D01*
X3734Y6410D01*
X3721Y6412D01*
X3707Y6410D01*
X3695Y6405D01*
X3684Y6397D01*
X3676Y6386D01*
X3671Y6374D01*
X3669Y6360D01*
X3671Y6347D01*
X3676Y6334D01*
X3684Y6324D01*
X3691Y6319D01*
Y6295D01*
X3664D01*
Y6283D01*
X3636D01*
X3631Y6287D01*
X3618Y6292D01*
X3604Y6294D01*
X3590Y6292D01*
X3577Y6287D01*
X3566Y6278D01*
X3557Y6267D01*
X3552Y6254D01*
X3550Y6240D01*
X3552Y6226D01*
X3557Y6213D01*
X3566Y6202D01*
X3577Y6194D01*
X3590Y6188D01*
X3604Y6186D01*
X3618Y6188D01*
X3631Y6194D01*
X3642Y6202D01*
X3650Y6213D01*
X3654Y6223D01*
X3664D01*
Y6211D01*
X3748D01*
Y6223D01*
X3767D01*
Y6203D01*
X3851D01*
Y6287D01*
X3767D01*
Y6283D01*
X3751D01*
Y6319D01*
X3757Y6324D01*
X3766Y6334D01*
X3768Y6341D01*
X3773D01*
X3776Y6334D01*
X3784Y6324D01*
X3795Y6315D01*
X3807Y6310D01*
X3821Y6308D01*
X3834Y6310D01*
X3847Y6315D01*
X3857Y6324D01*
X3866Y6334D01*
X3868Y6341D01*
X3873D01*
X3876Y6334D01*
X3884Y6324D01*
X3895Y6315D01*
X3907Y6310D01*
X3913Y6310D01*
Y6287D01*
X3901D01*
Y6203D01*
X3901Y6203D01*
X3901D01*
X3897Y6200D01*
X3753Y6055D01*
X3715D01*
X3707Y6054D01*
X3700Y6051D01*
X3694Y6046D01*
X3499Y5851D01*
X3494Y5845D01*
X3491Y5838D01*
X3490Y5830D01*
Y5670D01*
X3491Y5662D01*
X3494Y5655D01*
X3499Y5649D01*
X3521Y5627D01*
X3527Y5622D01*
X3530Y5621D01*
X3534Y5619D01*
X3542Y5618D01*
X3777D01*
X3781Y5613D01*
X3792Y5605D01*
X3802Y5601D01*
Y5595D01*
X3792Y5591D01*
X3781Y5583D01*
X3777Y5578D01*
X3691D01*
X3685Y5586D01*
X3674Y5595D01*
X3661Y5600D01*
X3647Y5602D01*
X3633Y5600D01*
X3620Y5595D01*
X3609Y5586D01*
X3601Y5575D01*
X3595Y5562D01*
X3593Y5548D01*
X3595Y5534D01*
X3601Y5521D01*
X3609Y5510D01*
X3620Y5502D01*
X3633Y5496D01*
X3647Y5494D01*
X3661Y5496D01*
X3674Y5502D01*
X3685Y5510D01*
X3691Y5518D01*
X3777D01*
X3781Y5513D01*
X3792Y5505D01*
X3804Y5500D01*
X3816Y5498D01*
X3829Y5500D01*
X3841Y5505D01*
X3852Y5513D01*
X3856Y5518D01*
X3861D01*
Y5498D01*
X3945D01*
Y5507D01*
X3949Y5510D01*
X4154Y5510D01*
X4164Y5503D01*
X4166Y5502D01*
Y5497D01*
X4164Y5496D01*
X4152Y5487D01*
X4144Y5476D01*
X4138Y5463D01*
X4137Y5449D01*
X4138Y5435D01*
X4144Y5422D01*
X4152Y5411D01*
X4164Y5403D01*
X4176Y5397D01*
X4190Y5395D01*
X4204Y5397D01*
X4217Y5403D01*
X4228Y5411D01*
X4237Y5422D01*
X4242Y5435D01*
X4244Y5449D01*
X4242Y5463D01*
X4237Y5476D01*
X4228Y5487D01*
X4217Y5496D01*
X4215Y5497D01*
Y5502D01*
X4217Y5503D01*
X4228Y5511D01*
X4237Y5522D01*
X4242Y5535D01*
X4244Y5549D01*
X4242Y5563D01*
X4237Y5576D01*
X4228Y5587D01*
X4217Y5596D01*
X4215Y5597D01*
Y5602D01*
X4217Y5603D01*
X4228Y5611D01*
X4237Y5622D01*
X4242Y5635D01*
X4244Y5649D01*
X4242Y5663D01*
X4237Y5676D01*
X4228Y5687D01*
X4224Y5691D01*
X4224Y5696D01*
X4226Y5697D01*
X4235Y5704D01*
X4243Y5714D01*
X4249Y5725D01*
X4252Y5737D01*
X4254Y5749D01*
X4252Y5761D01*
X4249Y5773D01*
X4243Y5784D01*
X4235Y5794D01*
X4226Y5802D01*
X4224Y5803D01*
X4224Y5808D01*
X4228Y5811D01*
X4237Y5822D01*
X4242Y5835D01*
X4244Y5849D01*
X4242Y5863D01*
X4237Y5876D01*
X4228Y5887D01*
X4224Y5891D01*
X4224Y5896D01*
X4226Y5897D01*
X4235Y5904D01*
X4243Y5914D01*
X4249Y5925D01*
X4252Y5937D01*
X4254Y5949D01*
X4252Y5961D01*
X4249Y5973D01*
X4243Y5984D01*
X4235Y5994D01*
X4226Y6002D01*
X4224Y6003D01*
X4224Y6008D01*
X4228Y6011D01*
X4237Y6022D01*
X4242Y6035D01*
X4244Y6049D01*
X4242Y6063D01*
X4237Y6076D01*
X4228Y6087D01*
X4217Y6096D01*
X4204Y6101D01*
X4190Y6103D01*
X4176Y6101D01*
X4164Y6096D01*
X4152Y6087D01*
X4144Y6076D01*
X4143Y6074D01*
X4035D01*
Y6108D01*
X4047D01*
Y6182D01*
X4066Y6200D01*
X4076Y6199D01*
X4090Y6201D01*
X4103Y6206D01*
X4114Y6215D01*
X4123Y6226D01*
X4128Y6239D01*
X4130Y6253D01*
X4128Y6267D01*
X4123Y6280D01*
X4114Y6291D01*
X4103Y6299D01*
X4090Y6305D01*
X4076Y6307D01*
X4062Y6305D01*
X4049Y6299D01*
X4038Y6291D01*
X4030Y6280D01*
X4024Y6267D01*
X4022Y6253D01*
X4024Y6243D01*
X3989Y6208D01*
X3985Y6210D01*
Y6287D01*
X3972D01*
Y6338D01*
X3971Y6346D01*
X3971Y6348D01*
X3973Y6360D01*
X3971Y6374D01*
X3966Y6386D01*
X3957Y6397D01*
X3951Y6402D01*
Y6418D01*
X3959Y6422D01*
X3970Y6431D01*
X4015Y6476D01*
X4114D01*
Y6432D01*
X4098Y6416D01*
X4089Y6406D01*
X4083Y6394D01*
X4079Y6381D01*
X4078Y6367D01*
X4079Y6353D01*
X4083Y6340D01*
X4089Y6328D01*
X4098Y6318D01*
X4109Y6309D01*
X4121Y6303D01*
X4134Y6299D01*
X4147Y6298D01*
X4161Y6299D01*
X4174Y6303D01*
X4186Y6309D01*
X4196Y6318D01*
X4232Y6354D01*
X4241Y6364D01*
X4247Y6376D01*
X4251Y6389D01*
X4252Y6403D01*
Y6476D01*
X4389D01*
Y6402D01*
X4383Y6397D01*
X4374Y6386D01*
X4372Y6380D01*
X4367D01*
X4364Y6386D01*
X4356Y6397D01*
X4345Y6405D01*
X4333Y6410D01*
X4319Y6412D01*
X4306Y6410D01*
X4293Y6405D01*
X4283Y6397D01*
X4274Y6386D01*
X4269Y6374D01*
X4267Y6360D01*
X4268Y6352D01*
X4255Y6339D01*
X4250Y6332D01*
X4247Y6325D01*
X4246Y6317D01*
Y6297D01*
X4238Y6291D01*
X4230Y6280D01*
X4227Y6279D01*
X4221Y6274D01*
X4139Y6192D01*
X4097D01*
Y6108D01*
X4181D01*
Y6150D01*
X4243Y6211D01*
X4249Y6206D01*
X4262Y6201D01*
X4276Y6199D01*
X4290Y6201D01*
X4303Y6206D01*
X4314Y6215D01*
X4320Y6223D01*
X4349D01*
Y6211D01*
X4433D01*
Y6295D01*
X4349D01*
Y6283D01*
X4320D01*
X4314Y6291D01*
X4306Y6297D01*
Y6305D01*
X4311Y6310D01*
X4319Y6308D01*
X4333Y6310D01*
X4345Y6315D01*
X4356Y6324D01*
X4364Y6334D01*
X4367Y6341D01*
X4372D01*
X4374Y6334D01*
X4383Y6324D01*
X4393Y6315D01*
X4406Y6310D01*
X4419Y6308D01*
X4433Y6310D01*
X4445Y6315D01*
X4456Y6324D01*
X4464Y6334D01*
X4469Y6347D01*
X4471Y6360D01*
X4469Y6374D01*
X4464Y6386D01*
X4456Y6397D01*
X4449Y6402D01*
Y6479D01*
X4456Y6481D01*
X4468Y6488D01*
X4478Y6496D01*
X4487Y6507D01*
X4493Y6519D01*
X4497Y6532D01*
X4499Y6545D01*
X4497Y6559D01*
X4493Y6572D01*
X4487Y6584D01*
X4478Y6594D01*
X4468Y6603D01*
X4456Y6609D01*
X4443Y6613D01*
X4429Y6615D01*
D02*
G37*
G36*
X4685Y6480D02*
X4601D01*
Y6396D01*
X4643D01*
X4646Y6393D01*
X4652Y6388D01*
X4659Y6385D01*
X4667Y6384D01*
X4743D01*
Y6361D01*
X4850D01*
Y6468D01*
X4743D01*
Y6444D01*
X4685D01*
Y6480D01*
D02*
G37*
G36*
X7600Y6453D02*
X7588Y6452D01*
X7576Y6448D01*
X7565Y6443D01*
X7555Y6435D01*
X7547Y6425D01*
X7542Y6414D01*
X7538Y6402D01*
X7537Y6390D01*
X7538Y6378D01*
X7542Y6366D01*
X7547Y6355D01*
X7555Y6345D01*
X7565Y6337D01*
X7576Y6332D01*
X7588Y6328D01*
X7600Y6327D01*
X7612Y6328D01*
X7624Y6332D01*
X7635Y6337D01*
X7645Y6345D01*
X7653Y6355D01*
X7658Y6366D01*
X7662Y6378D01*
X7663Y6390D01*
X7662Y6402D01*
X7658Y6414D01*
X7653Y6425D01*
X7645Y6435D01*
X7635Y6443D01*
X7624Y6448D01*
X7612Y6452D01*
X7600Y6453D01*
D02*
G37*
G36*
X3471Y6428D02*
X3459Y6427D01*
X3447Y6423D01*
X3436Y6418D01*
X3426Y6410D01*
X3419Y6400D01*
X3413Y6389D01*
X3409Y6377D01*
X3408Y6365D01*
X3409Y6353D01*
X3413Y6341D01*
X3419Y6330D01*
X3426Y6320D01*
X3436Y6312D01*
X3447Y6307D01*
X3459Y6303D01*
X3471Y6302D01*
X3483Y6303D01*
X3495Y6307D01*
X3506Y6312D01*
X3516Y6320D01*
X3524Y6330D01*
X3530Y6341D01*
X3533Y6353D01*
X3534Y6365D01*
X3533Y6377D01*
X3530Y6389D01*
X3524Y6400D01*
X3516Y6410D01*
X3506Y6418D01*
X3495Y6423D01*
X3483Y6427D01*
X3471Y6428D01*
D02*
G37*
G36*
X4695Y6356D02*
X4592D01*
Y6252D01*
X4695D01*
Y6356D01*
D02*
G37*
G36*
X6814Y6320D02*
X6801Y6319D01*
X6788Y6313D01*
X6776Y6305D01*
X6768Y6293D01*
X6763Y6280D01*
X6761Y6267D01*
X6763Y6253D01*
X6768Y6240D01*
X6776Y6229D01*
X6788Y6220D01*
X6801Y6215D01*
X6814Y6213D01*
X6828Y6215D01*
X6841Y6220D01*
X6852Y6229D01*
X6861Y6240D01*
X6866Y6253D01*
X6868Y6267D01*
X6866Y6280D01*
X6861Y6293D01*
X6852Y6305D01*
X6841Y6313D01*
X6828Y6319D01*
X6814Y6320D01*
D02*
G37*
G36*
X4577Y6304D02*
X4474D01*
Y6201D01*
X4577D01*
Y6304D01*
D02*
G37*
G36*
X3324Y6418D02*
X3218D01*
Y6312D01*
X3282D01*
X3286Y6307D01*
Y6259D01*
X3274D01*
Y6175D01*
X3358D01*
Y6259D01*
X3346D01*
Y6320D01*
X3345Y6328D01*
X3343Y6332D01*
X3342Y6335D01*
X3337Y6341D01*
X3324Y6354D01*
Y6418D01*
D02*
G37*
G36*
X3502Y6269D02*
X3399D01*
Y6166D01*
X3502D01*
Y6269D01*
D02*
G37*
G36*
X4797Y6278D02*
X4784Y6276D01*
X4773Y6273D01*
X4762Y6267D01*
X4752Y6259D01*
X4744Y6249D01*
X4738Y6238D01*
X4735Y6227D01*
X4733Y6214D01*
X4735Y6202D01*
X4738Y6190D01*
X4744Y6179D01*
X4752Y6169D01*
X4762Y6162D01*
X4773Y6156D01*
X4784Y6152D01*
X4797Y6151D01*
X4809Y6152D01*
X4821Y6156D01*
X4832Y6162D01*
X4841Y6169D01*
X4849Y6179D01*
X4855Y6190D01*
X4859Y6202D01*
X4860Y6214D01*
X4859Y6227D01*
X4855Y6238D01*
X4849Y6249D01*
X4841Y6259D01*
X4832Y6267D01*
X4821Y6273D01*
X4809Y6276D01*
X4797Y6278D01*
D02*
G37*
G36*
X7487Y6432D02*
X7383D01*
Y6328D01*
X7390D01*
X7392Y6323D01*
X7385Y6320D01*
X7372Y6309D01*
X7361Y6296D01*
X7353Y6280D01*
X7348Y6263D01*
X7346Y6246D01*
X7348Y6229D01*
X7353Y6212D01*
X7361Y6196D01*
X7372Y6183D01*
X7428Y6127D01*
X7428Y6127D01*
X7441Y6116D01*
X7457Y6108D01*
X7474Y6103D01*
X7491Y6101D01*
X7491Y6101D01*
X7625D01*
X7642Y6103D01*
X7659Y6108D01*
X7675Y6116D01*
X7688Y6127D01*
X7699Y6140D01*
X7707Y6156D01*
X7712Y6173D01*
X7714Y6190D01*
X7712Y6207D01*
X7707Y6224D01*
X7699Y6240D01*
X7688Y6253D01*
X7675Y6264D01*
X7659Y6272D01*
X7642Y6277D01*
X7625Y6279D01*
X7528D01*
X7498Y6309D01*
X7485Y6320D01*
X7478Y6323D01*
X7480Y6328D01*
X7487D01*
Y6432D01*
D02*
G37*
G36*
X3748Y6161D02*
X3664D01*
Y6119D01*
X3631Y6086D01*
X3631Y6087D01*
X3618Y6092D01*
X3604Y6094D01*
X3590Y6092D01*
X3577Y6087D01*
X3566Y6078D01*
X3557Y6067D01*
X3552Y6054D01*
X3550Y6040D01*
X3552Y6026D01*
X3557Y6013D01*
X3566Y6002D01*
X3577Y5994D01*
X3590Y5988D01*
X3604Y5986D01*
X3618Y5988D01*
X3631Y5994D01*
X3642Y6002D01*
X3650Y6013D01*
X3656Y6026D01*
X3707Y6077D01*
X3748D01*
Y6161D01*
D02*
G37*
G36*
X4375Y5765D02*
X4366Y5764D01*
X4357Y5761D01*
X4350Y5755D01*
X4344Y5748D01*
X4341Y5739D01*
X4340Y5730D01*
X4341Y5721D01*
X4344Y5712D01*
X4350Y5705D01*
X4357Y5699D01*
X4366Y5696D01*
X4375Y5695D01*
X4384Y5696D01*
X4393Y5699D01*
X4400Y5705D01*
X4406Y5712D01*
X4409Y5721D01*
X4410Y5730D01*
X4409Y5739D01*
X4406Y5748D01*
X4400Y5755D01*
X4393Y5761D01*
X4384Y5764D01*
X4375Y5765D01*
D02*
G37*
G36*
X3505Y5435D02*
X3496Y5434D01*
X3487Y5431D01*
X3480Y5425D01*
X3474Y5418D01*
X3471Y5409D01*
X3470Y5400D01*
X3471Y5391D01*
X3474Y5382D01*
X3480Y5375D01*
X3487Y5369D01*
X3496Y5366D01*
X3505Y5365D01*
X3514Y5366D01*
X3523Y5369D01*
X3530Y5375D01*
X3536Y5382D01*
X3536Y5384D01*
X3543D01*
X3659Y5269D01*
X3664Y5265D01*
X3670Y5264D01*
X3729D01*
X3729Y5262D01*
X3735Y5255D01*
X3742Y5249D01*
X3751Y5246D01*
X3760Y5245D01*
X3769Y5246D01*
X3778Y5249D01*
X3785Y5255D01*
X3791Y5262D01*
X3794Y5271D01*
X3795Y5280D01*
X3794Y5289D01*
X3791Y5298D01*
X3785Y5305D01*
X3778Y5311D01*
X3769Y5314D01*
X3760Y5315D01*
X3751Y5314D01*
X3742Y5311D01*
X3735Y5305D01*
X3729Y5298D01*
X3729Y5296D01*
X3677D01*
X3561Y5411D01*
X3556Y5415D01*
X3550Y5416D01*
X3536D01*
X3536Y5418D01*
X3530Y5425D01*
X3523Y5431D01*
X3514Y5434D01*
X3505Y5435D01*
D02*
G37*
G36*
X6825Y4980D02*
X6816Y4979D01*
X6807Y4976D01*
X6800Y4970D01*
X6794Y4963D01*
X6791Y4954D01*
X6790Y4945D01*
X6791Y4936D01*
X6794Y4927D01*
X6800Y4920D01*
X6807Y4914D01*
X6816Y4911D01*
X6825Y4910D01*
X6834Y4911D01*
X6843Y4914D01*
X6850Y4920D01*
X6856Y4927D01*
X6859Y4936D01*
X6860Y4945D01*
X6859Y4954D01*
X6856Y4963D01*
X6850Y4970D01*
X6843Y4976D01*
X6834Y4979D01*
X6825Y4980D01*
D02*
G37*
G36*
X7497Y5683D02*
X7472Y5682D01*
X7448Y5677D01*
X7424Y5669D01*
X7402Y5658D01*
X7381Y5644D01*
X7362Y5628D01*
X7346Y5609D01*
X7332Y5588D01*
X7321Y5566D01*
X7313Y5542D01*
X7308Y5518D01*
X7307Y5493D01*
X7308Y5468D01*
X7313Y5444D01*
X7321Y5420D01*
X7332Y5398D01*
X7346Y5377D01*
X7362Y5358D01*
X7381Y5342D01*
X7402Y5328D01*
X7424Y5317D01*
X7427Y5316D01*
X7426Y5311D01*
X7418Y5311D01*
X7390Y5305D01*
X7363Y5296D01*
X7338Y5283D01*
X7314Y5268D01*
X7293Y5249D01*
X7274Y5228D01*
X7258Y5204D01*
X7246Y5178D01*
X7237Y5152D01*
X7231Y5124D01*
X7229Y5095D01*
X7231Y5067D01*
X7237Y5039D01*
X7246Y5012D01*
X7258Y4987D01*
X7274Y4963D01*
X7293Y4942D01*
X7314Y4923D01*
X7338Y4907D01*
X7363Y4895D01*
X7390Y4886D01*
X7418Y4880D01*
X7446Y4878D01*
X7475Y4880D01*
X7503Y4886D01*
X7529Y4895D01*
X7555Y4907D01*
X7579Y4923D01*
X7600Y4942D01*
X7619Y4963D01*
X7634Y4987D01*
X7647Y5012D01*
X7656Y5039D01*
X7662Y5067D01*
X7663Y5095D01*
X7662Y5124D01*
X7656Y5152D01*
X7647Y5178D01*
X7634Y5204D01*
X7619Y5228D01*
X7600Y5249D01*
X7579Y5268D01*
X7555Y5283D01*
X7529Y5296D01*
X7520Y5299D01*
X7521Y5304D01*
X7522Y5304D01*
X7546Y5309D01*
X7570Y5317D01*
X7592Y5328D01*
X7613Y5342D01*
X7632Y5358D01*
X7648Y5377D01*
X7662Y5398D01*
X7673Y5420D01*
X7681Y5444D01*
X7686Y5468D01*
X7687Y5493D01*
X7686Y5518D01*
X7681Y5542D01*
X7673Y5566D01*
X7662Y5588D01*
X7648Y5609D01*
X7632Y5628D01*
X7613Y5644D01*
X7592Y5658D01*
X7570Y5669D01*
X7546Y5677D01*
X7522Y5682D01*
X7497Y5683D01*
D02*
G37*
G36*
X3509Y5312D02*
X3481Y5311D01*
X3453Y5305D01*
X3426Y5296D01*
X3401Y5283D01*
X3377Y5268D01*
X3356Y5249D01*
X3337Y5228D01*
X3321Y5204D01*
X3309Y5178D01*
X3300Y5152D01*
X3294Y5124D01*
X3292Y5095D01*
X3294Y5067D01*
X3300Y5039D01*
X3309Y5012D01*
X3321Y4987D01*
X3337Y4963D01*
X3356Y4942D01*
X3377Y4923D01*
X3401Y4907D01*
X3426Y4895D01*
X3453Y4886D01*
X3481Y4880D01*
X3509Y4878D01*
X3538Y4880D01*
X3566Y4886D01*
X3592Y4895D01*
X3618Y4907D01*
X3642Y4923D01*
X3663Y4942D01*
X3682Y4963D01*
X3697Y4987D01*
X3710Y5012D01*
X3719Y5039D01*
X3725Y5067D01*
X3726Y5095D01*
X3725Y5124D01*
X3719Y5152D01*
X3710Y5178D01*
X3697Y5204D01*
X3682Y5228D01*
X3663Y5249D01*
X3642Y5268D01*
X3618Y5283D01*
X3592Y5296D01*
X3566Y5305D01*
X3538Y5311D01*
X3509Y5312D01*
D02*
G37*
G36*
X4545Y4695D02*
X4536Y4694D01*
X4527Y4691D01*
X4520Y4685D01*
X4514Y4678D01*
X4511Y4669D01*
X4510Y4660D01*
X4511Y4651D01*
X4514Y4642D01*
X4520Y4635D01*
X4527Y4629D01*
X4536Y4626D01*
X4545Y4625D01*
X4554Y4626D01*
X4563Y4629D01*
X4570Y4635D01*
X4576Y4642D01*
X4579Y4651D01*
X4580Y4660D01*
X4579Y4669D01*
X4576Y4678D01*
X4570Y4685D01*
X4563Y4691D01*
X4554Y4694D01*
X4545Y4695D01*
D02*
G37*
G36*
X3396Y4464D02*
X3387Y4463D01*
X3378Y4460D01*
X3371Y4454D01*
X3365Y4447D01*
X3362Y4438D01*
X3360Y4429D01*
X3362Y4420D01*
X3365Y4411D01*
X3371Y4404D01*
X3378Y4399D01*
X3387Y4395D01*
X3396Y4394D01*
X3405Y4395D01*
X3413Y4399D01*
X3421Y4404D01*
X3426Y4411D01*
X3430Y4420D01*
X3431Y4429D01*
X3430Y4438D01*
X3426Y4447D01*
X3421Y4454D01*
X3413Y4460D01*
X3405Y4463D01*
X3396Y4464D01*
D02*
G37*
G36*
X3225Y4395D02*
X3215Y4394D01*
X3205Y4390D01*
X3196Y4384D01*
X3190Y4375D01*
X3186Y4365D01*
X3185Y4355D01*
X3186Y4345D01*
X3190Y4335D01*
X3196Y4326D01*
X3205Y4320D01*
X3215Y4316D01*
X3225Y4315D01*
X3235Y4316D01*
X3245Y4320D01*
X3254Y4326D01*
X3260Y4335D01*
X3264Y4345D01*
X3265Y4355D01*
X3264Y4365D01*
X3260Y4375D01*
X3254Y4384D01*
X3245Y4390D01*
X3235Y4394D01*
X3225Y4395D01*
D02*
G37*
G36*
Y4295D02*
X3215Y4294D01*
X3205Y4290D01*
X3196Y4284D01*
X3190Y4275D01*
X3186Y4265D01*
X3185Y4255D01*
X3186Y4245D01*
X3190Y4235D01*
X3196Y4226D01*
X3205Y4220D01*
X3215Y4216D01*
X3225Y4215D01*
X3235Y4216D01*
X3245Y4220D01*
X3254Y4226D01*
X3260Y4235D01*
X3264Y4245D01*
X3265Y4255D01*
X3264Y4265D01*
X3260Y4275D01*
X3254Y4284D01*
X3245Y4290D01*
X3235Y4294D01*
X3225Y4295D01*
D02*
G37*
G36*
X3400Y4300D02*
X3388Y4299D01*
X3377Y4294D01*
X3368Y4287D01*
X3361Y4278D01*
X3356Y4267D01*
X3355Y4255D01*
X3356Y4243D01*
X3361Y4232D01*
X3368Y4223D01*
X3377Y4216D01*
X3388Y4211D01*
X3400Y4210D01*
X3412Y4211D01*
X3423Y4216D01*
X3432Y4223D01*
X3439Y4232D01*
X3444Y4243D01*
X3445Y4255D01*
X3444Y4267D01*
X3439Y4278D01*
X3432Y4287D01*
X3423Y4294D01*
X3412Y4299D01*
X3400Y4300D01*
D02*
G37*
G36*
X5160Y4215D02*
X5151Y4214D01*
X5142Y4211D01*
X5135Y4205D01*
X5129Y4198D01*
X5126Y4189D01*
X5125Y4180D01*
X5126Y4171D01*
X5129Y4162D01*
X5135Y4155D01*
X5142Y4149D01*
X5151Y4146D01*
X5160Y4145D01*
X5169Y4146D01*
X5178Y4149D01*
X5185Y4155D01*
X5191Y4162D01*
X5194Y4171D01*
X5195Y4180D01*
X5194Y4189D01*
X5191Y4198D01*
X5185Y4205D01*
X5178Y4211D01*
X5169Y4214D01*
X5160Y4215D01*
D02*
G37*
G36*
X3225Y4195D02*
X3215Y4194D01*
X3205Y4190D01*
X3196Y4184D01*
X3190Y4175D01*
X3186Y4165D01*
X3185Y4155D01*
X3186Y4145D01*
X3190Y4135D01*
X3196Y4126D01*
X3205Y4120D01*
X3215Y4116D01*
X3225Y4115D01*
X3235Y4116D01*
X3245Y4120D01*
X3254Y4126D01*
X3260Y4135D01*
X3264Y4145D01*
X3265Y4155D01*
X3264Y4165D01*
X3260Y4175D01*
X3254Y4184D01*
X3245Y4190D01*
X3235Y4194D01*
X3225Y4195D01*
D02*
G37*
G36*
X6350Y4165D02*
X6341Y4164D01*
X6332Y4161D01*
X6325Y4155D01*
X6319Y4148D01*
X6316Y4139D01*
X6315Y4130D01*
X6316Y4121D01*
X6319Y4112D01*
X6325Y4105D01*
X6332Y4099D01*
X6341Y4096D01*
X6350Y4095D01*
X6359Y4096D01*
X6368Y4099D01*
X6375Y4105D01*
X6381Y4112D01*
X6384Y4121D01*
X6385Y4130D01*
X6384Y4139D01*
X6381Y4148D01*
X6375Y4155D01*
X6368Y4161D01*
X6359Y4164D01*
X6350Y4165D01*
D02*
G37*
G36*
X4510Y4135D02*
X4498Y4134D01*
X4487Y4129D01*
X4478Y4122D01*
X4471Y4113D01*
X4466Y4102D01*
X4465Y4090D01*
X4466Y4078D01*
X4471Y4067D01*
X4478Y4058D01*
X4487Y4051D01*
X4498Y4046D01*
X4510Y4045D01*
X4522Y4046D01*
X4533Y4051D01*
X4542Y4058D01*
X4549Y4067D01*
X4554Y4078D01*
X4555Y4090D01*
X4554Y4102D01*
X4549Y4113D01*
X4542Y4122D01*
X4533Y4129D01*
X4522Y4134D01*
X4510Y4135D01*
D02*
G37*
G36*
X4415Y4125D02*
X4403Y4124D01*
X4392Y4119D01*
X4383Y4112D01*
X4376Y4103D01*
X4371Y4092D01*
X4370Y4080D01*
X4371Y4068D01*
X4376Y4057D01*
X4383Y4048D01*
X4392Y4041D01*
X4403Y4036D01*
X4415Y4035D01*
X4427Y4036D01*
X4438Y4041D01*
X4447Y4048D01*
X4454Y4057D01*
X4459Y4068D01*
X4460Y4080D01*
X4459Y4092D01*
X4454Y4103D01*
X4447Y4112D01*
X4438Y4119D01*
X4427Y4124D01*
X4415Y4125D01*
D02*
G37*
G36*
X7675Y4629D02*
X7663Y4628D01*
X7652Y4625D01*
X7642Y4619D01*
X7633Y4612D01*
X7626Y4603D01*
X7620Y4593D01*
X7617Y4582D01*
X7616Y4570D01*
X7617Y4558D01*
X7620Y4547D01*
X7626Y4537D01*
X7633Y4528D01*
X7642Y4521D01*
X7648Y4517D01*
X7648Y4517D01*
X7648Y4512D01*
X7640Y4505D01*
X7632Y4495D01*
X7627Y4483D01*
X7625Y4470D01*
X7627Y4457D01*
X7632Y4445D01*
X7640Y4435D01*
X7650Y4427D01*
X7660Y4423D01*
Y4417D01*
X7650Y4413D01*
X7640Y4405D01*
X7632Y4395D01*
X7627Y4383D01*
X7625Y4370D01*
X7627Y4357D01*
X7632Y4345D01*
X7640Y4335D01*
X7650Y4327D01*
X7660Y4323D01*
Y4317D01*
X7650Y4313D01*
X7640Y4305D01*
X7632Y4295D01*
X7627Y4283D01*
X7625Y4270D01*
X7627Y4257D01*
X7632Y4245D01*
X7640Y4235D01*
X7650Y4227D01*
X7660Y4223D01*
Y4217D01*
X7650Y4213D01*
X7640Y4205D01*
X7632Y4195D01*
X7627Y4183D01*
X7625Y4170D01*
X7627Y4157D01*
X7632Y4145D01*
X7640Y4135D01*
X7650Y4127D01*
X7656Y4124D01*
X7655Y4119D01*
X7626D01*
Y4021D01*
X7724D01*
Y4119D01*
X7695D01*
X7694Y4124D01*
X7700Y4127D01*
X7710Y4135D01*
X7718Y4145D01*
X7723Y4157D01*
X7725Y4170D01*
X7723Y4183D01*
X7718Y4195D01*
X7710Y4205D01*
X7700Y4213D01*
X7690Y4217D01*
Y4223D01*
X7700Y4227D01*
X7710Y4235D01*
X7718Y4245D01*
X7723Y4257D01*
X7725Y4270D01*
X7723Y4283D01*
X7718Y4295D01*
X7710Y4305D01*
X7700Y4313D01*
X7690Y4317D01*
Y4323D01*
X7700Y4327D01*
X7710Y4335D01*
X7718Y4345D01*
X7723Y4357D01*
X7725Y4370D01*
X7723Y4383D01*
X7718Y4395D01*
X7710Y4405D01*
X7700Y4413D01*
X7690Y4417D01*
Y4423D01*
X7700Y4427D01*
X7710Y4435D01*
X7718Y4445D01*
X7723Y4457D01*
X7725Y4470D01*
X7723Y4483D01*
X7718Y4495D01*
X7710Y4505D01*
X7702Y4512D01*
X7702Y4517D01*
X7702Y4517D01*
X7708Y4521D01*
X7717Y4528D01*
X7724Y4537D01*
X7730Y4547D01*
X7733Y4558D01*
X7734Y4570D01*
X7733Y4582D01*
X7730Y4593D01*
X7724Y4603D01*
X7717Y4612D01*
X7708Y4619D01*
X7698Y4625D01*
X7687Y4628D01*
X7675Y4629D01*
D02*
G37*
G36*
X4205Y4090D02*
X4196Y4089D01*
X4187Y4086D01*
X4180Y4080D01*
X4174Y4073D01*
X4171Y4064D01*
X4170Y4055D01*
X4171Y4046D01*
X4174Y4037D01*
X4180Y4030D01*
X4187Y4024D01*
X4196Y4021D01*
X4205Y4020D01*
X4214Y4021D01*
X4223Y4024D01*
X4230Y4030D01*
X4236Y4037D01*
X4239Y4046D01*
X4240Y4055D01*
X4239Y4064D01*
X4236Y4073D01*
X4230Y4080D01*
X4223Y4086D01*
X4214Y4089D01*
X4205Y4090D01*
D02*
G37*
G36*
X3225Y4095D02*
X3215Y4094D01*
X3205Y4090D01*
X3196Y4084D01*
X3190Y4075D01*
X3186Y4065D01*
X3185Y4055D01*
X3186Y4045D01*
X3190Y4035D01*
X3196Y4026D01*
X3205Y4020D01*
X3215Y4016D01*
X3225Y4015D01*
X3235Y4016D01*
X3245Y4020D01*
X3254Y4026D01*
X3260Y4035D01*
X3264Y4045D01*
X3265Y4055D01*
X3264Y4065D01*
X3260Y4075D01*
X3254Y4084D01*
X3245Y4090D01*
X3235Y4094D01*
X3225Y4095D01*
D02*
G37*
G36*
X3395Y4000D02*
X3383Y3999D01*
X3372Y3994D01*
X3363Y3987D01*
X3356Y3978D01*
X3351Y3967D01*
X3350Y3955D01*
X3351Y3943D01*
X3356Y3932D01*
X3363Y3923D01*
X3372Y3916D01*
X3383Y3911D01*
X3395Y3910D01*
X3407Y3911D01*
X3418Y3916D01*
X3427Y3923D01*
X3434Y3932D01*
X3439Y3943D01*
X3440Y3955D01*
X3439Y3967D01*
X3434Y3978D01*
X3427Y3987D01*
X3418Y3994D01*
X3407Y3999D01*
X3395Y4000D01*
D02*
G37*
G36*
X4760Y3935D02*
X4751Y3934D01*
X4742Y3931D01*
X4735Y3925D01*
X4729Y3918D01*
X4726Y3909D01*
X4725Y3900D01*
X4726Y3891D01*
X4729Y3882D01*
X4735Y3875D01*
X4742Y3869D01*
X4751Y3866D01*
X4760Y3865D01*
X4769Y3866D01*
X4778Y3869D01*
X4785Y3875D01*
X4791Y3882D01*
X4794Y3891D01*
X4795Y3900D01*
X4794Y3909D01*
X4791Y3918D01*
X4785Y3925D01*
X4778Y3931D01*
X4769Y3934D01*
X4760Y3935D01*
D02*
G37*
G36*
X3595Y3835D02*
X3583Y3834D01*
X3572Y3829D01*
X3563Y3822D01*
X3556Y3813D01*
X3551Y3802D01*
X3550Y3790D01*
X3551Y3778D01*
X3556Y3767D01*
X3563Y3758D01*
X3572Y3751D01*
X3583Y3746D01*
X3595Y3745D01*
X3607Y3746D01*
X3618Y3751D01*
X3627Y3758D01*
X3634Y3767D01*
X3639Y3778D01*
X3640Y3790D01*
X3639Y3802D01*
X3634Y3813D01*
X3627Y3822D01*
X3618Y3829D01*
X3607Y3834D01*
X3595Y3835D01*
D02*
G37*
G36*
X7150Y3524D02*
X7138Y3523D01*
X7127Y3519D01*
X7117Y3514D01*
X7108Y3506D01*
X7101Y3497D01*
X7095Y3487D01*
X7092Y3476D01*
X7091Y3464D01*
X7092Y3453D01*
X7095Y3442D01*
X7101Y3431D01*
X7108Y3422D01*
X7117Y3415D01*
X7127Y3409D01*
X7138Y3406D01*
X7150Y3405D01*
X7162Y3406D01*
X7173Y3409D01*
X7183Y3415D01*
X7192Y3422D01*
X7199Y3431D01*
X7205Y3442D01*
X7208Y3453D01*
X7209Y3464D01*
X7208Y3476D01*
X7205Y3487D01*
X7199Y3497D01*
X7192Y3506D01*
X7183Y3514D01*
X7173Y3519D01*
X7162Y3523D01*
X7150Y3524D01*
D02*
G37*
G36*
X3800D02*
X3789Y3523D01*
X3777Y3519D01*
X3767Y3514D01*
X3758Y3506D01*
X3751Y3497D01*
X3745Y3487D01*
X3742Y3476D01*
X3741Y3464D01*
X3742Y3453D01*
X3745Y3442D01*
X3751Y3431D01*
X3758Y3422D01*
X3767Y3415D01*
X3777Y3409D01*
X3789Y3406D01*
X3800Y3405D01*
X3812Y3406D01*
X3823Y3409D01*
X3833Y3415D01*
X3842Y3422D01*
X3850Y3431D01*
X3855Y3442D01*
X3859Y3453D01*
X3860Y3464D01*
X3859Y3476D01*
X3855Y3487D01*
X3850Y3497D01*
X3842Y3506D01*
X3833Y3514D01*
X3823Y3519D01*
X3812Y3523D01*
X3800Y3524D01*
D02*
G37*
G36*
X5800Y3355D02*
X5788Y3354D01*
X5777Y3349D01*
X5768Y3342D01*
X5761Y3333D01*
X5756Y3322D01*
X5755Y3310D01*
X5756Y3298D01*
X5761Y3287D01*
X5768Y3278D01*
X5777Y3271D01*
X5788Y3266D01*
X5800Y3265D01*
X5812Y3266D01*
X5823Y3271D01*
X5832Y3278D01*
X5839Y3287D01*
X5844Y3298D01*
X5845Y3310D01*
X5844Y3322D01*
X5839Y3333D01*
X5832Y3342D01*
X5823Y3349D01*
X5812Y3354D01*
X5800Y3355D01*
D02*
G37*
G36*
X3360Y3645D02*
X3351Y3644D01*
X3342Y3641D01*
X3335Y3635D01*
X3329Y3628D01*
X3326Y3619D01*
X3325Y3610D01*
X3326Y3601D01*
X3329Y3592D01*
X3335Y3585D01*
X3342Y3579D01*
X3344Y3579D01*
Y3481D01*
X3342Y3481D01*
X3335Y3475D01*
X3329Y3468D01*
X3326Y3459D01*
X3325Y3450D01*
X3326Y3441D01*
X3329Y3432D01*
X3335Y3425D01*
X3342Y3419D01*
X3351Y3416D01*
X3360Y3415D01*
X3369Y3416D01*
X3378Y3419D01*
X3383Y3424D01*
X3429Y3378D01*
Y3277D01*
X3357Y3205D01*
X3355Y3205D01*
X3346Y3204D01*
X3337Y3201D01*
X3330Y3195D01*
X3324Y3188D01*
X3321Y3179D01*
X3320Y3170D01*
X3321Y3161D01*
X3324Y3152D01*
X3330Y3145D01*
X3337Y3139D01*
X3346Y3136D01*
X3355Y3135D01*
X3363Y3136D01*
X3365Y3131D01*
X3356Y3123D01*
X3337Y3102D01*
X3321Y3078D01*
X3309Y3052D01*
X3300Y3026D01*
X3294Y2998D01*
X3292Y2969D01*
X3294Y2941D01*
X3300Y2913D01*
X3309Y2886D01*
X3321Y2861D01*
X3337Y2837D01*
X3356Y2816D01*
X3377Y2797D01*
X3401Y2781D01*
X3426Y2769D01*
X3453Y2760D01*
X3481Y2754D01*
X3509Y2752D01*
X3538Y2754D01*
X3566Y2760D01*
X3592Y2769D01*
X3618Y2781D01*
X3642Y2797D01*
X3663Y2816D01*
X3682Y2837D01*
X3697Y2861D01*
X3710Y2886D01*
X3719Y2913D01*
X3725Y2941D01*
X3726Y2969D01*
X3725Y2998D01*
X3719Y3026D01*
X3710Y3052D01*
X3697Y3078D01*
X3682Y3102D01*
X3663Y3123D01*
X3642Y3142D01*
X3618Y3157D01*
X3592Y3170D01*
X3566Y3179D01*
X3538Y3185D01*
X3509Y3186D01*
X3481Y3185D01*
X3453Y3179D01*
X3426Y3170D01*
X3401Y3157D01*
X3390Y3150D01*
X3386Y3154D01*
X3389Y3161D01*
X3390Y3170D01*
X3389Y3179D01*
X3386Y3188D01*
X3456Y3259D01*
X3460Y3264D01*
X3461Y3270D01*
Y3385D01*
X3460Y3391D01*
X3456Y3396D01*
X3394Y3459D01*
X3394Y3459D01*
X3391Y3468D01*
X3385Y3475D01*
X3378Y3481D01*
X3376Y3481D01*
Y3579D01*
X3378Y3579D01*
X3385Y3585D01*
X3391Y3592D01*
X3394Y3601D01*
X3395Y3610D01*
X3394Y3619D01*
X3391Y3628D01*
X3385Y3635D01*
X3378Y3641D01*
X3369Y3644D01*
X3360Y3645D01*
D02*
G37*
G36*
X3250Y3809D02*
X3238Y3808D01*
X3227Y3805D01*
X3217Y3799D01*
X3208Y3792D01*
X3201Y3783D01*
X3195Y3773D01*
X3192Y3762D01*
X3191Y3750D01*
X3192Y3738D01*
X3195Y3727D01*
X3201Y3717D01*
X3208Y3708D01*
X3217Y3701D01*
X3223Y3697D01*
X3223Y3697D01*
X3223Y3692D01*
X3215Y3685D01*
X3207Y3675D01*
X3202Y3663D01*
X3200Y3650D01*
X3202Y3637D01*
X3207Y3625D01*
X3215Y3615D01*
X3225Y3607D01*
X3235Y3603D01*
Y3597D01*
X3225Y3593D01*
X3215Y3585D01*
X3207Y3575D01*
X3202Y3563D01*
X3200Y3550D01*
X3202Y3537D01*
X3207Y3525D01*
X3215Y3515D01*
X3225Y3507D01*
X3235Y3503D01*
Y3497D01*
X3225Y3493D01*
X3215Y3485D01*
X3207Y3475D01*
X3202Y3463D01*
X3200Y3450D01*
X3202Y3437D01*
X3207Y3425D01*
X3215Y3415D01*
X3225Y3407D01*
X3235Y3403D01*
Y3397D01*
X3225Y3393D01*
X3215Y3385D01*
X3207Y3375D01*
X3202Y3363D01*
X3200Y3350D01*
X3202Y3337D01*
X3207Y3325D01*
X3215Y3315D01*
X3225Y3307D01*
X3231Y3304D01*
X3230Y3299D01*
X3201D01*
Y3201D01*
X3299D01*
Y3299D01*
X3270D01*
X3269Y3304D01*
X3275Y3307D01*
X3285Y3315D01*
X3293Y3325D01*
X3298Y3337D01*
X3300Y3350D01*
X3298Y3363D01*
X3293Y3375D01*
X3285Y3385D01*
X3275Y3393D01*
X3265Y3397D01*
Y3403D01*
X3275Y3407D01*
X3285Y3415D01*
X3293Y3425D01*
X3298Y3437D01*
X3300Y3450D01*
X3298Y3463D01*
X3293Y3475D01*
X3285Y3485D01*
X3275Y3493D01*
X3265Y3497D01*
Y3503D01*
X3275Y3507D01*
X3285Y3515D01*
X3293Y3525D01*
X3298Y3537D01*
X3300Y3550D01*
X3298Y3563D01*
X3293Y3575D01*
X3285Y3585D01*
X3275Y3593D01*
X3265Y3597D01*
Y3603D01*
X3275Y3607D01*
X3285Y3615D01*
X3293Y3625D01*
X3298Y3637D01*
X3300Y3650D01*
X3298Y3663D01*
X3293Y3675D01*
X3285Y3685D01*
X3277Y3692D01*
X3277Y3697D01*
X3277Y3697D01*
X3283Y3701D01*
X3292Y3708D01*
X3299Y3717D01*
X3305Y3727D01*
X3308Y3738D01*
X3308Y3740D01*
X3250D01*
Y3760D01*
X3308D01*
X3308Y3762D01*
X3305Y3773D01*
X3299Y3783D01*
X3292Y3792D01*
X3283Y3799D01*
X3273Y3805D01*
X3262Y3808D01*
X3250Y3809D01*
D02*
G37*
G36*
X3668Y3352D02*
X3656Y3351D01*
X3645Y3347D01*
X3635Y3342D01*
X3626Y3334D01*
X3618Y3325D01*
X3613Y3315D01*
X3609Y3304D01*
X3608Y3293D01*
X3609Y3281D01*
X3613Y3270D01*
X3618Y3260D01*
X3626Y3251D01*
X3635Y3243D01*
X3640Y3240D01*
X3641Y3240D01*
X3641Y3234D01*
X3632Y3228D01*
X3624Y3217D01*
X3619Y3205D01*
X3618Y3193D01*
X3619Y3180D01*
X3624Y3168D01*
X3632Y3157D01*
X3643Y3149D01*
X3655Y3144D01*
X3668Y3143D01*
X3680Y3144D01*
X3692Y3149D01*
X3703Y3157D01*
X3711Y3168D01*
X3716Y3180D01*
X3717Y3193D01*
X3716Y3205D01*
X3711Y3217D01*
X3703Y3228D01*
X3694Y3234D01*
X3694Y3240D01*
X3695Y3240D01*
X3700Y3243D01*
X3709Y3251D01*
X3717Y3260D01*
X3722Y3270D01*
X3726Y3281D01*
X3727Y3293D01*
X3726Y3304D01*
X3722Y3315D01*
X3717Y3325D01*
X3709Y3334D01*
X3700Y3342D01*
X3690Y3347D01*
X3679Y3351D01*
X3668Y3352D01*
D02*
G37*
G36*
X5055Y3270D02*
X5046Y3269D01*
X5037Y3266D01*
X5030Y3260D01*
X5024Y3253D01*
X5021Y3244D01*
X5020Y3235D01*
X5021Y3226D01*
X5024Y3217D01*
X5030Y3210D01*
X5037Y3204D01*
X5046Y3201D01*
X5055Y3200D01*
X5064Y3201D01*
X5073Y3204D01*
X5080Y3210D01*
X5084Y3215D01*
X5322D01*
X5485Y3052D01*
Y3044D01*
X5477Y3038D01*
X5470Y3030D01*
X5466Y3020D01*
X5465Y3010D01*
X5466Y3000D01*
X5470Y2990D01*
X5477Y2982D01*
X5485Y2975D01*
X5495Y2971D01*
X5505Y2970D01*
X5515Y2971D01*
X5525Y2975D01*
X5533Y2982D01*
X5540Y2990D01*
X5544Y3000D01*
X5545Y3010D01*
X5544Y3020D01*
X5540Y3030D01*
X5533Y3038D01*
X5525Y3044D01*
Y3060D01*
X5524Y3068D01*
X5519Y3074D01*
X5344Y3249D01*
X5338Y3254D01*
X5330Y3255D01*
X5084D01*
X5080Y3260D01*
X5073Y3266D01*
X5064Y3269D01*
X5055Y3270D01*
D02*
G37*
G36*
X5405Y3050D02*
X5395Y3049D01*
X5385Y3045D01*
X5377Y3038D01*
X5370Y3030D01*
X5366Y3020D01*
X5365Y3010D01*
X5366Y3000D01*
X5370Y2990D01*
X5377Y2982D01*
X5385Y2975D01*
X5395Y2971D01*
X5405Y2970D01*
X5415Y2971D01*
X5425Y2975D01*
X5433Y2982D01*
X5440Y2990D01*
X5444Y3000D01*
X5445Y3010D01*
X5444Y3020D01*
X5440Y3030D01*
X5433Y3038D01*
X5425Y3045D01*
X5415Y3049D01*
X5405Y3050D01*
D02*
G37*
G36*
X5305D02*
X5295Y3049D01*
X5285Y3045D01*
X5277Y3038D01*
X5270Y3030D01*
X5266Y3020D01*
X5265Y3010D01*
X5266Y3000D01*
X5270Y2990D01*
X5277Y2982D01*
X5285Y2975D01*
X5295Y2971D01*
X5305Y2970D01*
X5315Y2971D01*
X5325Y2975D01*
X5333Y2982D01*
X5340Y2990D01*
X5344Y3000D01*
X5345Y3010D01*
X5344Y3020D01*
X5340Y3030D01*
X5333Y3038D01*
X5325Y3045D01*
X5315Y3049D01*
X5305Y3050D01*
D02*
G37*
G36*
X6765Y2939D02*
X6753Y2938D01*
X6742Y2935D01*
X6732Y2929D01*
X6723Y2922D01*
X6716Y2913D01*
X6713Y2907D01*
X6712Y2907D01*
X6707Y2907D01*
X6700Y2915D01*
X6690Y2923D01*
X6678Y2928D01*
X6665Y2930D01*
X6652Y2928D01*
X6640Y2923D01*
X6630Y2915D01*
X6622Y2905D01*
X6617Y2893D01*
X6615Y2880D01*
X6617Y2867D01*
X6622Y2855D01*
X6630Y2845D01*
X6640Y2837D01*
X6652Y2832D01*
X6665Y2830D01*
X6678Y2832D01*
X6690Y2837D01*
X6700Y2845D01*
X6707Y2853D01*
X6712Y2853D01*
X6713Y2853D01*
X6716Y2847D01*
X6723Y2838D01*
X6732Y2831D01*
X6742Y2825D01*
X6753Y2822D01*
X6765Y2821D01*
X6777Y2822D01*
X6788Y2825D01*
X6798Y2831D01*
X6807Y2838D01*
X6814Y2847D01*
X6820Y2857D01*
X6823Y2868D01*
X6824Y2880D01*
X6823Y2892D01*
X6820Y2903D01*
X6814Y2913D01*
X6807Y2922D01*
X6798Y2929D01*
X6788Y2935D01*
X6777Y2938D01*
X6765Y2939D01*
D02*
G37*
G36*
X5505Y2950D02*
X5495Y2949D01*
X5485Y2945D01*
X5477Y2938D01*
X5470Y2930D01*
X5466Y2920D01*
X5465Y2910D01*
X5466Y2900D01*
X5470Y2890D01*
X5477Y2882D01*
X5485Y2875D01*
X5495Y2871D01*
X5505Y2870D01*
X5515Y2871D01*
X5525Y2875D01*
X5533Y2882D01*
X5540Y2890D01*
X5544Y2900D01*
X5545Y2910D01*
X5544Y2920D01*
X5540Y2930D01*
X5533Y2938D01*
X5525Y2945D01*
X5515Y2949D01*
X5505Y2950D01*
D02*
G37*
G36*
X5405D02*
X5395Y2949D01*
X5385Y2945D01*
X5377Y2938D01*
X5370Y2930D01*
X5366Y2920D01*
X5365Y2910D01*
X5366Y2900D01*
X5370Y2890D01*
X5377Y2882D01*
X5385Y2875D01*
X5395Y2871D01*
X5405Y2870D01*
X5415Y2871D01*
X5425Y2875D01*
X5433Y2882D01*
X5440Y2890D01*
X5444Y2900D01*
X5445Y2910D01*
X5444Y2920D01*
X5440Y2930D01*
X5433Y2938D01*
X5425Y2945D01*
X5415Y2949D01*
X5405Y2950D01*
D02*
G37*
G36*
X5305D02*
X5295Y2949D01*
X5285Y2945D01*
X5277Y2938D01*
X5270Y2930D01*
X5266Y2920D01*
X5265Y2910D01*
X5266Y2900D01*
X5270Y2890D01*
X5277Y2882D01*
X5285Y2875D01*
X5295Y2871D01*
X5305Y2870D01*
X5315Y2871D01*
X5325Y2875D01*
X5333Y2882D01*
X5340Y2890D01*
X5344Y2900D01*
X5345Y2910D01*
X5344Y2920D01*
X5340Y2930D01*
X5333Y2938D01*
X5325Y2945D01*
X5315Y2949D01*
X5305Y2950D01*
D02*
G37*
G36*
X4005Y3073D02*
X3993Y3072D01*
X3981Y3068D01*
X3970Y3063D01*
X3960Y3055D01*
X3952Y3045D01*
X3947Y3034D01*
X3943Y3022D01*
X3942Y3010D01*
X3943Y2998D01*
X3947Y2986D01*
X3952Y2975D01*
X3960Y2965D01*
X3964Y2963D01*
Y2957D01*
X3960Y2955D01*
X3952Y2945D01*
X3947Y2934D01*
X3943Y2922D01*
X3942Y2910D01*
X3943Y2898D01*
X3947Y2886D01*
X3952Y2875D01*
X3960Y2865D01*
X3970Y2857D01*
X3981Y2852D01*
X3993Y2848D01*
X4005Y2847D01*
X4017Y2848D01*
X4029Y2852D01*
X4040Y2857D01*
X4050Y2865D01*
X4058Y2875D01*
X4058Y2876D01*
X4063Y2877D01*
X4067Y2872D01*
X4078Y2863D01*
X4091Y2858D01*
X4105Y2856D01*
X4119Y2858D01*
X4132Y2863D01*
X4143Y2872D01*
X4152Y2883D01*
X4153Y2885D01*
X4157D01*
X4158Y2883D01*
X4167Y2872D01*
X4178Y2863D01*
X4191Y2858D01*
X4205Y2856D01*
X4219Y2858D01*
X4232Y2863D01*
X4243Y2872D01*
X4252Y2883D01*
X4253Y2885D01*
X4258D01*
X4258Y2883D01*
X4267Y2872D01*
X4278Y2863D01*
X4291Y2858D01*
X4305Y2856D01*
X4319Y2858D01*
X4332Y2863D01*
X4343Y2872D01*
X4352Y2883D01*
X4352Y2885D01*
X4358D01*
X4358Y2883D01*
X4367Y2872D01*
X4378Y2863D01*
X4391Y2858D01*
X4405Y2856D01*
X4419Y2858D01*
X4432Y2863D01*
X4443Y2872D01*
X4452Y2883D01*
X4452Y2885D01*
X4457D01*
X4458Y2883D01*
X4467Y2872D01*
X4478Y2863D01*
X4491Y2858D01*
X4505Y2856D01*
X4519Y2858D01*
X4532Y2863D01*
X4543Y2872D01*
X4552Y2883D01*
X4552Y2885D01*
X4557D01*
X4558Y2883D01*
X4567Y2872D01*
X4578Y2863D01*
X4591Y2858D01*
X4605Y2856D01*
X4619Y2858D01*
X4632Y2863D01*
X4643Y2872D01*
X4652Y2883D01*
X4653Y2885D01*
X4657D01*
X4658Y2883D01*
X4667Y2872D01*
X4678Y2863D01*
X4691Y2858D01*
X4705Y2856D01*
X4719Y2858D01*
X4732Y2863D01*
X4743Y2872D01*
X4752Y2883D01*
X4753Y2885D01*
X4758D01*
X4758Y2883D01*
X4767Y2872D01*
X4778Y2863D01*
X4791Y2858D01*
X4805Y2856D01*
X4819Y2858D01*
X4832Y2863D01*
X4843Y2872D01*
X4852Y2883D01*
X4852Y2885D01*
X4858D01*
X4858Y2883D01*
X4867Y2872D01*
X4878Y2863D01*
X4891Y2858D01*
X4905Y2856D01*
X4919Y2858D01*
X4932Y2863D01*
X4943Y2872D01*
X4952Y2883D01*
X4952Y2885D01*
X4957D01*
X4958Y2883D01*
X4967Y2872D01*
X4978Y2863D01*
X4991Y2858D01*
X5005Y2856D01*
X5019Y2858D01*
X5032Y2863D01*
X5043Y2872D01*
X5052Y2883D01*
X5052Y2885D01*
X5057D01*
X5058Y2883D01*
X5067Y2872D01*
X5078Y2863D01*
X5091Y2858D01*
X5105Y2856D01*
X5119Y2858D01*
X5132Y2863D01*
X5143Y2872D01*
X5152Y2883D01*
X5153Y2885D01*
X5157D01*
X5158Y2883D01*
X5167Y2872D01*
X5178Y2863D01*
X5191Y2858D01*
X5205Y2856D01*
X5219Y2858D01*
X5232Y2863D01*
X5243Y2872D01*
X5252Y2883D01*
X5257Y2896D01*
X5259Y2910D01*
X5257Y2924D01*
X5252Y2937D01*
X5243Y2948D01*
X5232Y2957D01*
X5230Y2957D01*
Y2963D01*
X5232Y2963D01*
X5243Y2972D01*
X5252Y2983D01*
X5257Y2996D01*
X5259Y3010D01*
X5257Y3024D01*
X5252Y3037D01*
X5243Y3048D01*
X5232Y3057D01*
X5219Y3062D01*
X5205Y3064D01*
X5191Y3062D01*
X5178Y3057D01*
X5167Y3048D01*
X5158Y3037D01*
X5157Y3035D01*
X5153D01*
X5152Y3037D01*
X5143Y3048D01*
X5132Y3057D01*
X5119Y3062D01*
X5105Y3064D01*
X5091Y3062D01*
X5078Y3057D01*
X5067Y3048D01*
X5058Y3037D01*
X5057Y3035D01*
X5052D01*
X5052Y3037D01*
X5043Y3048D01*
X5032Y3057D01*
X5019Y3062D01*
X5005Y3064D01*
X4991Y3062D01*
X4978Y3057D01*
X4967Y3048D01*
X4958Y3037D01*
X4957Y3035D01*
X4952D01*
X4952Y3037D01*
X4943Y3048D01*
X4932Y3057D01*
X4919Y3062D01*
X4905Y3064D01*
X4891Y3062D01*
X4878Y3057D01*
X4867Y3048D01*
X4858Y3037D01*
X4858Y3035D01*
X4852D01*
X4852Y3037D01*
X4843Y3048D01*
X4832Y3057D01*
X4819Y3062D01*
X4805Y3064D01*
X4791Y3062D01*
X4778Y3057D01*
X4767Y3048D01*
X4758Y3037D01*
X4758Y3035D01*
X4753D01*
X4752Y3037D01*
X4743Y3048D01*
X4732Y3057D01*
X4719Y3062D01*
X4705Y3064D01*
X4691Y3062D01*
X4678Y3057D01*
X4667Y3048D01*
X4658Y3037D01*
X4657Y3035D01*
X4653D01*
X4652Y3037D01*
X4643Y3048D01*
X4632Y3057D01*
X4619Y3062D01*
X4605Y3064D01*
X4591Y3062D01*
X4578Y3057D01*
X4567Y3048D01*
X4558Y3037D01*
X4557Y3035D01*
X4552D01*
X4552Y3037D01*
X4543Y3048D01*
X4532Y3057D01*
X4519Y3062D01*
X4505Y3064D01*
X4491Y3062D01*
X4478Y3057D01*
X4467Y3048D01*
X4458Y3037D01*
X4457Y3035D01*
X4452D01*
X4452Y3037D01*
X4443Y3048D01*
X4432Y3057D01*
X4419Y3062D01*
X4405Y3064D01*
X4391Y3062D01*
X4378Y3057D01*
X4367Y3048D01*
X4358Y3037D01*
X4358Y3035D01*
X4352D01*
X4352Y3037D01*
X4343Y3048D01*
X4332Y3057D01*
X4319Y3062D01*
X4305Y3064D01*
X4291Y3062D01*
X4278Y3057D01*
X4267Y3048D01*
X4258Y3037D01*
X4258Y3035D01*
X4253D01*
X4252Y3037D01*
X4243Y3048D01*
X4232Y3057D01*
X4219Y3062D01*
X4205Y3064D01*
X4191Y3062D01*
X4178Y3057D01*
X4167Y3048D01*
X4158Y3037D01*
X4157Y3035D01*
X4153D01*
X4152Y3037D01*
X4143Y3048D01*
X4132Y3057D01*
X4119Y3062D01*
X4105Y3064D01*
X4091Y3062D01*
X4078Y3057D01*
X4067Y3048D01*
X4063Y3043D01*
X4058Y3044D01*
X4058Y3045D01*
X4050Y3055D01*
X4040Y3063D01*
X4029Y3068D01*
X4017Y3072D01*
X4005Y3073D01*
D02*
G37*
G36*
X7446Y3186D02*
X7418Y3185D01*
X7390Y3179D01*
X7363Y3170D01*
X7338Y3157D01*
X7314Y3142D01*
X7293Y3123D01*
X7274Y3102D01*
X7258Y3078D01*
X7246Y3052D01*
X7237Y3026D01*
X7231Y2998D01*
X7229Y2969D01*
X7231Y2941D01*
X7237Y2913D01*
X7246Y2886D01*
X7258Y2861D01*
X7274Y2837D01*
X7293Y2816D01*
X7314Y2797D01*
X7338Y2781D01*
X7363Y2769D01*
X7390Y2760D01*
X7418Y2754D01*
X7446Y2752D01*
X7475Y2754D01*
X7503Y2760D01*
X7529Y2769D01*
X7555Y2781D01*
X7579Y2797D01*
X7600Y2816D01*
X7619Y2837D01*
X7634Y2861D01*
X7647Y2886D01*
X7656Y2913D01*
X7662Y2941D01*
X7663Y2969D01*
X7662Y2998D01*
X7656Y3026D01*
X7647Y3052D01*
X7634Y3078D01*
X7619Y3102D01*
X7600Y3123D01*
X7579Y3142D01*
X7555Y3157D01*
X7529Y3170D01*
X7503Y3179D01*
X7475Y3185D01*
X7446Y3186D01*
D02*
G37*
G36*
X7150Y2864D02*
X7136Y2863D01*
X7124Y2859D01*
X7112Y2853D01*
X7101Y2844D01*
X7092Y2833D01*
X7086Y2821D01*
X7082Y2809D01*
X7081Y2795D01*
X7082Y2781D01*
X7086Y2769D01*
X7092Y2757D01*
X7101Y2746D01*
X7112Y2737D01*
X7124Y2731D01*
X7136Y2727D01*
X7150Y2726D01*
X7164Y2727D01*
X7176Y2731D01*
X7188Y2737D01*
X7199Y2746D01*
X7208Y2757D01*
X7214Y2769D01*
X7218Y2781D01*
X7219Y2795D01*
X7218Y2809D01*
X7214Y2821D01*
X7208Y2833D01*
X7199Y2844D01*
X7188Y2853D01*
X7176Y2859D01*
X7164Y2863D01*
X7150Y2864D01*
D02*
G37*
G36*
X5375D02*
X5361Y2863D01*
X5349Y2859D01*
X5337Y2853D01*
X5326Y2844D01*
X5317Y2833D01*
X5311Y2821D01*
X5307Y2809D01*
X5306Y2795D01*
X5307Y2781D01*
X5311Y2769D01*
X5317Y2757D01*
X5326Y2746D01*
X5337Y2737D01*
X5349Y2731D01*
X5361Y2727D01*
X5375Y2726D01*
X5389Y2727D01*
X5401Y2731D01*
X5413Y2737D01*
X5424Y2746D01*
X5433Y2757D01*
X5439Y2769D01*
X5443Y2781D01*
X5444Y2795D01*
X5443Y2809D01*
X5439Y2821D01*
X5433Y2833D01*
X5424Y2844D01*
X5413Y2853D01*
X5401Y2859D01*
X5389Y2863D01*
X5375Y2864D01*
D02*
G37*
G36*
X3800D02*
X3787Y2863D01*
X3774Y2859D01*
X3762Y2853D01*
X3751Y2844D01*
X3743Y2833D01*
X3736Y2821D01*
X3732Y2809D01*
X3731Y2795D01*
X3732Y2781D01*
X3736Y2769D01*
X3743Y2757D01*
X3751Y2746D01*
X3762Y2737D01*
X3774Y2731D01*
X3787Y2727D01*
X3800Y2726D01*
X3814Y2727D01*
X3827Y2731D01*
X3839Y2737D01*
X3849Y2746D01*
X3858Y2757D01*
X3864Y2769D01*
X3868Y2781D01*
X3869Y2795D01*
X3868Y2809D01*
X3864Y2821D01*
X3858Y2833D01*
X3849Y2844D01*
X3839Y2853D01*
X3827Y2859D01*
X3814Y2863D01*
X3800Y2864D01*
D02*
G37*
%LPD*%
G36*
X3740Y5990D02*
X3739Y5990D01*
X3729Y5984D01*
X3720Y5977D01*
X3713Y5968D01*
X3707Y5958D01*
X3704Y5947D01*
X3704Y5945D01*
X3762D01*
Y5925D01*
X3704D01*
X3704Y5924D01*
X3707Y5912D01*
X3713Y5902D01*
X3720Y5893D01*
X3729Y5886D01*
X3735Y5883D01*
X3735Y5882D01*
X3735Y5877D01*
X3727Y5870D01*
X3720Y5861D01*
X3671D01*
X3668Y5865D01*
X3662Y5869D01*
X3657Y5871D01*
X3655Y5872D01*
X3647Y5873D01*
X3639Y5872D01*
X3632Y5869D01*
X3626Y5865D01*
X3621Y5858D01*
X3619Y5854D01*
X3618Y5851D01*
X3617Y5843D01*
Y5792D01*
X3609Y5786D01*
X3601Y5775D01*
X3595Y5762D01*
X3593Y5748D01*
X3595Y5734D01*
X3601Y5721D01*
X3609Y5710D01*
X3620Y5702D01*
X3633Y5696D01*
X3647Y5694D01*
X3661Y5696D01*
X3674Y5702D01*
X3685Y5710D01*
X3694Y5721D01*
X3699Y5734D01*
X3701Y5748D01*
X3699Y5762D01*
X3694Y5775D01*
X3685Y5786D01*
X3677Y5792D01*
Y5802D01*
X3726D01*
X3727Y5800D01*
X3737Y5792D01*
X3749Y5787D01*
X3762Y5785D01*
X3775Y5787D01*
X3787Y5792D01*
X3795Y5798D01*
X3796Y5798D01*
X3800Y5797D01*
X3803Y5794D01*
X3809Y5790D01*
X3812Y5788D01*
X3817Y5787D01*
X3824Y5786D01*
X3861D01*
Y5774D01*
X3945D01*
Y5794D01*
X4140D01*
X4142Y5789D01*
X4138Y5784D01*
X4132Y5773D01*
X4128Y5761D01*
X4127Y5749D01*
X4128Y5737D01*
X4132Y5725D01*
X4138Y5714D01*
X4146Y5704D01*
X4155Y5697D01*
X4157Y5696D01*
X4157Y5691D01*
X4152Y5687D01*
X4146Y5679D01*
X4126D01*
X4124Y5679D01*
X4107Y5695D01*
X4101Y5700D01*
X4094Y5703D01*
X4086Y5704D01*
X3945D01*
Y5716D01*
X3861D01*
Y5678D01*
X3856D01*
X3852Y5683D01*
X3841Y5691D01*
X3829Y5696D01*
X3816Y5698D01*
X3804Y5696D01*
X3792Y5691D01*
X3781Y5683D01*
X3777Y5678D01*
X3554D01*
X3550Y5682D01*
Y5818D01*
X3727Y5995D01*
X3739D01*
X3740Y5990D01*
D02*
G37*
G36*
X3963Y6175D02*
Y6108D01*
X3975D01*
Y6044D01*
X3976Y6036D01*
X3979Y6029D01*
X3984Y6023D01*
X3990Y6018D01*
X3998Y6015D01*
X4005Y6014D01*
X4150D01*
X4152Y6011D01*
X4157Y6008D01*
X4157Y6003D01*
X4155Y6002D01*
X4146Y5994D01*
X4138Y5984D01*
X4132Y5973D01*
X4128Y5961D01*
X4127Y5949D01*
X4128Y5937D01*
X4132Y5925D01*
X4138Y5914D01*
X4146Y5904D01*
X4155Y5897D01*
X4157Y5896D01*
X4157Y5891D01*
X4152Y5887D01*
X4144Y5876D01*
X4138Y5863D01*
X4137Y5854D01*
X3945D01*
Y5858D01*
X3861D01*
Y5846D01*
X3837D01*
X3830Y5853D01*
X3824Y5857D01*
X3816Y5860D01*
X3809Y5861D01*
X3804D01*
X3797Y5870D01*
X3789Y5877D01*
X3789Y5882D01*
X3789Y5883D01*
X3795Y5886D01*
X3804Y5893D01*
X3811Y5902D01*
X3817Y5912D01*
X3820Y5924D01*
X3821Y5935D01*
X3820Y5947D01*
X3817Y5958D01*
X3811Y5968D01*
X3804Y5977D01*
X3795Y5984D01*
X3785Y5990D01*
X3777Y5992D01*
X3777Y5998D01*
X3780Y5999D01*
X3786Y6004D01*
X3959Y6176D01*
X3963Y6175D01*
D02*
G37*
%LPC*%
G36*
X3955Y6001D02*
X3851D01*
Y5898D01*
X3955D01*
Y6001D01*
D02*
G37*
%LPD*%
D12*
X6452Y5816D02*
D03*
Y5950D02*
D03*
Y5540D02*
D03*
Y5674D02*
D03*
X6956Y5417D02*
D03*
Y5551D02*
D03*
X5281Y5816D02*
D03*
Y5950D02*
D03*
Y5540D02*
D03*
Y5674D02*
D03*
X5785Y5619D02*
D03*
Y5753D02*
D03*
X3903Y5816D02*
D03*
Y5950D02*
D03*
Y5540D02*
D03*
Y5674D02*
D03*
X4597Y5532D02*
D03*
Y5666D02*
D03*
X7435Y6246D02*
D03*
Y6380D02*
D03*
X6029Y6430D02*
D03*
Y6296D02*
D03*
X4643Y6438D02*
D03*
Y6304D02*
D03*
X6316Y6233D02*
D03*
Y6099D02*
D03*
X5092Y6261D02*
D03*
Y6127D02*
D03*
X3706Y6253D02*
D03*
Y6119D02*
D03*
X6740Y5754D02*
D03*
Y5620D02*
D03*
D13*
X3316Y6217D02*
D03*
X3450D02*
D03*
X6699Y6265D02*
D03*
X6565D02*
D03*
X6680Y6143D02*
D03*
X6546D02*
D03*
X7234Y6261D02*
D03*
X7100D02*
D03*
X5320Y6237D02*
D03*
X5186D02*
D03*
X5517Y6143D02*
D03*
X5383D02*
D03*
X5848Y6253D02*
D03*
X5714D02*
D03*
X3943Y6245D02*
D03*
X3809D02*
D03*
X4139Y6150D02*
D03*
X4005D02*
D03*
X4525Y6253D02*
D03*
X4391D02*
D03*
D17*
X6005Y3052D02*
X6053Y3100D01*
X6219D01*
X6227Y3093D01*
X6784D01*
X6791Y3100D01*
X6250Y3150D02*
X6295D01*
X6365Y3220D01*
X3889Y5935D02*
X3898Y5944D01*
X3762Y5935D02*
X3889D01*
X4005Y4910D02*
Y5010D01*
X5777Y4315D02*
Y4520D01*
X5779Y4315D02*
X5877D01*
X5777D02*
X5779D01*
X5878Y4316D02*
Y4414D01*
X5877Y4315D02*
X5878Y4316D01*
X5677Y4315D02*
Y4520D01*
X4597Y5666D02*
X4623Y5640D01*
X4519Y5744D02*
X4597Y5666D01*
X4126Y5649D02*
X4190D01*
X4086Y5674D02*
X4113Y5648D01*
X3903Y5674D02*
X4086D01*
X3877Y5648D02*
X3903Y5674D01*
X3816Y5648D02*
X3877D01*
X3627Y6040D02*
X3706Y6119D01*
X3604Y6040D02*
X3627D01*
X5877Y3715D02*
X5878Y3714D01*
Y3619D02*
Y3714D01*
X6970Y3613D02*
X6977Y3620D01*
X6878Y3524D02*
X6879Y3525D01*
X6970D01*
Y3613D01*
X6977Y3620D02*
Y3715D01*
X6570Y3722D02*
X6577Y3715D01*
X6477Y3615D02*
Y3715D01*
X6751Y4441D02*
X6778Y4414D01*
X3647Y5748D02*
Y5843D01*
X3804Y5827D02*
X3809Y5832D01*
X3903Y5816D02*
X3911Y5824D01*
X3824Y5816D02*
X3903D01*
X3659Y5832D02*
X3809D01*
X3647Y5843D02*
X3659Y5832D01*
X3809D02*
X3824Y5816D01*
X3911Y5824D02*
X4165D01*
X5025Y5843D02*
X5038Y5831D01*
X4170Y5829D02*
X4190Y5849D01*
X5025Y5748D02*
Y5843D01*
X6188Y5728D02*
Y5843D01*
X6200Y5832D02*
X6357D01*
X6436D02*
X6452Y5816D01*
X6482Y5846D01*
X5038Y5831D02*
X5186D01*
X5202Y5816D02*
X5281D01*
X5186Y5831D02*
X5186Y5832D01*
X5281Y5816D02*
X5309Y5844D01*
X5186Y5832D02*
X5202Y5816D01*
X6188Y5843D02*
X6200Y5832D01*
X6357D02*
X6436D01*
X6482Y5846D02*
X6554D01*
X5309Y5844D02*
X5383D01*
X4005Y6044D02*
Y6150D01*
Y6182D02*
X4076Y6253D01*
X4139Y6150D02*
X4242Y6253D01*
X4005Y6150D02*
Y6182D01*
X3647Y5548D02*
X3816D01*
X3714Y6354D02*
X3721Y6360D01*
X3903Y5540D02*
X4175Y5540D01*
X4186Y5545D02*
X4190Y5549D01*
X4276Y6317D02*
X4319Y6360D01*
X4927Y5694D02*
Y5906D01*
X4954Y6064D02*
X4990D01*
X5029D01*
X5194Y5548D02*
X5273D01*
X5281Y5540D01*
X5194Y5648D02*
X5198Y5644D01*
X5281D01*
X5320Y6237D02*
X5320Y6237D01*
Y6229D02*
Y6237D01*
X5517Y6143D02*
Y6155D01*
X6188Y5528D02*
X6208Y5548D01*
X6356Y6149D02*
X6419D01*
X6419Y6150D02*
X6419Y6149D01*
X6444Y5548D02*
X6452Y5540D01*
X6549D01*
X6554Y5546D01*
X6550Y5450D02*
X6554Y5446D01*
X6464Y5646D02*
X6554D01*
X6534Y5426D02*
X6554Y5446D01*
X6684Y6363D02*
X6698Y6349D01*
X3604Y6240D02*
X3617Y6253D01*
X3706D01*
X3801D01*
X3809Y6245D01*
X3706Y6253D02*
X3721Y6268D01*
Y6360D01*
X4276Y6253D02*
X4391D01*
X4276D02*
Y6317D01*
X4242Y6253D02*
X4276D01*
X4927Y5694D02*
X4972Y5648D01*
X4852Y5961D02*
X4954Y6064D01*
X4982Y5961D02*
X5053D01*
X4927Y5906D02*
X4982Y5961D01*
X5277Y3604D02*
Y3715D01*
X5281Y5644D02*
Y5674D01*
X5320Y6237D02*
Y6339D01*
X5163Y6261D02*
X5186Y6237D01*
X5577Y3624D02*
Y3715D01*
X5477Y3614D02*
Y3715D01*
X5517Y6155D02*
X5615Y6253D01*
X5415Y6174D02*
Y6253D01*
X5777Y3619D02*
Y3715D01*
X5697Y6270D02*
Y6360D01*
Y6270D02*
X5714Y6253D01*
X6177Y3619D02*
Y3715D01*
Y4315D02*
X6178Y4414D01*
X6077Y4315D02*
Y4414D01*
X6377Y3614D02*
Y3715D01*
X6419Y6260D02*
X6425Y6266D01*
X6343Y6260D02*
X6419D01*
X6316Y6233D02*
X6343Y6260D01*
X6484Y6262D02*
Y6363D01*
X6482Y6260D02*
X6484Y6262D01*
X6419Y6260D02*
X6482D01*
X6777Y3619D02*
Y3715D01*
X6452Y5674D02*
X6464Y5662D01*
Y5646D02*
Y5662D01*
X6691Y6253D02*
X6698Y6261D01*
X7084Y6277D02*
Y6363D01*
X3816Y5548D02*
X3895D01*
X3903Y5540D01*
X5281D02*
X5379D01*
X5383Y5544D01*
X5025Y5548D02*
X5194D01*
X4972Y5648D02*
X5194D01*
X5383Y6143D02*
X5415Y6174D01*
X5383Y6044D02*
Y6143D01*
X5029Y6064D02*
X5092Y6127D01*
Y6354D02*
X5099Y6360D01*
X6365Y5548D02*
X6444D01*
X6365Y5648D02*
X6426D01*
X6365D02*
X6368Y5646D01*
X6464D01*
X6145Y5631D02*
X6348D01*
X6365Y5648D01*
X6208Y5548D02*
X6365D01*
X6289Y6098D02*
X6356Y6149D01*
X5677Y3619D02*
Y3715D01*
X5377Y3614D02*
Y3715D01*
X5977Y4315D02*
Y4414D01*
X5615Y6253D02*
X5714D01*
X4990Y6264D02*
X5089D01*
X5092Y6261D01*
Y6354D01*
Y6261D02*
X5163D01*
X6277Y3609D02*
Y3715D01*
Y4315D02*
Y4414D01*
X6564Y6260D02*
X6564Y6261D01*
X6482Y6260D02*
X6564D01*
X5053Y5961D02*
X5320Y6229D01*
X6451Y3589D02*
Y3589D01*
X6477Y3615D01*
X6956Y5551D02*
X7032D01*
X7058Y5525D01*
X6956Y5417D02*
X7050D01*
X7058Y5425D01*
X6956Y5417D02*
Y5450D01*
X6375Y5950D02*
X6452D01*
X6357Y5932D02*
X6375Y5950D01*
X6452D02*
X6550D01*
X6554Y5946D01*
X6377Y4315D02*
Y4413D01*
X6378Y4414D01*
X6477Y4315D02*
Y4413D01*
X6478Y4414D01*
X6577Y4315D02*
Y4413D01*
X6578Y4414D01*
X6677Y4315D02*
Y4413D01*
X6678Y4414D01*
X6777Y4315D02*
Y4413D01*
X6778Y4414D01*
X6877Y4315D02*
Y4413D01*
X6878Y4414D01*
X6977Y4315D02*
Y4413D01*
X6978Y4414D01*
X7077Y4315D02*
Y4413D01*
X7078Y4414D01*
X6378D02*
Y4653D01*
X6655Y5765D02*
X6729D01*
X6740Y5754D01*
Y5620D02*
Y5655D01*
X6705Y5690D02*
X6740Y5655D01*
X6655Y5690D02*
X6705D01*
X4905Y5010D02*
Y5075D01*
X5205Y4755D02*
Y4910D01*
X3395Y3955D02*
X3400Y3960D01*
X5577Y4315D02*
Y4520D01*
X6205Y2910D02*
Y3010D01*
X3943Y6203D02*
Y6245D01*
X3765Y6025D02*
X3943Y6203D01*
X3715Y6025D02*
X3765D01*
X3520Y5830D02*
X3715Y6025D01*
X3520Y5670D02*
Y5830D01*
Y5670D02*
X3542Y5648D01*
X3816D01*
X3943Y6245D02*
Y6338D01*
X3921Y6360D02*
X3943Y6338D01*
X4519Y6259D02*
X4525Y6253D01*
X4519Y6259D02*
Y6360D01*
X4575Y6304D01*
X4643D01*
X5205Y5950D02*
X5281D01*
X5186Y5932D02*
X5205Y5950D01*
X5286Y5944D02*
X5383D01*
X5281Y5950D02*
X5286Y5944D01*
X3450Y6217D02*
Y6344D01*
X3471Y6365D01*
X3316Y6217D02*
Y6320D01*
X3271Y6365D02*
X3316Y6320D01*
X4667Y6414D02*
X4797D01*
X4643Y6438D02*
X4667Y6414D01*
X4643Y6304D02*
X4733Y6214D01*
X4797D01*
X6045Y6414D02*
X6175D01*
X6029Y6430D02*
X6045Y6414D01*
X6029Y6296D02*
X6093D01*
X6125Y6264D01*
X5897Y6360D02*
X5965D01*
X6029Y6296D01*
X5897Y6302D02*
Y6360D01*
X5848Y6253D02*
X5897Y6302D01*
X6546Y6054D02*
Y6143D01*
Y6054D02*
X6554Y6046D01*
X6680Y6143D02*
X6953D01*
X7014Y6204D01*
Y6267D01*
X5408Y3545D02*
X5489Y3464D01*
X5342Y3545D02*
X5408D01*
X5332Y3535D02*
X5342Y3545D01*
X4975Y3535D02*
X5332D01*
X5489Y3464D02*
X5575D01*
X6365Y3220D02*
X7110D01*
X7480Y3590D01*
X6570Y3722D02*
Y3865D01*
X3898Y5944D02*
X4190D01*
X5281Y5644D02*
X5383D01*
X4005Y6044D02*
X4185D01*
X4190Y6049D01*
X5800Y3310D02*
X5875D01*
X5978Y3413D01*
Y3524D01*
Y3413D02*
X6263D01*
X6278Y3428D01*
Y3519D01*
X6657Y3413D02*
X6678Y3434D01*
Y3524D01*
X6080Y5495D02*
Y5566D01*
X6145Y5631D01*
X6080Y5975D02*
X6245Y6140D01*
X6080Y5566D02*
Y5975D01*
X6125Y6190D02*
Y6264D01*
X6698Y6261D02*
Y6349D01*
X7435Y6380D02*
X7615D01*
X7625Y6390D01*
X7234Y6261D02*
X7261D01*
X7284Y6284D01*
Y6363D01*
X7300Y6380D01*
X7435D01*
X4195Y4345D02*
X4203D01*
X4213Y4335D01*
X4290D01*
X4335Y4290D01*
X4590D01*
X4970Y4105D02*
X5210Y3865D01*
X6570D01*
X5277Y4197D02*
Y4315D01*
X5155Y4075D02*
X5277Y4197D01*
X4800Y3500D02*
Y3755D01*
Y3500D02*
X4945Y3355D01*
X5420D01*
X5595Y3180D01*
X6185D01*
X6335Y3330D01*
X6263Y3413D02*
X6657D01*
X6335Y3330D02*
X6345Y3320D01*
X6360D01*
X6378Y4653D02*
X6500Y4775D01*
X6694Y5371D02*
X6730Y5335D01*
X6517Y5371D02*
X6694D01*
X6080Y5495D02*
X6125Y5450D01*
X6438D01*
X6517Y5371D01*
X7480Y3590D02*
Y4555D01*
X6786Y5249D02*
X7480Y4555D01*
X6786Y5249D02*
Y5358D01*
X6655Y5490D02*
Y5615D01*
Y5490D02*
X6786Y5358D01*
X6751Y4441D02*
Y5106D01*
X7058Y5087D02*
X7105Y5040D01*
X7058Y5087D02*
Y5425D01*
X7177Y4315D02*
Y4414D01*
X6484Y4074D02*
X7104D01*
X7285Y4255D01*
X5405Y4742D02*
Y4910D01*
X5105Y4655D02*
X5120Y4640D01*
Y4535D02*
Y4640D01*
X5153Y4455D02*
X5200Y4502D01*
Y4537D01*
X5105Y4655D02*
X5205Y4755D01*
X5200Y4537D02*
X5405Y4742D01*
X5054Y4676D02*
X5105Y4727D01*
Y4910D01*
X5054Y4551D02*
X5055Y4550D01*
X5054Y4551D02*
Y4676D01*
X4970Y4105D02*
Y4272D01*
X5153Y4455D01*
X5153D01*
X6881Y5069D02*
X6891D01*
X7285Y4675D01*
Y4255D02*
Y4675D01*
X4852Y5568D02*
Y5961D01*
Y5568D02*
X4975Y5444D01*
X5383D01*
X6500Y4775D02*
Y5021D01*
X4905Y5075D02*
X4915Y5085D01*
X6436D02*
X6500Y5021D01*
X6678Y4414D02*
Y4915D01*
X6670Y5187D02*
X6751Y5106D01*
X5110Y5205D02*
X5128Y5187D01*
X6711Y5239D02*
X6881Y5069D01*
X5410Y5250D02*
X5421Y5239D01*
X5330Y5250D02*
X5410D01*
X5008Y5142D02*
X5014Y5136D01*
X6457D02*
X6678Y4915D01*
X4915Y5085D02*
X6436D01*
X5014Y5136D02*
X6457D01*
X5128Y5187D02*
X6670D01*
X5421Y5239D02*
X6711D01*
X7014Y6267D02*
X7074D01*
X7084Y6277D01*
X5683Y5944D02*
Y6044D01*
Y5944D02*
X5756D01*
X5785Y5915D01*
Y5753D02*
Y5915D01*
X5776Y5744D02*
X5785Y5753D01*
X5683Y5744D02*
X5776D01*
X4490Y5949D02*
Y6049D01*
Y5949D02*
X4594D01*
X4658Y5885D01*
Y5681D02*
Y5885D01*
Y5681D02*
X4699Y5640D01*
X4623D02*
X4699D01*
X4147Y6367D02*
Y6377D01*
X6077Y3614D02*
Y3715D01*
X6578Y3619D02*
X6677D01*
Y3715D01*
X5299Y6360D02*
X5320Y6339D01*
X3921Y6360D02*
Y6480D01*
X4419Y6535D02*
X4429Y6545D01*
X4419Y6360D02*
Y6535D01*
X6419Y6060D02*
Y6150D01*
X6225Y6140D02*
X6245D01*
X6378Y4414D02*
X6478D01*
X6578D01*
D18*
X3627Y2969D02*
G03*
X3627Y2969I-118J0D01*
G01*
X3706D02*
G03*
X3706Y2969I-197J0D01*
G01*
X3627Y5095D02*
G03*
X3627Y5095I-118J0D01*
G01*
X3706D02*
G03*
X3706Y5095I-197J0D01*
G01*
X7643Y2969D02*
G03*
X7643Y2969I-197J0D01*
G01*
X7564D02*
G03*
X7564Y2969I-118J0D01*
G01*
Y5095D02*
G03*
X7564Y5095I-118J0D01*
G01*
X7643D02*
G03*
X7643Y5095I-197J0D01*
G01*
X5505Y3010D02*
Y3060D01*
X5330Y3235D02*
X5505Y3060D01*
X5055Y3235D02*
X5330D01*
X3794Y6260D02*
X3809Y6245D01*
X5299Y6259D02*
X5320Y6237D01*
X5382Y5446D02*
X5383Y5444D01*
X6408Y3546D02*
X6451Y3589D01*
X5978Y3619D02*
X6078Y3524D01*
X5878D02*
Y3619D01*
X4835Y4805D02*
X4920D01*
X4805Y4835D02*
X4835Y4805D01*
X4805Y4835D02*
Y4910D01*
X4715Y5020D02*
Y5250D01*
X4705Y5010D02*
X4715Y5020D01*
X3915Y5145D02*
X4365D01*
X4405Y5105D01*
Y5010D02*
Y5105D01*
X3900Y3360D02*
X3968Y3428D01*
Y3723D02*
X3970Y3725D01*
X3968Y3428D02*
Y3723D01*
X3400Y3960D02*
Y4255D01*
X3940Y4182D02*
Y4190D01*
X3911Y4220D02*
X3940Y4190D01*
X3895Y4220D02*
X3911D01*
X3850Y4265D02*
X3895Y4220D01*
X3920Y4550D02*
X3930Y4560D01*
X4205Y4056D02*
X4208Y4059D01*
X4205Y4055D02*
Y4056D01*
X3965Y3975D02*
X4185D01*
X3905Y4035D02*
X3965Y3975D01*
X3910Y4290D02*
X3914D01*
X3530Y3570D02*
X3728Y3768D01*
Y4489D01*
X3850Y4265D02*
Y4345D01*
X3950Y4445D01*
X3914Y4290D02*
X3924Y4280D01*
X4185D01*
X3950Y4445D02*
X4003Y4392D01*
X4185Y4280D02*
X4255Y4210D01*
X4575D01*
X3930Y4560D02*
X4190D01*
X4385Y4615D02*
X4390D01*
X4230Y4376D02*
X4599D01*
X4214Y4392D02*
X4230Y4376D01*
X4003Y4392D02*
X4214D01*
X4200Y4475D02*
X4225D01*
X4240Y4490D01*
X4630D01*
X4690Y4550D01*
X4755D01*
X4190Y4560D02*
X4205Y4545D01*
X4595D01*
X6135Y5370D02*
X6190Y5315D01*
X5895Y5370D02*
X6135D01*
X3845Y5075D02*
X3915Y5145D01*
X3845Y4751D02*
Y5075D01*
X3758Y4664D02*
X3845Y4751D01*
X3728Y4489D02*
X3758Y4519D01*
Y4664D01*
X4920Y4805D02*
X5010Y4715D01*
X4390Y4615D02*
X4482Y4707D01*
X4564D01*
X4606Y4665D01*
X4685D01*
X4415Y4080D02*
X4425Y4090D01*
X4510D01*
X4185Y3975D02*
X4490D01*
X4520Y3945D01*
X5540Y4115D02*
Y4278D01*
X5577Y4315D01*
D19*
X3375Y3455D02*
X3445Y3385D01*
X3360Y3450D02*
X3370D01*
X3375Y3455D01*
X5820Y3800D02*
X5877Y3743D01*
Y3715D02*
Y3743D01*
X6877Y3619D02*
Y3715D01*
Y3748D01*
X3360Y3450D02*
Y3610D01*
X4875Y4735D02*
X4985Y4625D01*
X3505Y5400D02*
X3550D01*
X4500Y3780D02*
X4850Y4130D01*
X3820Y3780D02*
X4500D01*
X5770Y4315D02*
X5779D01*
X6705Y3920D02*
X6877Y3748D01*
X3625Y4800D02*
X3655Y4830D01*
X3625Y4580D02*
Y4800D01*
X3610Y4405D02*
X3701Y4496D01*
Y4501D01*
X5020Y4120D02*
X5220Y3920D01*
X6705D01*
X3805Y4645D02*
X3900Y4740D01*
X4600D01*
X4505Y4910D02*
X4850Y4565D01*
X3550Y5400D02*
X3670Y5280D01*
X3760D01*
X3355Y3170D02*
Y3180D01*
X3445Y3270D01*
Y3385D01*
X4153Y5272D02*
X4612D01*
X3720Y5370D02*
X3743Y5347D01*
X3965Y5249D02*
X4639D01*
X3701Y4501D02*
X3731Y4531D01*
Y4676D01*
X3810Y4755D01*
Y5093D01*
X3965Y5249D01*
X3743Y5347D02*
X3917D01*
X3927Y5358D01*
X4067D01*
X4153Y5272D01*
X5345Y4735D02*
Y4835D01*
X5163Y4517D02*
Y4552D01*
X5345Y4735D01*
X5410Y4625D02*
X6090D01*
X5020Y4120D02*
Y4269D01*
X5486Y4735D01*
X5138Y4492D02*
X5163Y4517D01*
X4985Y4560D02*
Y4625D01*
Y4560D02*
X5052Y4492D01*
X5138D01*
X5440Y4075D02*
X5475Y4040D01*
X5640Y4185D02*
X5770Y4315D01*
X5640Y4123D02*
Y4185D01*
X5475Y4040D02*
X5557D01*
X5640Y4123D01*
X4850Y3855D02*
Y4565D01*
Y3855D02*
X4905Y3800D01*
X5820D01*
X4605Y4910D02*
X4910Y4605D01*
Y3980D02*
Y4605D01*
Y3980D02*
X4950Y3940D01*
X5075Y4125D02*
Y4290D01*
X5410Y4625D01*
X4612Y5272D02*
X4705Y5365D01*
X5430D01*
X4639Y5249D02*
X4728Y5338D01*
X5455Y5390D02*
X5490D01*
X5430Y5365D02*
X5455Y5390D01*
X5578Y5338D02*
X5595Y5320D01*
X6110D01*
X4728Y5338D02*
X5578D01*
X4895Y5265D02*
X5155D01*
X5185Y5295D01*
X5560D01*
X6205Y4815D02*
Y4910D01*
X5486Y4735D02*
X6125D01*
X6205Y4815D01*
X6090Y4625D02*
X6290Y4825D01*
D20*
X7435Y6246D02*
X7491Y6190D01*
X7625D01*
D21*
X7184Y6363D02*
Y6509D01*
X7195Y6520D01*
X6911Y6367D02*
Y6514D01*
X6677Y6358D02*
Y6518D01*
X5797Y6360D02*
Y6457D01*
Y6545D01*
X7740Y4635D02*
Y5335D01*
X7675Y4570D02*
X7740Y4635D01*
D22*
X4495Y5544D02*
X4499Y5540D01*
X6860Y5546D02*
X6956Y5450D01*
X6854Y5546D02*
X6860D01*
X4035Y3480D02*
Y3725D01*
Y3480D02*
X4065Y3450D01*
X5683Y5544D02*
X5710D01*
X5793Y5627D02*
X5887D01*
X5710Y5544D02*
X5785Y5619D01*
X5793Y5627D01*
X3230Y4495D02*
X3565D01*
X3964Y4063D02*
Y4076D01*
X3600Y4530D02*
X3670D01*
X3565Y4495D02*
X3600Y4530D01*
X4019Y4445D02*
X4075D01*
X3970Y4494D02*
X4019Y4445D01*
X4670D02*
X4755D01*
X4800Y4400D01*
X4670Y4170D02*
X4705D01*
X4800Y4265D01*
Y4400D01*
X4075Y4170D02*
X4546D01*
X4555Y4161D01*
X4595D01*
X4604Y4170D01*
X4670D01*
X4075Y4445D02*
X4151D01*
X4249D02*
X4670D01*
X4151D02*
X4170Y4426D01*
X4230D01*
X4249Y4445D01*
X5887Y5626D02*
Y5627D01*
X6107Y5407D02*
X6420D01*
X6499Y5328D01*
X6567D01*
X6585Y5310D01*
X5887Y5626D02*
X6107Y5407D01*
X4499Y5540D02*
X4699D01*
X4695Y5465D02*
Y5540D01*
X4545Y5315D02*
X4695Y5465D01*
X4515Y5315D02*
X4545D01*
X3780Y4260D02*
X3964Y4076D01*
X3780Y4260D02*
Y4390D01*
X3884Y4494D01*
X3970D01*
X3760Y5130D02*
X3945Y5315D01*
X3760Y4790D02*
Y5130D01*
X3705Y4735D02*
X3760Y4790D01*
D24*
X3520Y3715D02*
X3595Y3790D01*
X3520Y3715D02*
X3525Y3710D01*
Y3640D02*
Y3710D01*
D25*
X6225Y6320D02*
X6425Y6520D01*
X7195D01*
X5311Y6360D02*
X5423Y6472D01*
X5525Y6367D02*
Y6459D01*
X5423Y6472D02*
X5512D01*
Y6545D02*
X5797D01*
X5475Y6509D02*
X5512Y6545D01*
X5475Y6509D02*
X5525Y6459D01*
X3921Y6480D02*
X3986Y6545D01*
X4183D01*
Y6403D02*
Y6545D01*
X4147Y6367D02*
X4183Y6403D01*
Y6545D02*
X4429D01*
D26*
X7537Y5965D02*
G03*
X7536Y5976I-40J0D01*
G01*
X7457Y5808D02*
G03*
X7537Y5808I40J0D01*
G01*
X7536Y5976D02*
G03*
X7457Y5965I-39J-11D01*
G01*
Y5415D02*
G03*
X7497Y5375I40J0D01*
G01*
D02*
G03*
X7537Y5415I0J40D01*
G01*
Y5572D02*
G03*
X7457Y5572I-40J0D01*
G01*
D27*
X3509Y2969D02*
D03*
Y5095D02*
D03*
X7446Y2969D02*
D03*
Y5095D02*
D03*
D28*
X3604Y6240D02*
D03*
Y6040D02*
D03*
X6419Y6260D02*
D03*
Y6060D02*
D03*
X4990Y6264D02*
D03*
Y6064D02*
D03*
X3647Y5748D02*
D03*
Y5548D02*
D03*
X6188Y5728D02*
D03*
Y5528D02*
D03*
X4276Y6253D02*
D03*
X4076D02*
D03*
X5025Y5748D02*
D03*
Y5548D02*
D03*
X5383Y5444D02*
D03*
Y5544D02*
D03*
Y5644D02*
D03*
Y5744D02*
D03*
Y5844D02*
D03*
Y5944D02*
D03*
X5683Y5444D02*
D03*
Y5544D02*
D03*
Y5644D02*
D03*
Y5844D02*
D03*
X5383Y6044D02*
D03*
X5683Y5744D02*
D03*
Y6044D02*
D03*
Y5944D02*
D03*
X5615Y6253D02*
D03*
X5415D02*
D03*
X6554Y5446D02*
D03*
Y5546D02*
D03*
Y5646D02*
D03*
Y5746D02*
D03*
Y5846D02*
D03*
Y5946D02*
D03*
X6854Y5446D02*
D03*
Y5546D02*
D03*
Y5646D02*
D03*
Y5846D02*
D03*
X6554Y6046D02*
D03*
X6854Y5746D02*
D03*
Y6046D02*
D03*
Y5946D02*
D03*
X7014Y6267D02*
D03*
X6814D02*
D03*
X4797Y6214D02*
D03*
X4190Y5449D02*
D03*
Y5549D02*
D03*
Y5649D02*
D03*
Y5749D02*
D03*
Y5849D02*
D03*
Y5949D02*
D03*
X4490Y5449D02*
D03*
Y5549D02*
D03*
Y5649D02*
D03*
Y5849D02*
D03*
X4190Y6049D02*
D03*
X4490Y5749D02*
D03*
Y6049D02*
D03*
Y5949D02*
D03*
X7600Y6390D02*
D03*
X6577Y4315D02*
D03*
X6877D02*
D03*
X7177D02*
D03*
Y3715D02*
D03*
X6877D02*
D03*
X6577D02*
D03*
X5377Y4315D02*
D03*
X5677D02*
D03*
X5977D02*
D03*
X6277D02*
D03*
Y3715D02*
D03*
X5977D02*
D03*
X5677D02*
D03*
X5377D02*
D03*
X7077Y4315D02*
D03*
X6977D02*
D03*
Y3715D02*
D03*
X7077D02*
D03*
X6777Y4315D02*
D03*
X6677D02*
D03*
Y3715D02*
D03*
X6777D02*
D03*
X6477Y4315D02*
D03*
X6377D02*
D03*
Y3715D02*
D03*
X6477D02*
D03*
X6177Y4315D02*
D03*
X6077D02*
D03*
Y3715D02*
D03*
X6177D02*
D03*
X5877Y4315D02*
D03*
X5777D02*
D03*
Y3715D02*
D03*
X5877D02*
D03*
X5577Y4315D02*
D03*
X5477D02*
D03*
Y3715D02*
D03*
X5577D02*
D03*
X5277Y4315D02*
D03*
Y3715D02*
D03*
X6130Y6225D02*
D03*
X3471Y6365D02*
D03*
D29*
X5575Y2795D02*
D03*
Y3464D02*
D03*
X7150Y2795D02*
D03*
Y3464D02*
D03*
X3800Y2795D02*
D03*
Y3464D02*
D03*
X5375Y2795D02*
D03*
Y3464D02*
D03*
D30*
X6765Y2880D02*
D03*
X6665D02*
D03*
X3668Y3293D02*
D03*
Y3193D02*
D03*
X4695Y5640D02*
D03*
Y5540D02*
D03*
X5887Y5727D02*
D03*
Y5627D02*
D03*
X5186Y5932D02*
D03*
Y5832D02*
D03*
X6357Y5932D02*
D03*
Y5832D02*
D03*
X6365Y5648D02*
D03*
Y5548D02*
D03*
X3816Y5648D02*
D03*
Y5548D02*
D03*
X3762Y5935D02*
D03*
Y5835D02*
D03*
X7058Y5525D02*
D03*
Y5425D02*
D03*
X3230Y4695D02*
D03*
Y4895D02*
D03*
Y4795D02*
D03*
Y4595D02*
D03*
Y4995D02*
D03*
X7675Y4270D02*
D03*
Y4470D02*
D03*
Y4370D02*
D03*
Y4170D02*
D03*
Y4570D02*
D03*
X5185Y5650D02*
D03*
Y5550D02*
D03*
X3250Y3450D02*
D03*
Y3650D02*
D03*
Y3750D02*
D03*
Y3350D02*
D03*
Y3550D02*
D03*
D31*
X6405Y5010D02*
D03*
Y4910D02*
D03*
X6305Y5010D02*
D03*
Y4910D02*
D03*
X6205Y5010D02*
D03*
Y4910D02*
D03*
X5905Y5010D02*
D03*
Y4910D02*
D03*
X5505Y5010D02*
D03*
Y4910D02*
D03*
X5405Y5010D02*
D03*
Y4910D02*
D03*
X5305Y5010D02*
D03*
Y4910D02*
D03*
X5205Y5010D02*
D03*
Y4910D02*
D03*
X5105Y5010D02*
D03*
Y4910D02*
D03*
X5005Y5010D02*
D03*
Y4910D02*
D03*
X4905Y5010D02*
D03*
Y4910D02*
D03*
X4305Y5010D02*
D03*
Y4910D02*
D03*
X4205Y5010D02*
D03*
Y4910D02*
D03*
X4105Y5010D02*
D03*
Y4910D02*
D03*
X4005Y5010D02*
D03*
Y4910D02*
D03*
X6405Y3010D02*
D03*
Y2910D02*
D03*
X6305Y3010D02*
D03*
Y2910D02*
D03*
X6205Y3010D02*
D03*
Y2910D02*
D03*
X6105Y3010D02*
D03*
Y2910D02*
D03*
X6005Y3010D02*
D03*
Y2910D02*
D03*
X5905Y3010D02*
D03*
Y2910D02*
D03*
X5805Y3010D02*
D03*
Y2910D02*
D03*
X5705Y3010D02*
D03*
Y2910D02*
D03*
X5605Y3010D02*
D03*
Y2910D02*
D03*
X5205Y3010D02*
D03*
Y2910D02*
D03*
X5105Y3010D02*
D03*
Y2910D02*
D03*
X5005Y3010D02*
D03*
Y2910D02*
D03*
X4905Y3010D02*
D03*
Y2910D02*
D03*
X4805Y3010D02*
D03*
Y2910D02*
D03*
X4705Y3010D02*
D03*
Y2910D02*
D03*
X4605Y3010D02*
D03*
Y2910D02*
D03*
X4505Y3010D02*
D03*
Y2910D02*
D03*
X4405Y3010D02*
D03*
Y2910D02*
D03*
X4305Y3010D02*
D03*
Y2910D02*
D03*
X4205Y3010D02*
D03*
Y2910D02*
D03*
X4105Y3010D02*
D03*
Y2910D02*
D03*
X4005Y3010D02*
D03*
Y2910D02*
D03*
D32*
X6105Y5010D02*
D03*
Y4910D02*
D03*
X6005Y5010D02*
D03*
Y4910D02*
D03*
X5805Y5010D02*
D03*
Y4910D02*
D03*
X5705Y5010D02*
D03*
Y4910D02*
D03*
X5605Y5010D02*
D03*
Y4910D02*
D03*
X4805Y5010D02*
D03*
Y4910D02*
D03*
X4705Y5010D02*
D03*
Y4910D02*
D03*
X4605Y5010D02*
D03*
Y4910D02*
D03*
X4505Y5010D02*
D03*
Y4910D02*
D03*
X4405Y5010D02*
D03*
Y4910D02*
D03*
X5505Y3010D02*
D03*
Y2910D02*
D03*
X5405Y3010D02*
D03*
Y2910D02*
D03*
X5305Y3010D02*
D03*
Y2910D02*
D03*
D33*
X5278Y4409D02*
D03*
X5578Y4414D02*
D03*
X5478D02*
D03*
X5577Y4520D02*
D03*
X5477D02*
D03*
X5878Y3504D02*
D03*
Y4414D02*
D03*
X5778D02*
D03*
X5777Y4520D02*
D03*
X5877D02*
D03*
X6078Y3504D02*
D03*
Y4414D02*
D03*
X6178D02*
D03*
X6378Y3519D02*
D03*
X6478D02*
D03*
Y4414D02*
D03*
X6378D02*
D03*
X6678Y3504D02*
D03*
X6778D02*
D03*
X6678Y4414D02*
D03*
X6778D02*
D03*
X7078D02*
D03*
X6978D02*
D03*
X5278Y3619D02*
D03*
X5578D02*
D03*
X5478D02*
D03*
X5878D02*
D03*
X5778D02*
D03*
X6178D02*
D03*
X6078D02*
D03*
X6378D02*
D03*
X6478D02*
D03*
X6778D02*
D03*
X6678D02*
D03*
X7078D02*
D03*
X6978D02*
D03*
X7740Y5335D02*
D03*
Y5864D02*
D03*
X5978Y3504D02*
D03*
Y4414D02*
D03*
X5678D02*
D03*
X5378Y4409D02*
D03*
X5677Y4520D02*
D03*
X6278Y3519D02*
D03*
X6878Y3504D02*
D03*
X7178Y4414D02*
D03*
X6578D02*
D03*
X6878D02*
D03*
X6278D02*
D03*
X4319Y6360D02*
D03*
X4419D02*
D03*
X4519D02*
D03*
X5678Y3619D02*
D03*
X5378D02*
D03*
X5978D02*
D03*
X5697Y6360D02*
D03*
X5797D02*
D03*
X5897D02*
D03*
X5099D02*
D03*
X5199D02*
D03*
X5299D02*
D03*
X5525Y6367D02*
D03*
X7178Y3619D02*
D03*
X6878D02*
D03*
X6578D02*
D03*
X6278D02*
D03*
X6477Y6358D02*
D03*
X6577D02*
D03*
X6677D02*
D03*
X6911Y6367D02*
D03*
X3721Y6360D02*
D03*
X3821D02*
D03*
X3921D02*
D03*
X4147Y6367D02*
D03*
X7084Y6363D02*
D03*
X7184D02*
D03*
X7284D02*
D03*
X5018Y5848D02*
D03*
X6188Y5843D02*
D03*
D34*
X4797Y6414D02*
D03*
X7600Y6190D02*
D03*
X6130Y6425D02*
D03*
D35*
X7497Y5493D02*
D03*
Y5887D02*
D03*
D36*
X6655Y5690D02*
D03*
Y5765D02*
D03*
Y5615D02*
D03*
D37*
X3230Y4495D02*
D03*
X7675Y4070D02*
D03*
X3250Y3250D02*
D03*
D38*
X3271Y6365D02*
D03*
D39*
X3225Y4155D02*
D03*
Y4055D02*
D03*
Y4355D02*
D03*
Y4255D02*
D03*
D40*
X3396Y4429D02*
D03*
X6791Y3100D02*
D03*
X6250Y3150D02*
D03*
X3360Y3450D02*
D03*
X3355Y3170D02*
D03*
X3820Y3780D02*
D03*
X5055Y3235D02*
D03*
X4075Y4170D02*
D03*
X4670D02*
D03*
X4075Y4445D02*
D03*
X4670D02*
D03*
X5008Y5142D02*
D03*
X3905Y4035D02*
D03*
X3900Y3360D02*
D03*
X4715Y5250D02*
D03*
X3360Y3610D02*
D03*
X3970Y3725D02*
D03*
X4875Y4735D02*
D03*
X5345Y4835D02*
D03*
X6110Y5320D02*
D03*
X3805Y4645D02*
D03*
X3655Y4830D02*
D03*
X4895Y5265D02*
D03*
X3505Y5400D02*
D03*
X3400Y4255D02*
D03*
X3395Y3955D02*
D03*
X3530Y3570D02*
D03*
X3595Y3790D02*
D03*
X3525Y3640D02*
D03*
X3964Y4063D02*
D03*
X4035Y3725D02*
D03*
X4065Y3450D02*
D03*
X4975Y3535D02*
D03*
X3940Y4182D02*
D03*
X3920Y4550D02*
D03*
X4599Y4376D02*
D03*
X3855Y5390D02*
D03*
X5800Y3310D02*
D03*
X4205Y4055D02*
D03*
X4185Y3975D02*
D03*
X3625Y4580D02*
D03*
X3610Y4405D02*
D03*
X4185Y4280D02*
D03*
X3910Y4290D02*
D03*
X3950Y4445D02*
D03*
X3670Y4530D02*
D03*
X6730Y5335D02*
D03*
X4375Y5730D02*
D03*
X4195Y4345D02*
D03*
X4575Y4210D02*
D03*
X4590Y4290D02*
D03*
X4190Y4560D02*
D03*
X5155Y4075D02*
D03*
X4800Y3755D02*
D03*
X6360Y3320D02*
D03*
X4385Y4615D02*
D03*
X4600Y4740D02*
D03*
X4685Y4665D02*
D03*
X4200Y4475D02*
D03*
X4755Y4550D02*
D03*
X4595Y4545D02*
D03*
X6580Y4930D02*
D03*
X4750Y4290D02*
D03*
X6585Y5310D02*
D03*
X6190Y5315D02*
D03*
X5895Y5370D02*
D03*
X6825Y4945D02*
D03*
X7105Y5040D02*
D03*
X4515Y5315D02*
D03*
X3720Y5370D02*
D03*
X3760Y5280D02*
D03*
X3780Y4390D02*
D03*
X3955Y5315D02*
D03*
X3705Y4735D02*
D03*
X5110Y5205D02*
D03*
X5440Y4075D02*
D03*
X6484Y4074D02*
D03*
X5690Y4125D02*
D03*
X5160Y4180D02*
D03*
X5055Y4550D02*
D03*
X5120Y4535D02*
D03*
X5010Y4715D02*
D03*
X4545Y4660D02*
D03*
X4415Y4080D02*
D03*
X4510Y4090D02*
D03*
X4520Y3945D02*
D03*
X4760Y3900D02*
D03*
X5540Y4115D02*
D03*
X4950Y3940D02*
D03*
X5075Y4125D02*
D03*
X6350Y4130D02*
D03*
X4840Y5415D02*
D03*
X5490Y5390D02*
D03*
X5330Y5250D02*
D03*
X5560Y5295D02*
D03*
X6290Y4825D02*
D03*
D41*
X7537Y5415D02*
Y5453D01*
Y5808D02*
Y5864D01*
Y5878D01*
Y5887D01*
X7457Y5808D02*
Y5887D01*
Y5965D01*
X7537Y5887D02*
Y5965D01*
X7457Y5453D02*
Y5493D01*
Y5533D02*
Y5572D01*
X7537Y5453D02*
Y5493D01*
X7457Y5415D02*
Y5453D01*
Y5493D02*
Y5533D01*
X7537Y5493D02*
Y5572D01*
D42*
X6225Y6140D02*
Y6320D01*
M02*
