G04 Layer_Color=65535*
%FSLAX23Y23*%
%MOIN*%
G70*
G01*
G75*
%ADD26C,0.004*%
%ADD43C,0.010*%
%ADD44C,0.008*%
D26*
X3509Y2969D02*
Y5095D01*
X7446Y2969D02*
Y5095D01*
X3509D02*
X7446D01*
X3509Y2969D02*
X7446D01*
D43*
X6815Y2880D02*
G03*
X6815Y2880I-100J0D01*
G01*
X3767Y3243D02*
G03*
X3767Y3243I-100J0D01*
G01*
X4795Y5590D02*
G03*
X4795Y5590I-100J0D01*
G01*
X4488Y7010D02*
G03*
X4488Y7010I-69J0D01*
G01*
X5987Y5677D02*
G03*
X5987Y5677I-100J0D01*
G01*
X5286Y5882D02*
G03*
X5286Y5882I-100J0D01*
G01*
X5866Y7010D02*
G03*
X5866Y7010I-69J0D01*
G01*
X5267D02*
G03*
X5267Y7010I-69J0D01*
G01*
X6457Y5882D02*
G03*
X6457Y5882I-100J0D01*
G01*
X6465Y5598D02*
G03*
X6465Y5598I-100J0D01*
G01*
X6645Y7008D02*
G03*
X6645Y7008I-69J0D01*
G01*
X4797Y6464D02*
G03*
X4797Y6164I0J-150D01*
G01*
D02*
G03*
X4797Y6464I0J150D01*
G01*
X7600Y6140D02*
G03*
X7600Y6440I0J150D01*
G01*
D02*
G03*
X7600Y6140I0J-150D01*
G01*
X3916Y5598D02*
G03*
X3916Y5598I-100J0D01*
G01*
X3862Y5885D02*
G03*
X3862Y5885I-100J0D01*
G01*
X3889Y7010D02*
G03*
X3889Y7010I-69J0D01*
G01*
X7158Y5475D02*
G03*
X7158Y5475I-100J0D01*
G01*
X7252Y7013D02*
G03*
X7252Y7013I-69J0D01*
G01*
X6130Y6475D02*
G03*
X6130Y6175I0J-150D01*
G01*
D02*
G03*
X6130Y6475I0J150D01*
G01*
X3521Y6365D02*
G03*
X3221Y6365I-150J0D01*
G01*
D02*
G03*
X3521Y6365I150J0D01*
G01*
X5285Y5600D02*
G03*
X5285Y5600I-100J0D01*
G01*
X4690Y4480D02*
X4854D01*
Y4682D01*
X4690D02*
X4854D01*
X4690Y4480D02*
Y4682D01*
Y4200D02*
X4854D01*
Y4402D01*
X4690D02*
X4854D01*
X4690Y4200D02*
Y4402D01*
Y3920D02*
X4854D01*
Y4122D01*
X4690D02*
X4854D01*
X4690Y3920D02*
Y4122D01*
X3480Y3645D02*
X3644D01*
Y3847D01*
X3480D02*
X3644D01*
X3480Y3645D02*
Y3847D01*
Y3420D02*
X3644D01*
Y3622D01*
X3480D02*
X3644D01*
X3480Y3420D02*
Y3622D01*
X3597Y5698D02*
X3697D01*
X3647Y5598D02*
X3697Y5698D01*
X3597D02*
X3647Y5598D01*
X3597D02*
X3697D01*
X6138Y5678D02*
X6238D01*
X6188Y5578D02*
X6238Y5678D01*
X6138D02*
X6188Y5578D01*
X6138D02*
X6238D01*
X4330Y6389D02*
Y6538D01*
X4309Y6389D02*
Y6538D01*
X4212Y6538D02*
X4625D01*
X4212Y6538D02*
Y7128D01*
X4210Y6873D02*
X4625D01*
X4212Y7128D02*
X4625D01*
X4318Y7010D02*
X4525D01*
X4431Y6389D02*
Y6538D01*
X4409Y6389D02*
Y6538D01*
X4509Y6389D02*
Y6538D01*
X4531Y6389D02*
Y6538D01*
X4417Y7010D02*
X4419D01*
Y6922D02*
Y7095D01*
X4625Y6538D02*
Y7128D01*
X4533Y7129D02*
X4541D01*
X4543D01*
X4226Y6203D02*
Y6303D01*
X4126Y6253D02*
X4226Y6203D01*
X4126Y6253D02*
X4226Y6303D01*
X4126Y6203D02*
Y6303D01*
X4975Y5698D02*
X5075D01*
X5025Y5598D02*
X5075Y5698D01*
X4975D02*
X5025Y5598D01*
X4975D02*
X5075D01*
X5333Y5394D02*
Y6094D01*
Y5394D02*
X5733D01*
X5333Y6094D02*
X5733D01*
Y5394D02*
Y6094D01*
X5708Y6389D02*
Y6538D01*
X5686Y6389D02*
Y6538D01*
X5590Y6538D02*
X6003D01*
X5590Y6538D02*
Y7128D01*
X5588Y6873D02*
X6003D01*
X5590Y7128D02*
X6003D01*
X5696Y7010D02*
X5903D01*
X5809Y6389D02*
Y6538D01*
X5787Y6389D02*
Y6538D01*
X5887Y6389D02*
Y6538D01*
X5909Y6389D02*
Y6538D01*
X5795Y7010D02*
X5797D01*
Y6922D02*
Y7095D01*
X6003Y6538D02*
Y7128D01*
X5911Y7129D02*
X5919D01*
X5921D01*
X5110Y6389D02*
Y6538D01*
X5088Y6389D02*
Y6538D01*
X4992Y6538D02*
X5405D01*
X4992Y6538D02*
Y7128D01*
X4990Y6873D02*
X5405D01*
X4992Y7128D02*
X5405D01*
X5098Y7010D02*
X5305D01*
X5210Y6389D02*
Y6538D01*
X5188Y6389D02*
Y6538D01*
X5289Y6389D02*
Y6538D01*
X5311Y6389D02*
Y6538D01*
X5196Y7010D02*
X5198D01*
Y6922D02*
Y7095D01*
X5405Y6538D02*
Y7128D01*
X5312Y7129D02*
X5320D01*
X5322D01*
X5565Y6203D02*
Y6303D01*
X5465Y6253D02*
X5565Y6203D01*
X5465Y6253D02*
X5565Y6303D01*
X5465Y6203D02*
Y6303D01*
X6504Y5396D02*
Y6096D01*
Y5396D02*
X6904D01*
X6504Y6096D02*
X6904D01*
Y5396D02*
Y6096D01*
X6488Y6387D02*
Y6536D01*
X6466Y6387D02*
Y6536D01*
X6370Y6536D02*
X6783D01*
X6370Y6536D02*
Y7126D01*
X6368Y6871D02*
X6783D01*
X6370Y7126D02*
X6783D01*
X6476Y7008D02*
X6683D01*
X6588Y6387D02*
Y6536D01*
X6566Y6387D02*
Y6536D01*
X6667Y6387D02*
Y6536D01*
X6688Y6387D02*
Y6536D01*
X6574Y7008D02*
X6576D01*
Y6920D02*
Y7093D01*
X6783Y6536D02*
Y7126D01*
X6690Y7127D02*
X6698D01*
X6700D01*
X6964Y6217D02*
Y6317D01*
X6864Y6267D02*
X6964Y6217D01*
X6864Y6267D02*
X6964Y6317D01*
X6864Y6217D02*
Y6317D01*
X4140Y5399D02*
Y6099D01*
Y5399D02*
X4540D01*
X4140Y6099D02*
X4540D01*
Y5399D02*
Y6099D01*
X3732Y6389D02*
Y6538D01*
X3710Y6389D02*
Y6538D01*
X3614Y6538D02*
X4027D01*
X3614Y6538D02*
Y7128D01*
X3612Y6873D02*
X4027D01*
X3614Y7128D02*
X4027D01*
X3720Y7010D02*
X3927D01*
X3832Y6389D02*
Y6538D01*
X3811Y6389D02*
Y6538D01*
X3911Y6389D02*
Y6538D01*
X3933Y6389D02*
Y6538D01*
X3818Y7010D02*
X3820D01*
Y6922D02*
Y7095D01*
X4027Y6538D02*
Y7128D01*
X3935Y7129D02*
X3942D01*
X3944D01*
X5177Y4415D02*
X7277D01*
X5177Y3615D02*
X7277D01*
Y4415D01*
X5177Y3615D02*
Y4415D01*
X7095Y6392D02*
Y6541D01*
X7073Y6392D02*
Y6541D01*
X6977Y6541D02*
X7390D01*
X6977Y6541D02*
Y7132D01*
X6975Y6876D02*
X7390D01*
X6977Y7132D02*
X7390D01*
X7083Y7013D02*
X7290D01*
X7195Y6392D02*
Y6541D01*
X7174Y6392D02*
Y6541D01*
X7274Y6392D02*
Y6541D01*
X7296Y6392D02*
Y6541D01*
X7181Y7013D02*
X7183D01*
Y6925D02*
Y7098D01*
X7390Y6541D02*
Y7132D01*
X7298Y7132D02*
X7305D01*
X7307D01*
X3175Y4005D02*
Y4405D01*
Y4005D02*
X3275D01*
X3175Y4405D02*
X3275D01*
Y4005D02*
Y4405D01*
X4140Y4210D02*
X4304D01*
X4140Y4412D02*
X4304D01*
X4140Y4210D02*
Y4412D01*
X4304Y4210D02*
Y4412D01*
X4140Y4485D02*
X4304D01*
X4140Y4687D02*
X4304D01*
X4140Y4485D02*
Y4687D01*
X4304Y4485D02*
Y4687D01*
X4140Y3930D02*
X4304D01*
X4140Y4132D02*
X4304D01*
X4140Y3930D02*
Y4132D01*
X4304Y3930D02*
Y4132D01*
X6739Y5853D02*
X6746Y5860D01*
X6759D01*
X6766Y5853D01*
Y5827D01*
X6759Y5820D01*
X6746D01*
X6739Y5827D01*
X6726Y5853D02*
X6720Y5860D01*
X6706D01*
X6700Y5853D01*
Y5847D01*
X6706Y5840D01*
X6713D01*
X6706D01*
X6700Y5834D01*
Y5827D01*
X6706Y5820D01*
X6720D01*
X6726Y5827D01*
X6667Y5820D02*
Y5860D01*
X6687Y5840D01*
X6661D01*
X5525Y5130D02*
Y5169D01*
X5545D01*
X5551Y5163D01*
Y5150D01*
X5545Y5143D01*
X5525D01*
X5538D02*
X5551Y5130D01*
X5591Y5169D02*
X5577Y5163D01*
X5564Y5150D01*
Y5137D01*
X5571Y5130D01*
X5584D01*
X5591Y5137D01*
Y5143D01*
X5584Y5150D01*
X5564D01*
X5604Y5163D02*
X5610Y5169D01*
X5623D01*
X5630Y5163D01*
Y5137D01*
X5623Y5130D01*
X5610D01*
X5604Y5137D01*
Y5163D01*
X5945Y5305D02*
Y5344D01*
X5965D01*
X5971Y5338D01*
Y5325D01*
X5965Y5318D01*
X5945D01*
X5958D02*
X5971Y5305D01*
X6011Y5344D02*
X5984D01*
Y5325D01*
X5997Y5331D01*
X6004D01*
X6011Y5325D01*
Y5312D01*
X6004Y5305D01*
X5991D01*
X5984Y5312D01*
X6024D02*
X6030Y5305D01*
X6043D01*
X6050Y5312D01*
Y5338D01*
X6043Y5344D01*
X6030D01*
X6024Y5338D01*
Y5331D01*
X6030Y5325D01*
X6050D01*
X5546Y5263D02*
X5540Y5269D01*
X5527D01*
X5520Y5263D01*
Y5237D01*
X5527Y5230D01*
X5540D01*
X5546Y5237D01*
X5559Y5263D02*
X5566Y5269D01*
X5579D01*
X5586Y5263D01*
Y5256D01*
X5579Y5250D01*
X5572D01*
X5579D01*
X5586Y5243D01*
Y5237D01*
X5579Y5230D01*
X5566D01*
X5559Y5237D01*
X5625Y5269D02*
X5599D01*
Y5250D01*
X5612Y5256D01*
X5618D01*
X5625Y5250D01*
Y5237D01*
X5618Y5230D01*
X5605D01*
X5599Y5237D01*
X3285Y3909D02*
X3311Y3870D01*
Y3909D02*
X3285Y3870D01*
X3324Y3909D02*
X3351D01*
X3337D01*
Y3870D01*
X3383D02*
Y3909D01*
X3364Y3890D01*
X3390D01*
X3201Y3870D02*
X3240Y3896D01*
X3201D02*
X3240Y3870D01*
X3201Y3909D02*
Y3936D01*
Y3922D01*
X3240D01*
X3207Y3949D02*
X3201Y3955D01*
Y3968D01*
X3207Y3975D01*
X3214D01*
X3220Y3968D01*
Y3962D01*
Y3968D01*
X3227Y3975D01*
X3233D01*
X3240Y3968D01*
Y3955D01*
X3233Y3949D01*
X3211Y5120D02*
X3250Y5146D01*
X3211D02*
X3250Y5120D01*
X3211Y5159D02*
Y5186D01*
Y5172D01*
X3250D01*
Y5225D02*
Y5199D01*
X3224Y5225D01*
X3217D01*
X3211Y5218D01*
Y5205D01*
X3217Y5199D01*
X7666Y4695D02*
X7705Y4721D01*
X7666D02*
X7705Y4695D01*
X7666Y4734D02*
Y4761D01*
Y4747D01*
X7705D01*
Y4774D02*
Y4787D01*
Y4780D01*
X7666D01*
X7672Y4774D01*
X5217Y3451D02*
Y3425D01*
X5230Y3412D01*
X5243Y3425D01*
Y3451D01*
X5256D02*
Y3412D01*
X5276D01*
X5283Y3419D01*
Y3445D01*
X5276Y3451D01*
X5256D01*
X5322Y3412D02*
X5296D01*
X5322Y3438D01*
Y3445D01*
X5315Y3451D01*
X5302D01*
X5296Y3445D01*
X5361Y3412D02*
X5335D01*
X5361Y3438D01*
Y3445D01*
X5355Y3451D01*
X5342D01*
X5335Y3445D01*
X5412Y3456D02*
Y3430D01*
X5425Y3417D01*
X5438Y3430D01*
Y3456D01*
X5451D02*
Y3417D01*
X5471D01*
X5478Y3424D01*
Y3450D01*
X5471Y3456D01*
X5451D01*
X5517Y3417D02*
X5491D01*
X5517Y3443D01*
Y3450D01*
X5510Y3456D01*
X5497D01*
X5491Y3450D01*
X5530Y3417D02*
X5543D01*
X5537D01*
Y3456D01*
X5530Y3450D01*
X5612Y3456D02*
Y3430D01*
X5625Y3417D01*
X5638Y3430D01*
Y3456D01*
X5651D02*
Y3417D01*
X5671D01*
X5678Y3424D01*
Y3450D01*
X5671Y3456D01*
X5651D01*
X5717Y3417D02*
X5691D01*
X5717Y3443D01*
Y3450D01*
X5710Y3456D01*
X5697D01*
X5691Y3450D01*
X5730D02*
X5737Y3456D01*
X5750D01*
X5756Y3450D01*
Y3424D01*
X5750Y3417D01*
X5737D01*
X5730Y3424D01*
Y3450D01*
X3188Y5772D02*
Y5746D01*
X3201Y5733D01*
X3214Y5746D01*
Y5772D01*
X3227D02*
Y5733D01*
X3247D01*
X3254Y5740D01*
Y5766D01*
X3247Y5772D01*
X3227D01*
X3267Y5733D02*
X3280D01*
X3273D01*
Y5772D01*
X3267Y5766D01*
X3300Y5740D02*
X3306Y5733D01*
X3319D01*
X3326Y5740D01*
Y5766D01*
X3319Y5772D01*
X3306D01*
X3300Y5766D01*
Y5759D01*
X3306Y5753D01*
X3326D01*
X3705Y4234D02*
Y4208D01*
X3718Y4195D01*
X3731Y4208D01*
Y4234D01*
X3744D02*
Y4195D01*
X3764D01*
X3771Y4202D01*
Y4228D01*
X3764Y4234D01*
X3744D01*
X3784Y4195D02*
X3797D01*
X3790D01*
Y4234D01*
X3784Y4228D01*
X3817D02*
X3823Y4234D01*
X3836D01*
X3843Y4228D01*
Y4221D01*
X3836Y4215D01*
X3843Y4208D01*
Y4202D01*
X3836Y4195D01*
X3823D01*
X3817Y4202D01*
Y4208D01*
X3823Y4215D01*
X3817Y4221D01*
Y4228D01*
X3823Y4215D02*
X3836D01*
X3183Y5572D02*
Y5546D01*
X3196Y5533D01*
X3209Y5546D01*
Y5572D01*
X3222D02*
Y5533D01*
X3242D01*
X3249Y5540D01*
Y5566D01*
X3242Y5572D01*
X3222D01*
X3262Y5533D02*
X3275D01*
X3268D01*
Y5572D01*
X3262Y5566D01*
X3295Y5572D02*
X3321D01*
Y5566D01*
X3295Y5540D01*
Y5533D01*
X3530Y4234D02*
Y4208D01*
X3543Y4195D01*
X3556Y4208D01*
Y4234D01*
X3569D02*
Y4195D01*
X3589D01*
X3596Y4202D01*
Y4228D01*
X3589Y4234D01*
X3569D01*
X3609Y4195D02*
X3622D01*
X3615D01*
Y4234D01*
X3609Y4228D01*
X3668Y4234D02*
X3655Y4228D01*
X3642Y4215D01*
Y4202D01*
X3648Y4195D01*
X3661D01*
X3668Y4202D01*
Y4208D01*
X3661Y4215D01*
X3642D01*
X3982Y3466D02*
Y3440D01*
X3995Y3427D01*
X4008Y3440D01*
Y3466D01*
X4021D02*
Y3427D01*
X4041D01*
X4048Y3434D01*
Y3460D01*
X4041Y3466D01*
X4021D01*
X4061Y3427D02*
X4074D01*
X4067D01*
Y3466D01*
X4061Y3460D01*
X4120Y3466D02*
X4094D01*
Y3447D01*
X4107Y3453D01*
X4113D01*
X4120Y3447D01*
Y3434D01*
X4113Y3427D01*
X4100D01*
X4094Y3434D01*
X6857Y3146D02*
Y3120D01*
X6870Y3107D01*
X6883Y3120D01*
Y3146D01*
X6896D02*
Y3107D01*
X6916D01*
X6923Y3114D01*
Y3140D01*
X6916Y3146D01*
X6896D01*
X6936Y3107D02*
X6949D01*
X6942D01*
Y3146D01*
X6936Y3140D01*
X6988Y3107D02*
Y3146D01*
X6969Y3127D01*
X6995D01*
X6742Y4181D02*
Y4155D01*
X6755Y4142D01*
X6768Y4155D01*
Y4181D01*
X6781D02*
Y4142D01*
X6801D01*
X6808Y4149D01*
Y4175D01*
X6801Y4181D01*
X6781D01*
X6821Y4142D02*
X6834D01*
X6827D01*
Y4181D01*
X6821Y4175D01*
X6854D02*
X6860Y4181D01*
X6873D01*
X6880Y4175D01*
Y4168D01*
X6873Y4162D01*
X6867D01*
X6873D01*
X6880Y4155D01*
Y4149D01*
X6873Y4142D01*
X6860D01*
X6854Y4149D01*
X6932Y4181D02*
Y4155D01*
X6945Y4142D01*
X6958Y4155D01*
Y4181D01*
X6971D02*
Y4142D01*
X6991D01*
X6998Y4149D01*
Y4175D01*
X6991Y4181D01*
X6971D01*
X7011D02*
X7037D01*
Y4175D01*
X7011Y4149D01*
Y4142D01*
X7122Y4181D02*
Y4155D01*
X7135Y4142D01*
X7148Y4155D01*
Y4181D01*
X7161D02*
Y4142D01*
X7181D01*
X7188Y4149D01*
Y4175D01*
X7181Y4181D01*
X7161D01*
X7220Y4142D02*
Y4181D01*
X7201Y4162D01*
X7227D01*
X7312Y4181D02*
Y4155D01*
X7325Y4142D01*
X7338Y4155D01*
Y4181D01*
X7351D02*
Y4142D01*
X7371D01*
X7378Y4149D01*
Y4175D01*
X7371Y4181D01*
X7351D01*
X7391Y4142D02*
X7404D01*
X7397D01*
Y4181D01*
X7391Y4175D01*
X4925Y4606D02*
Y4645D01*
X4945D01*
X4951Y4639D01*
Y4626D01*
X4945Y4619D01*
X4925D01*
X4938D02*
X4951Y4606D01*
X4991Y4645D02*
X4964D01*
Y4626D01*
X4977Y4632D01*
X4984D01*
X4991Y4626D01*
Y4613D01*
X4984Y4606D01*
X4971D01*
X4964Y4613D01*
X5004Y4639D02*
X5010Y4645D01*
X5023D01*
X5030Y4639D01*
Y4632D01*
X5023Y4626D01*
X5030Y4619D01*
Y4613D01*
X5023Y4606D01*
X5010D01*
X5004Y4613D01*
Y4619D01*
X5010Y4626D01*
X5004Y4632D01*
Y4639D01*
X5010Y4626D02*
X5023D01*
X4925Y4326D02*
Y4365D01*
X4945D01*
X4951Y4359D01*
Y4346D01*
X4945Y4339D01*
X4925D01*
X4938D02*
X4951Y4326D01*
X4991Y4365D02*
X4964D01*
Y4346D01*
X4977Y4352D01*
X4984D01*
X4991Y4346D01*
Y4333D01*
X4984Y4326D01*
X4971D01*
X4964Y4333D01*
X5004Y4365D02*
X5030D01*
Y4359D01*
X5004Y4333D01*
Y4326D01*
X4925Y4046D02*
Y4085D01*
X4945D01*
X4951Y4079D01*
Y4066D01*
X4945Y4059D01*
X4925D01*
X4938D02*
X4951Y4046D01*
X4991Y4085D02*
X4964D01*
Y4066D01*
X4977Y4072D01*
X4984D01*
X4991Y4066D01*
Y4053D01*
X4984Y4046D01*
X4971D01*
X4964Y4053D01*
X5030Y4085D02*
X5017Y4079D01*
X5004Y4066D01*
Y4053D01*
X5010Y4046D01*
X5023D01*
X5030Y4053D01*
Y4059D01*
X5023Y4066D01*
X5004D01*
X4255Y5345D02*
Y5384D01*
X4275D01*
X4281Y5378D01*
Y5365D01*
X4275Y5358D01*
X4255D01*
X4268D02*
X4281Y5345D01*
X4321Y5384D02*
X4294D01*
Y5365D01*
X4307Y5371D01*
X4314D01*
X4321Y5365D01*
Y5352D01*
X4314Y5345D01*
X4301D01*
X4294Y5352D01*
X4360Y5384D02*
X4334D01*
Y5365D01*
X4347Y5371D01*
X4353D01*
X4360Y5365D01*
Y5352D01*
X4353Y5345D01*
X4340D01*
X4334Y5352D01*
X5452Y6016D02*
Y6055D01*
X5472D01*
X5478Y6049D01*
Y6036D01*
X5472Y6029D01*
X5452D01*
X5465D02*
X5478Y6016D01*
X5518Y6055D02*
X5491D01*
Y6036D01*
X5504Y6042D01*
X5511D01*
X5518Y6036D01*
Y6023D01*
X5511Y6016D01*
X5498D01*
X5491Y6023D01*
X5550Y6016D02*
Y6055D01*
X5531Y6036D01*
X5557D01*
X7235Y5280D02*
Y5319D01*
X7255D01*
X7261Y5313D01*
Y5300D01*
X7255Y5293D01*
X7235D01*
X7248D02*
X7261Y5280D01*
X7301Y5319D02*
X7274D01*
Y5300D01*
X7287Y5306D01*
X7294D01*
X7301Y5300D01*
Y5287D01*
X7294Y5280D01*
X7281D01*
X7274Y5287D01*
X7314Y5313D02*
X7320Y5319D01*
X7333D01*
X7340Y5313D01*
Y5306D01*
X7333Y5300D01*
X7327D01*
X7333D01*
X7340Y5293D01*
Y5287D01*
X7333Y5280D01*
X7320D01*
X7314Y5287D01*
X4390Y3760D02*
Y3799D01*
X4410D01*
X4416Y3793D01*
Y3780D01*
X4410Y3773D01*
X4390D01*
X4403D02*
X4416Y3760D01*
X4456Y3799D02*
X4429D01*
Y3780D01*
X4442Y3786D01*
X4449D01*
X4456Y3780D01*
Y3767D01*
X4449Y3760D01*
X4436D01*
X4429Y3767D01*
X4495Y3760D02*
X4469D01*
X4495Y3786D01*
Y3793D01*
X4488Y3799D01*
X4475D01*
X4469Y3793D01*
X4450Y4665D02*
Y4704D01*
X4470D01*
X4476Y4698D01*
Y4685D01*
X4470Y4678D01*
X4450D01*
X4463D02*
X4476Y4665D01*
X4516Y4704D02*
X4489D01*
Y4685D01*
X4502Y4691D01*
X4509D01*
X4516Y4685D01*
Y4672D01*
X4509Y4665D01*
X4496D01*
X4489Y4672D01*
X4529Y4665D02*
X4542D01*
X4535D01*
Y4704D01*
X4529Y4698D01*
X4445Y4820D02*
Y4859D01*
X4465D01*
X4471Y4853D01*
Y4840D01*
X4465Y4833D01*
X4445D01*
X4458D02*
X4471Y4820D01*
X4511Y4859D02*
X4484D01*
Y4840D01*
X4497Y4846D01*
X4504D01*
X4511Y4840D01*
Y4827D01*
X4504Y4820D01*
X4491D01*
X4484Y4827D01*
X4524Y4853D02*
X4530Y4859D01*
X4543D01*
X4550Y4853D01*
Y4827D01*
X4543Y4820D01*
X4530D01*
X4524Y4827D01*
Y4853D01*
X3930Y3630D02*
Y3669D01*
X3950D01*
X3956Y3663D01*
Y3650D01*
X3950Y3643D01*
X3930D01*
X3943D02*
X3956Y3630D01*
X3989D02*
Y3669D01*
X3969Y3650D01*
X3996D01*
X4009Y3637D02*
X4015Y3630D01*
X4028D01*
X4035Y3637D01*
Y3663D01*
X4028Y3669D01*
X4015D01*
X4009Y3663D01*
Y3656D01*
X4015Y3650D01*
X4035D01*
X3930Y3550D02*
Y3589D01*
X3950D01*
X3956Y3583D01*
Y3570D01*
X3950Y3563D01*
X3930D01*
X3943D02*
X3956Y3550D01*
X3989D02*
Y3589D01*
X3969Y3570D01*
X3996D01*
X4009Y3583D02*
X4015Y3589D01*
X4028D01*
X4035Y3583D01*
Y3576D01*
X4028Y3570D01*
X4035Y3563D01*
Y3557D01*
X4028Y3550D01*
X4015D01*
X4009Y3557D01*
Y3563D01*
X4015Y3570D01*
X4009Y3576D01*
Y3583D01*
X4015Y3570D02*
X4028D01*
X3805Y4780D02*
Y4819D01*
X3825D01*
X3831Y4813D01*
Y4800D01*
X3825Y4793D01*
X3805D01*
X3818D02*
X3831Y4780D01*
X3864D02*
Y4819D01*
X3844Y4800D01*
X3871D01*
X3884Y4819D02*
X3910D01*
Y4813D01*
X3884Y4787D01*
Y4780D01*
X3935Y3780D02*
Y3819D01*
X3955D01*
X3961Y3813D01*
Y3800D01*
X3955Y3793D01*
X3935D01*
X3948D02*
X3961Y3780D01*
X3994D02*
Y3819D01*
X3974Y3800D01*
X4001D01*
X4040Y3819D02*
X4027Y3813D01*
X4014Y3800D01*
Y3787D01*
X4020Y3780D01*
X4033D01*
X4040Y3787D01*
Y3793D01*
X4033Y3800D01*
X4014D01*
X3805Y5035D02*
Y5074D01*
X3825D01*
X3831Y5068D01*
Y5055D01*
X3825Y5048D01*
X3805D01*
X3818D02*
X3831Y5035D01*
X3864D02*
Y5074D01*
X3844Y5055D01*
X3871D01*
X3910Y5074D02*
X3884D01*
Y5055D01*
X3897Y5061D01*
X3903D01*
X3910Y5055D01*
Y5042D01*
X3903Y5035D01*
X3890D01*
X3884Y5042D01*
X3805Y4865D02*
Y4904D01*
X3825D01*
X3831Y4898D01*
Y4885D01*
X3825Y4878D01*
X3805D01*
X3818D02*
X3831Y4865D01*
X3864D02*
Y4904D01*
X3844Y4885D01*
X3871D01*
X3903Y4865D02*
Y4904D01*
X3884Y4885D01*
X3910D01*
X4390Y3675D02*
Y3714D01*
X4410D01*
X4416Y3708D01*
Y3695D01*
X4410Y3688D01*
X4390D01*
X4403D02*
X4416Y3675D01*
X4449D02*
Y3714D01*
X4429Y3695D01*
X4456D01*
X4469Y3708D02*
X4475Y3714D01*
X4488D01*
X4495Y3708D01*
Y3701D01*
X4488Y3695D01*
X4482D01*
X4488D01*
X4495Y3688D01*
Y3682D01*
X4488Y3675D01*
X4475D01*
X4469Y3682D01*
X4390Y3850D02*
Y3889D01*
X4410D01*
X4416Y3883D01*
Y3870D01*
X4410Y3863D01*
X4390D01*
X4403D02*
X4416Y3850D01*
X4449D02*
Y3889D01*
X4429Y3870D01*
X4456D01*
X4495Y3850D02*
X4469D01*
X4495Y3876D01*
Y3883D01*
X4488Y3889D01*
X4475D01*
X4469Y3883D01*
X4450Y4740D02*
Y4779D01*
X4470D01*
X4476Y4773D01*
Y4760D01*
X4470Y4753D01*
X4450D01*
X4463D02*
X4476Y4740D01*
X4509D02*
Y4779D01*
X4489Y4760D01*
X4516D01*
X4529Y4740D02*
X4542D01*
X4535D01*
Y4779D01*
X4529Y4773D01*
X3735Y4025D02*
Y4064D01*
X3755D01*
X3761Y4058D01*
Y4045D01*
X3755Y4038D01*
X3735D01*
X3748D02*
X3761Y4025D01*
X3794D02*
Y4064D01*
X3774Y4045D01*
X3801D01*
X3814Y4058D02*
X3820Y4064D01*
X3833D01*
X3840Y4058D01*
Y4032D01*
X3833Y4025D01*
X3820D01*
X3814Y4032D01*
Y4058D01*
X3940Y3855D02*
Y3894D01*
X3960D01*
X3966Y3888D01*
Y3875D01*
X3960Y3868D01*
X3940D01*
X3953D02*
X3966Y3855D01*
X3979Y3888D02*
X3986Y3894D01*
X3999D01*
X4006Y3888D01*
Y3881D01*
X3999Y3875D01*
X3992D01*
X3999D01*
X4006Y3868D01*
Y3862D01*
X3999Y3855D01*
X3986D01*
X3979Y3862D01*
X4019D02*
X4025Y3855D01*
X4038D01*
X4045Y3862D01*
Y3888D01*
X4038Y3894D01*
X4025D01*
X4019Y3888D01*
Y3881D01*
X4025Y3875D01*
X4045D01*
X3805Y4950D02*
Y4989D01*
X3825D01*
X3831Y4983D01*
Y4970D01*
X3825Y4963D01*
X3805D01*
X3818D02*
X3831Y4950D01*
X3844Y4983D02*
X3851Y4989D01*
X3864D01*
X3871Y4983D01*
Y4976D01*
X3864Y4970D01*
X3857D01*
X3864D01*
X3871Y4963D01*
Y4957D01*
X3864Y4950D01*
X3851D01*
X3844Y4957D01*
X3884Y4983D02*
X3890Y4989D01*
X3903D01*
X3910Y4983D01*
Y4976D01*
X3903Y4970D01*
X3910Y4963D01*
Y4957D01*
X3903Y4950D01*
X3890D01*
X3884Y4957D01*
Y4963D01*
X3890Y4970D01*
X3884Y4976D01*
Y4983D01*
X3890Y4970D02*
X3903D01*
X4265Y5425D02*
Y5464D01*
X4285D01*
X4291Y5458D01*
Y5445D01*
X4285Y5438D01*
X4265D01*
X4278D02*
X4291Y5425D01*
X4304Y5458D02*
X4311Y5464D01*
X4324D01*
X4331Y5458D01*
Y5451D01*
X4324Y5445D01*
X4317D01*
X4324D01*
X4331Y5438D01*
Y5432D01*
X4324Y5425D01*
X4311D01*
X4304Y5432D01*
X4344Y5464D02*
X4370D01*
Y5458D01*
X4344Y5432D01*
Y5425D01*
X5444Y5809D02*
Y5848D01*
X5464D01*
X5470Y5842D01*
Y5829D01*
X5464Y5822D01*
X5444D01*
X5457D02*
X5470Y5809D01*
X5483Y5842D02*
X5490Y5848D01*
X5503D01*
X5510Y5842D01*
Y5835D01*
X5503Y5829D01*
X5496D01*
X5503D01*
X5510Y5822D01*
Y5816D01*
X5503Y5809D01*
X5490D01*
X5483Y5816D01*
X5549Y5848D02*
X5536Y5842D01*
X5523Y5829D01*
Y5816D01*
X5529Y5809D01*
X5542D01*
X5549Y5816D01*
Y5822D01*
X5542Y5829D01*
X5523D01*
X6804Y5366D02*
Y5405D01*
X6824D01*
X6830Y5399D01*
Y5386D01*
X6824Y5379D01*
X6804D01*
X6817D02*
X6830Y5366D01*
X6843Y5399D02*
X6850Y5405D01*
X6863D01*
X6870Y5399D01*
Y5392D01*
X6863Y5386D01*
X6856D01*
X6863D01*
X6870Y5379D01*
Y5373D01*
X6863Y5366D01*
X6850D01*
X6843Y5373D01*
X6909Y5405D02*
X6883D01*
Y5386D01*
X6896Y5392D01*
X6902D01*
X6909Y5386D01*
Y5373D01*
X6902Y5366D01*
X6889D01*
X6883Y5373D01*
X3744Y3830D02*
Y3869D01*
X3764D01*
X3770Y3863D01*
Y3850D01*
X3764Y3843D01*
X3744D01*
X3757D02*
X3770Y3830D01*
X3783Y3863D02*
X3790Y3869D01*
X3803D01*
X3810Y3863D01*
Y3856D01*
X3803Y3850D01*
X3796D01*
X3803D01*
X3810Y3843D01*
Y3837D01*
X3803Y3830D01*
X3790D01*
X3783Y3837D01*
X3842Y3830D02*
Y3869D01*
X3823Y3850D01*
X3849D01*
X3340Y3300D02*
X3301D01*
Y3320D01*
X3307Y3326D01*
X3320D01*
X3327Y3320D01*
Y3300D01*
Y3313D02*
X3340Y3326D01*
X3307Y3339D02*
X3301Y3346D01*
Y3359D01*
X3307Y3366D01*
X3314D01*
X3320Y3359D01*
Y3352D01*
Y3359D01*
X3327Y3366D01*
X3333D01*
X3340Y3359D01*
Y3346D01*
X3333Y3339D01*
X3307Y3379D02*
X3301Y3385D01*
Y3398D01*
X3307Y3405D01*
X3314D01*
X3320Y3398D01*
Y3392D01*
Y3398D01*
X3327Y3405D01*
X3333D01*
X3340Y3398D01*
Y3385D01*
X3333Y3379D01*
X3610Y3450D02*
X3571D01*
Y3470D01*
X3577Y3476D01*
X3590D01*
X3597Y3470D01*
Y3450D01*
Y3463D02*
X3610Y3476D01*
X3577Y3489D02*
X3571Y3496D01*
Y3509D01*
X3577Y3516D01*
X3584D01*
X3590Y3509D01*
Y3502D01*
Y3509D01*
X3597Y3516D01*
X3603D01*
X3610Y3509D01*
Y3496D01*
X3603Y3489D01*
X3610Y3555D02*
Y3529D01*
X3584Y3555D01*
X3577D01*
X3571Y3548D01*
Y3535D01*
X3577Y3529D01*
X3440Y3946D02*
Y3985D01*
X3460D01*
X3466Y3979D01*
Y3966D01*
X3460Y3959D01*
X3440D01*
X3453D02*
X3466Y3946D01*
X3479Y3979D02*
X3486Y3985D01*
X3499D01*
X3506Y3979D01*
Y3972D01*
X3499Y3966D01*
X3492D01*
X3499D01*
X3506Y3959D01*
Y3953D01*
X3499Y3946D01*
X3486D01*
X3479Y3953D01*
X3519Y3946D02*
X3532D01*
X3525D01*
Y3985D01*
X3519Y3979D01*
X3379Y3775D02*
Y3814D01*
X3399D01*
X3405Y3808D01*
Y3795D01*
X3399Y3788D01*
X3379D01*
X3392D02*
X3405Y3775D01*
X3418Y3808D02*
X3425Y3814D01*
X3438D01*
X3445Y3808D01*
Y3801D01*
X3438Y3795D01*
X3431D01*
X3438D01*
X3445Y3788D01*
Y3782D01*
X3438Y3775D01*
X3425D01*
X3418Y3782D01*
X3458Y3808D02*
X3464Y3814D01*
X3477D01*
X3484Y3808D01*
Y3782D01*
X3477Y3775D01*
X3464D01*
X3458Y3782D01*
Y3808D01*
X3470Y3220D02*
X3431D01*
Y3240D01*
X3437Y3246D01*
X3450D01*
X3457Y3240D01*
Y3220D01*
Y3233D02*
X3470Y3246D01*
Y3286D02*
Y3259D01*
X3444Y3286D01*
X3437D01*
X3431Y3279D01*
Y3266D01*
X3437Y3259D01*
X3463Y3299D02*
X3470Y3305D01*
Y3318D01*
X3463Y3325D01*
X3437D01*
X3431Y3318D01*
Y3305D01*
X3437Y3299D01*
X3444D01*
X3450Y3305D01*
Y3325D01*
X3219Y3201D02*
Y3240D01*
X3239D01*
X3245Y3234D01*
Y3221D01*
X3239Y3214D01*
X3219D01*
X3232D02*
X3245Y3201D01*
X3285D02*
X3258D01*
X3285Y3227D01*
Y3234D01*
X3278Y3240D01*
X3265D01*
X3258Y3234D01*
X3298D02*
X3304Y3240D01*
X3317D01*
X3324Y3234D01*
Y3227D01*
X3317Y3221D01*
X3324Y3214D01*
Y3208D01*
X3317Y3201D01*
X3304D01*
X3298Y3208D01*
Y3214D01*
X3304Y3221D01*
X3298Y3227D01*
Y3234D01*
X3304Y3221D02*
X3317D01*
X3355Y3655D02*
X3316D01*
Y3675D01*
X3322Y3681D01*
X3335D01*
X3342Y3675D01*
Y3655D01*
Y3668D02*
X3355Y3681D01*
Y3721D02*
Y3694D01*
X3329Y3721D01*
X3322D01*
X3316Y3714D01*
Y3701D01*
X3322Y3694D01*
X3316Y3734D02*
Y3760D01*
X3322D01*
X3348Y3734D01*
X3355D01*
X3320Y3585D02*
Y3624D01*
X3340D01*
X3346Y3618D01*
Y3605D01*
X3340Y3598D01*
X3320D01*
X3333D02*
X3346Y3585D01*
X3386D02*
X3359D01*
X3386Y3611D01*
Y3618D01*
X3379Y3624D01*
X3366D01*
X3359Y3618D01*
X3425Y3624D02*
X3412Y3618D01*
X3399Y3605D01*
Y3592D01*
X3405Y3585D01*
X3418D01*
X3425Y3592D01*
Y3598D01*
X3418Y3605D01*
X3399D01*
X3275Y3965D02*
Y4004D01*
X3295D01*
X3301Y3998D01*
Y3985D01*
X3295Y3978D01*
X3275D01*
X3288D02*
X3301Y3965D01*
X3341D02*
X3314D01*
X3341Y3991D01*
Y3998D01*
X3334Y4004D01*
X3321D01*
X3314Y3998D01*
X3380Y4004D02*
X3354D01*
Y3985D01*
X3367Y3991D01*
X3373D01*
X3380Y3985D01*
Y3972D01*
X3373Y3965D01*
X3360D01*
X3354Y3972D01*
X3540Y4030D02*
Y4069D01*
X3560D01*
X3566Y4063D01*
Y4050D01*
X3560Y4043D01*
X3540D01*
X3553D02*
X3566Y4030D01*
X3606D02*
X3579D01*
X3606Y4056D01*
Y4063D01*
X3599Y4069D01*
X3586D01*
X3579Y4063D01*
X3638Y4030D02*
Y4069D01*
X3619Y4050D01*
X3645D01*
X3435Y4430D02*
Y4469D01*
X3455D01*
X3461Y4463D01*
Y4450D01*
X3455Y4443D01*
X3435D01*
X3448D02*
X3461Y4430D01*
X3501D02*
X3474D01*
X3501Y4456D01*
Y4463D01*
X3494Y4469D01*
X3481D01*
X3474Y4463D01*
X3514D02*
X3520Y4469D01*
X3533D01*
X3540Y4463D01*
Y4456D01*
X3533Y4450D01*
X3527D01*
X3533D01*
X3540Y4443D01*
Y4437D01*
X3533Y4430D01*
X3520D01*
X3514Y4437D01*
X3309Y4426D02*
Y4465D01*
X3329D01*
X3335Y4459D01*
Y4446D01*
X3329Y4439D01*
X3309D01*
X3322D02*
X3335Y4426D01*
X3375D02*
X3348D01*
X3375Y4452D01*
Y4459D01*
X3368Y4465D01*
X3355D01*
X3348Y4459D01*
X3414Y4426D02*
X3388D01*
X3414Y4452D01*
Y4459D01*
X3407Y4465D01*
X3394D01*
X3388Y4459D01*
X6309Y2876D02*
Y2915D01*
X6329D01*
X6335Y2909D01*
Y2896D01*
X6329Y2889D01*
X6309D01*
X6322D02*
X6335Y2876D01*
X6375D02*
X6348D01*
X6375Y2902D01*
Y2909D01*
X6368Y2915D01*
X6355D01*
X6348Y2909D01*
X6388Y2876D02*
X6401D01*
X6394D01*
Y2915D01*
X6388Y2909D01*
X3349Y4871D02*
Y4910D01*
X3369D01*
X3375Y4904D01*
Y4891D01*
X3369Y4884D01*
X3349D01*
X3362D02*
X3375Y4871D01*
X3415D02*
X3388D01*
X3415Y4897D01*
Y4904D01*
X3408Y4910D01*
X3395D01*
X3388Y4904D01*
X3428D02*
X3434Y4910D01*
X3447D01*
X3454Y4904D01*
Y4878D01*
X3447Y4871D01*
X3434D01*
X3428Y4878D01*
Y4904D01*
X3349Y4786D02*
Y4825D01*
X3369D01*
X3375Y4819D01*
Y4806D01*
X3369Y4799D01*
X3349D01*
X3362D02*
X3375Y4786D01*
X3388D02*
X3401D01*
X3395D01*
Y4825D01*
X3388Y4819D01*
X3421Y4793D02*
X3428Y4786D01*
X3441D01*
X3447Y4793D01*
Y4819D01*
X3441Y4825D01*
X3428D01*
X3421Y4819D01*
Y4812D01*
X3428Y4806D01*
X3447D01*
X3349Y4701D02*
Y4740D01*
X3369D01*
X3375Y4734D01*
Y4721D01*
X3369Y4714D01*
X3349D01*
X3362D02*
X3375Y4701D01*
X3388D02*
X3401D01*
X3395D01*
Y4740D01*
X3388Y4734D01*
X3421D02*
X3428Y4740D01*
X3441D01*
X3447Y4734D01*
Y4727D01*
X3441Y4721D01*
X3447Y4714D01*
Y4708D01*
X3441Y4701D01*
X3428D01*
X3421Y4708D01*
Y4714D01*
X3428Y4721D01*
X3421Y4727D01*
Y4734D01*
X3428Y4721D02*
X3441D01*
X3349Y4616D02*
Y4655D01*
X3369D01*
X3375Y4649D01*
Y4636D01*
X3369Y4629D01*
X3349D01*
X3362D02*
X3375Y4616D01*
X3388D02*
X3401D01*
X3395D01*
Y4655D01*
X3388Y4649D01*
X3421Y4655D02*
X3447D01*
Y4649D01*
X3421Y4623D01*
Y4616D01*
X7295Y4425D02*
Y4464D01*
X7315D01*
X7321Y4458D01*
Y4445D01*
X7315Y4438D01*
X7295D01*
X7308D02*
X7321Y4425D01*
X7334D02*
X7347D01*
X7341D01*
Y4464D01*
X7334Y4458D01*
X7393Y4464D02*
X7380Y4458D01*
X7367Y4445D01*
Y4432D01*
X7374Y4425D01*
X7387D01*
X7393Y4432D01*
Y4438D01*
X7387Y4445D01*
X7367D01*
X7295Y4350D02*
Y4389D01*
X7315D01*
X7321Y4383D01*
Y4370D01*
X7315Y4363D01*
X7295D01*
X7308D02*
X7321Y4350D01*
X7334D02*
X7347D01*
X7341D01*
Y4389D01*
X7334Y4383D01*
X7393Y4389D02*
X7367D01*
Y4370D01*
X7380Y4376D01*
X7387D01*
X7393Y4370D01*
Y4357D01*
X7387Y4350D01*
X7374D01*
X7367Y4357D01*
X7295Y4275D02*
Y4314D01*
X7315D01*
X7321Y4308D01*
Y4295D01*
X7315Y4288D01*
X7295D01*
X7308D02*
X7321Y4275D01*
X7334D02*
X7347D01*
X7341D01*
Y4314D01*
X7334Y4308D01*
X7387Y4275D02*
Y4314D01*
X7367Y4295D01*
X7393D01*
X7295Y4205D02*
Y4244D01*
X7315D01*
X7321Y4238D01*
Y4225D01*
X7315Y4218D01*
X7295D01*
X7308D02*
X7321Y4205D01*
X7334D02*
X7347D01*
X7341D01*
Y4244D01*
X7334Y4238D01*
X7367D02*
X7374Y4244D01*
X7387D01*
X7393Y4238D01*
Y4231D01*
X7387Y4225D01*
X7380D01*
X7387D01*
X7393Y4218D01*
Y4212D01*
X7387Y4205D01*
X7374D01*
X7367Y4212D01*
X4646Y4756D02*
Y4717D01*
X4666D01*
X4672Y4724D01*
Y4750D01*
X4666Y4756D01*
X4646D01*
X4685D02*
Y4717D01*
X4705D01*
X4712Y4724D01*
Y4750D01*
X4705Y4756D01*
X4685D01*
X4725Y4717D02*
X4738D01*
X4731D01*
Y4756D01*
X4725Y4750D01*
X4784Y4756D02*
X4758D01*
Y4737D01*
X4771Y4743D01*
X4777D01*
X4784Y4737D01*
Y4724D01*
X4777Y4717D01*
X4764D01*
X4758Y4724D01*
X4646Y4476D02*
Y4437D01*
X4666D01*
X4672Y4444D01*
Y4470D01*
X4666Y4476D01*
X4646D01*
X4685D02*
Y4437D01*
X4705D01*
X4712Y4444D01*
Y4470D01*
X4705Y4476D01*
X4685D01*
X4725Y4437D02*
X4738D01*
X4731D01*
Y4476D01*
X4725Y4470D01*
X4777Y4437D02*
Y4476D01*
X4758Y4457D01*
X4784D01*
X4646Y4196D02*
Y4157D01*
X4666D01*
X4672Y4164D01*
Y4190D01*
X4666Y4196D01*
X4646D01*
X4685D02*
Y4157D01*
X4705D01*
X4712Y4164D01*
Y4190D01*
X4705Y4196D01*
X4685D01*
X4725Y4157D02*
X4738D01*
X4731D01*
Y4196D01*
X4725Y4190D01*
X4758D02*
X4764Y4196D01*
X4777D01*
X4784Y4190D01*
Y4183D01*
X4777Y4177D01*
X4771D01*
X4777D01*
X4784Y4170D01*
Y4164D01*
X4777Y4157D01*
X4764D01*
X4758Y4164D01*
X4295Y4189D02*
Y4150D01*
X4315D01*
X4321Y4157D01*
Y4183D01*
X4315Y4189D01*
X4295D01*
X4334D02*
Y4150D01*
X4354D01*
X4361Y4157D01*
Y4183D01*
X4354Y4189D01*
X4334D01*
X4374Y4150D02*
X4387D01*
X4380D01*
Y4189D01*
X4374Y4183D01*
X4433Y4150D02*
X4407D01*
X4433Y4176D01*
Y4183D01*
X4426Y4189D01*
X4413D01*
X4407Y4183D01*
X4310Y4474D02*
Y4435D01*
X4330D01*
X4336Y4442D01*
Y4468D01*
X4330Y4474D01*
X4310D01*
X4349D02*
Y4435D01*
X4369D01*
X4376Y4442D01*
Y4468D01*
X4369Y4474D01*
X4349D01*
X4389Y4435D02*
X4402D01*
X4395D01*
Y4474D01*
X4389Y4468D01*
X4422Y4435D02*
X4435D01*
X4428D01*
Y4474D01*
X4422Y4468D01*
X4295Y4749D02*
Y4710D01*
X4315D01*
X4321Y4717D01*
Y4743D01*
X4315Y4749D01*
X4295D01*
X4334D02*
Y4710D01*
X4354D01*
X4361Y4717D01*
Y4743D01*
X4354Y4749D01*
X4334D01*
X4374Y4710D02*
X4387D01*
X4380D01*
Y4749D01*
X4374Y4743D01*
X4407D02*
X4413Y4749D01*
X4426D01*
X4433Y4743D01*
Y4717D01*
X4426Y4710D01*
X4413D01*
X4407Y4717D01*
Y4743D01*
X3730Y3694D02*
Y3655D01*
X3750D01*
X3756Y3662D01*
Y3688D01*
X3750Y3694D01*
X3730D01*
X3769D02*
Y3655D01*
X3789D01*
X3796Y3662D01*
Y3688D01*
X3789Y3694D01*
X3769D01*
X3809Y3662D02*
X3815Y3655D01*
X3828D01*
X3835Y3662D01*
Y3688D01*
X3828Y3694D01*
X3815D01*
X3809Y3688D01*
Y3681D01*
X3815Y3675D01*
X3835D01*
X3730Y3479D02*
Y3440D01*
X3750D01*
X3756Y3447D01*
Y3473D01*
X3750Y3479D01*
X3730D01*
X3769D02*
Y3440D01*
X3789D01*
X3796Y3447D01*
Y3473D01*
X3789Y3479D01*
X3769D01*
X3809Y3473D02*
X3815Y3479D01*
X3828D01*
X3835Y3473D01*
Y3466D01*
X3828Y3460D01*
X3835Y3453D01*
Y3447D01*
X3828Y3440D01*
X3815D01*
X3809Y3447D01*
Y3453D01*
X3815Y3460D01*
X3809Y3466D01*
Y3473D01*
X3815Y3460D02*
X3828D01*
X7256Y5233D02*
X7250Y5239D01*
X7237D01*
X7230Y5233D01*
Y5207D01*
X7237Y5200D01*
X7250D01*
X7256Y5207D01*
X7269Y5233D02*
X7276Y5239D01*
X7289D01*
X7296Y5233D01*
Y5226D01*
X7289Y5220D01*
X7282D01*
X7289D01*
X7296Y5213D01*
Y5207D01*
X7289Y5200D01*
X7276D01*
X7269Y5207D01*
X7309Y5233D02*
X7315Y5239D01*
X7328D01*
X7335Y5233D01*
Y5226D01*
X7328Y5220D01*
X7322D01*
X7328D01*
X7335Y5213D01*
Y5207D01*
X7328Y5200D01*
X7315D01*
X7309Y5207D01*
X4344Y5512D02*
X4350Y5506D01*
X4363D01*
X4370Y5512D01*
Y5538D01*
X4363Y5545D01*
X4350D01*
X4344Y5538D01*
X4331Y5512D02*
X4324Y5506D01*
X4311D01*
X4304Y5512D01*
Y5519D01*
X4311Y5525D01*
X4318D01*
X4311D01*
X4304Y5532D01*
Y5538D01*
X4311Y5545D01*
X4324D01*
X4331Y5538D01*
X4265Y5545D02*
X4291D01*
X4265Y5519D01*
Y5512D01*
X4272Y5506D01*
X4285D01*
X4291Y5512D01*
X5545Y6049D02*
X5539Y6055D01*
X5526D01*
X5519Y6049D01*
Y6023D01*
X5526Y6016D01*
X5539D01*
X5545Y6023D01*
X5558Y6049D02*
X5565Y6055D01*
X5578D01*
X5585Y6049D01*
Y6042D01*
X5578Y6036D01*
X5571D01*
X5578D01*
X5585Y6029D01*
Y6023D01*
X5578Y6016D01*
X5565D01*
X5558Y6023D01*
X5598Y6016D02*
X5611D01*
X5604D01*
Y6055D01*
X5598Y6049D01*
X6646Y3048D02*
X6640Y3054D01*
X6627D01*
X6620Y3048D01*
Y3022D01*
X6627Y3015D01*
X6640D01*
X6646Y3022D01*
X6659Y3048D02*
X6666Y3054D01*
X6679D01*
X6686Y3048D01*
Y3041D01*
X6679Y3035D01*
X6672D01*
X6679D01*
X6686Y3028D01*
Y3022D01*
X6679Y3015D01*
X6666D01*
X6659Y3022D01*
X6699Y3048D02*
X6705Y3054D01*
X6718D01*
X6725Y3048D01*
Y3022D01*
X6718Y3015D01*
X6705D01*
X6699Y3022D01*
Y3048D01*
X3599Y3410D02*
X3592Y3417D01*
X3579D01*
X3572Y3410D01*
Y3384D01*
X3579Y3378D01*
X3592D01*
X3599Y3384D01*
X3638Y3378D02*
X3612D01*
X3638Y3404D01*
Y3410D01*
X3632Y3417D01*
X3618D01*
X3612Y3410D01*
X3651Y3384D02*
X3658Y3378D01*
X3671D01*
X3677Y3384D01*
Y3410D01*
X3671Y3417D01*
X3658D01*
X3651Y3410D01*
Y3404D01*
X3658Y3397D01*
X3677D01*
X6530Y3114D02*
X6524Y3120D01*
X6511D01*
X6504Y3114D01*
Y3088D01*
X6511Y3081D01*
X6524D01*
X6530Y3088D01*
X6570Y3081D02*
X6543D01*
X6570Y3107D01*
Y3114D01*
X6563Y3120D01*
X6550D01*
X6543Y3114D01*
X6583D02*
X6589Y3120D01*
X6602D01*
X6609Y3114D01*
Y3107D01*
X6602Y3101D01*
X6609Y3094D01*
Y3088D01*
X6602Y3081D01*
X6589D01*
X6583Y3088D01*
Y3094D01*
X6589Y3101D01*
X6583Y3107D01*
Y3114D01*
X6589Y3101D02*
X6602D01*
X3795Y3163D02*
X3789Y3169D01*
X3776D01*
X3769Y3163D01*
Y3137D01*
X3776Y3130D01*
X3789D01*
X3795Y3137D01*
X3835Y3130D02*
X3808D01*
X3835Y3156D01*
Y3163D01*
X3828Y3169D01*
X3815D01*
X3808Y3163D01*
X3848Y3169D02*
X3874D01*
Y3163D01*
X3848Y3137D01*
Y3130D01*
X3815Y5329D02*
Y5290D01*
X3835D01*
X3841Y5297D01*
Y5323D01*
X3835Y5329D01*
X3815D01*
X3854D02*
Y5290D01*
X3874D01*
X3881Y5297D01*
Y5323D01*
X3874Y5329D01*
X3854D01*
X3894D02*
X3920D01*
Y5323D01*
X3894Y5297D01*
Y5290D01*
X4587Y5738D02*
X4581Y5745D01*
X4568D01*
X4561Y5738D01*
Y5712D01*
X4568Y5705D01*
X4581D01*
X4587Y5712D01*
X4627Y5705D02*
X4600D01*
X4627Y5732D01*
Y5738D01*
X4620Y5745D01*
X4607D01*
X4600Y5738D01*
X4640D02*
X4646Y5745D01*
X4660D01*
X4666Y5738D01*
Y5712D01*
X4660Y5705D01*
X4646D01*
X4640Y5712D01*
Y5738D01*
X4177Y7254D02*
Y7223D01*
X4192Y7208D01*
X4207Y7223D01*
Y7254D01*
X4223D02*
X4253D01*
X4238D01*
Y7208D01*
X4299Y7254D02*
X4284Y7246D01*
X4269Y7231D01*
Y7215D01*
X4276Y7208D01*
X4292D01*
X4299Y7215D01*
Y7223D01*
X4292Y7231D01*
X4269D01*
X4218Y6591D02*
Y6565D01*
X4231Y6552D01*
X4244Y6565D01*
Y6591D01*
X4257D02*
Y6552D01*
X4277D01*
X4284Y6559D01*
Y6585D01*
X4277Y6591D01*
X4257D01*
X4297Y6559D02*
X4303Y6552D01*
X4316D01*
X4323Y6559D01*
Y6585D01*
X4316Y6591D01*
X4303D01*
X4297Y6585D01*
Y6578D01*
X4303Y6572D01*
X4323D01*
X5861Y5848D02*
X5855Y5854D01*
X5842D01*
X5835Y5848D01*
Y5822D01*
X5842Y5815D01*
X5855D01*
X5861Y5822D01*
X5874Y5815D02*
X5887D01*
X5881D01*
Y5854D01*
X5874Y5848D01*
X5927Y5815D02*
Y5854D01*
X5907Y5835D01*
X5933D01*
X5465Y5778D02*
X5458Y5784D01*
X5445D01*
X5438Y5778D01*
Y5751D01*
X5445Y5745D01*
X5458D01*
X5465Y5751D01*
X5478Y5745D02*
X5491D01*
X5484D01*
Y5784D01*
X5478Y5778D01*
X5511D02*
X5517Y5784D01*
X5530D01*
X5537Y5778D01*
Y5751D01*
X5530Y5745D01*
X5517D01*
X5511Y5751D01*
Y5778D01*
X4915Y5524D02*
X4921Y5530D01*
X4934D01*
X4941Y5524D01*
Y5498D01*
X4934Y5491D01*
X4921D01*
X4915Y5498D01*
X4902Y5491D02*
X4888D01*
X4895D01*
Y5530D01*
X4902Y5524D01*
X4843Y5491D02*
X4869D01*
X4843Y5517D01*
Y5524D01*
X4849Y5530D01*
X4862D01*
X4869Y5524D01*
X5345Y6159D02*
Y6120D01*
X5365D01*
X5371Y6127D01*
Y6153D01*
X5365Y6159D01*
X5345D01*
X5384D02*
Y6120D01*
X5404D01*
X5411Y6127D01*
Y6153D01*
X5404Y6159D01*
X5384D01*
X5450D02*
X5424D01*
Y6140D01*
X5437Y6146D01*
X5443D01*
X5450Y6140D01*
Y6127D01*
X5443Y6120D01*
X5430D01*
X5424Y6127D01*
X5555Y7254D02*
Y7223D01*
X5570Y7208D01*
X5585Y7223D01*
Y7254D01*
X5601D02*
X5631D01*
X5616D01*
Y7208D01*
X5670D02*
Y7254D01*
X5647Y7231D01*
X5677D01*
X4956Y7254D02*
Y7223D01*
X4972Y7208D01*
X4987Y7223D01*
Y7254D01*
X5002D02*
X5033D01*
X5018D01*
Y7208D01*
X5048Y7246D02*
X5056Y7254D01*
X5071D01*
X5079Y7246D01*
Y7238D01*
X5071Y7231D01*
X5064D01*
X5071D01*
X5079Y7223D01*
Y7215D01*
X5071Y7208D01*
X5056D01*
X5048Y7215D01*
X5045Y6572D02*
Y6545D01*
X5058Y6532D01*
X5071Y6545D01*
Y6572D01*
X5084D02*
Y6532D01*
X5104D01*
X5110Y6539D01*
Y6565D01*
X5104Y6572D01*
X5084D01*
X5150D02*
X5137Y6565D01*
X5123Y6552D01*
Y6539D01*
X5130Y6532D01*
X5143D01*
X5150Y6539D01*
Y6545D01*
X5143Y6552D01*
X5123D01*
X5340Y6552D02*
X5366Y6513D01*
Y6552D02*
X5340Y6513D01*
X5379D02*
Y6552D01*
X5399D01*
X5406Y6545D01*
Y6532D01*
X5399Y6526D01*
X5379D01*
X5419Y6513D02*
X5432D01*
X5425D01*
Y6552D01*
X5419Y6545D01*
X5478Y6513D02*
X5452D01*
X5478Y6539D01*
Y6545D01*
X5471Y6552D01*
X5458D01*
X5452Y6545D01*
X6225Y5758D02*
X6218Y5751D01*
Y5738D01*
X6225Y5732D01*
X6251D01*
X6257Y5738D01*
Y5751D01*
X6251Y5758D01*
X6225Y5771D02*
X6218Y5777D01*
Y5791D01*
X6225Y5797D01*
X6231D01*
X6238Y5791D01*
Y5784D01*
Y5791D01*
X6244Y5797D01*
X6251D01*
X6257Y5791D01*
Y5777D01*
X6251Y5771D01*
X6628Y5541D02*
X6621Y5548D01*
X6608D01*
X6601Y5541D01*
Y5515D01*
X6608Y5509D01*
X6621D01*
X6628Y5515D01*
X6667Y5548D02*
X6654Y5541D01*
X6641Y5528D01*
Y5515D01*
X6647Y5509D01*
X6660D01*
X6667Y5515D01*
Y5522D01*
X6660Y5528D01*
X6641D01*
X6505Y6169D02*
Y6130D01*
X6525D01*
X6531Y6137D01*
Y6163D01*
X6525Y6169D01*
X6505D01*
X6544D02*
Y6130D01*
X6564D01*
X6571Y6137D01*
Y6163D01*
X6564Y6169D01*
X6544D01*
X6603Y6130D02*
Y6169D01*
X6584Y6150D01*
X6610D01*
X6334Y7252D02*
Y7221D01*
X6349Y7206D01*
X6365Y7221D01*
Y7252D01*
X6380D02*
X6411D01*
X6396D01*
Y7206D01*
X6426D02*
X6442D01*
X6434D01*
Y7252D01*
X6426Y7244D01*
X6811Y6570D02*
Y6543D01*
X6824Y6530D01*
X6837Y6543D01*
Y6570D01*
X6850D02*
Y6530D01*
X6870D01*
X6876Y6537D01*
Y6563D01*
X6870Y6570D01*
X6850D01*
X6889Y6563D02*
X6896Y6570D01*
X6909D01*
X6915Y6563D01*
Y6557D01*
X6909Y6550D01*
X6902D01*
X6909D01*
X6915Y6543D01*
Y6537D01*
X6909Y6530D01*
X6896D01*
X6889Y6537D01*
X6501Y6572D02*
X6528Y6532D01*
Y6572D02*
X6501Y6532D01*
X6541D02*
Y6572D01*
X6560D01*
X6567Y6565D01*
Y6552D01*
X6560Y6545D01*
X6541D01*
X6580Y6532D02*
X6593D01*
X6587D01*
Y6572D01*
X6580Y6565D01*
X6613Y6532D02*
X6626D01*
X6620D01*
Y6572D01*
X6613Y6565D01*
X4728Y6077D02*
X4722Y6083D01*
X4709D01*
X4702Y6077D01*
Y6051D01*
X4709Y6044D01*
X4722D01*
X4728Y6051D01*
X4768Y6044D02*
X4742D01*
X4768Y6070D01*
Y6077D01*
X4761Y6083D01*
X4748D01*
X4742Y6077D01*
X4807Y6083D02*
X4781D01*
Y6064D01*
X4794Y6070D01*
X4801D01*
X4807Y6064D01*
Y6051D01*
X4801Y6044D01*
X4788D01*
X4781Y6051D01*
X4145Y6169D02*
Y6130D01*
X4165D01*
X4171Y6137D01*
Y6163D01*
X4165Y6169D01*
X4145D01*
X4184D02*
Y6130D01*
X4204D01*
X4211Y6137D01*
Y6163D01*
X4204Y6169D01*
X4184D01*
X4250D02*
X4237Y6163D01*
X4224Y6150D01*
Y6137D01*
X4230Y6130D01*
X4243D01*
X4250Y6137D01*
Y6143D01*
X4243Y6150D01*
X4224D01*
X7676Y6515D02*
X7683Y6509D01*
X7696D01*
X7702Y6515D01*
Y6542D01*
X7696Y6548D01*
X7683D01*
X7676Y6542D01*
X7637Y6548D02*
X7663D01*
X7637Y6522D01*
Y6515D01*
X7643Y6509D01*
X7656D01*
X7663Y6515D01*
X7624Y6548D02*
X7611D01*
X7617D01*
Y6509D01*
X7624Y6515D01*
X4087Y5640D02*
X4080Y5646D01*
X4067D01*
X4061Y5640D01*
Y5614D01*
X4067Y5607D01*
X4080D01*
X4087Y5614D01*
X4100Y5607D02*
X4113D01*
X4106D01*
Y5646D01*
X4100Y5640D01*
X4133D02*
X4139Y5646D01*
X4152D01*
X4159Y5640D01*
Y5633D01*
X4152Y5627D01*
X4159Y5620D01*
Y5614D01*
X4152Y5607D01*
X4139D01*
X4133Y5614D01*
Y5620D01*
X4139Y5627D01*
X4133Y5633D01*
Y5640D01*
X4139Y5627D02*
X4152D01*
X4040Y5762D02*
X4034Y5768D01*
X4021D01*
X4014Y5762D01*
Y5735D01*
X4021Y5729D01*
X4034D01*
X4040Y5735D01*
X4053Y5729D02*
X4066D01*
X4060D01*
Y5768D01*
X4053Y5762D01*
X4112Y5768D02*
X4099Y5762D01*
X4086Y5748D01*
Y5735D01*
X4093Y5729D01*
X4106D01*
X4112Y5735D01*
Y5742D01*
X4106Y5748D01*
X4086D01*
X3578Y7254D02*
Y7223D01*
X3594Y7208D01*
X3609Y7223D01*
Y7254D01*
X3624D02*
X3655D01*
X3640D01*
Y7208D01*
X3701Y7254D02*
X3670D01*
Y7231D01*
X3686Y7238D01*
X3693D01*
X3701Y7231D01*
Y7215D01*
X3693Y7208D01*
X3678D01*
X3670Y7215D01*
X3647Y6591D02*
X3673Y6552D01*
Y6591D02*
X3647Y6552D01*
X3686D02*
Y6591D01*
X3706D01*
X3713Y6585D01*
Y6572D01*
X3706Y6565D01*
X3686D01*
X3726Y6552D02*
X3739D01*
X3732D01*
Y6591D01*
X3726Y6585D01*
X3759D02*
X3765Y6591D01*
X3778D01*
X3785Y6585D01*
Y6578D01*
X3778Y6572D01*
X3772D01*
X3778D01*
X3785Y6565D01*
Y6559D01*
X3778Y6552D01*
X3765D01*
X3759Y6559D01*
X6165Y4544D02*
Y4505D01*
X6185D01*
X6191Y4512D01*
Y4538D01*
X6185Y4544D01*
X6165D01*
X6204D02*
Y4505D01*
X6224D01*
X6231Y4512D01*
Y4538D01*
X6224Y4544D01*
X6204D01*
X6244Y4538D02*
X6250Y4544D01*
X6263D01*
X6270Y4538D01*
Y4531D01*
X6263Y4525D01*
X6257D01*
X6263D01*
X6270Y4518D01*
Y4512D01*
X6263Y4505D01*
X6250D01*
X6244Y4512D01*
X7218Y5545D02*
X7212Y5551D01*
X7199D01*
X7192Y5545D01*
Y5518D01*
X7199Y5512D01*
X7212D01*
X7218Y5518D01*
X7231Y5545D02*
X7238Y5551D01*
X7251D01*
X7258Y5545D01*
Y5538D01*
X7251Y5531D01*
X7258Y5525D01*
Y5518D01*
X7251Y5512D01*
X7238D01*
X7231Y5518D01*
Y5525D01*
X7238Y5531D01*
X7231Y5538D01*
Y5545D01*
X7238Y5531D02*
X7251D01*
X6941Y7257D02*
Y7226D01*
X6957Y7211D01*
X6972Y7226D01*
Y7257D01*
X6987D02*
X7018D01*
X7003D01*
Y7211D01*
X7064D02*
X7033D01*
X7064Y7241D01*
Y7249D01*
X7056Y7257D01*
X7041D01*
X7033Y7249D01*
X6096Y6108D02*
X6090Y6114D01*
X6077D01*
X6070Y6108D01*
Y6082D01*
X6077Y6075D01*
X6090D01*
X6096Y6082D01*
X6136Y6075D02*
X6109D01*
X6136Y6101D01*
Y6108D01*
X6129Y6114D01*
X6116D01*
X6109Y6108D01*
X6149D02*
X6155Y6114D01*
X6168D01*
X6175Y6108D01*
Y6101D01*
X6168Y6095D01*
X6162D01*
X6168D01*
X6175Y6088D01*
Y6082D01*
X6168Y6075D01*
X6155D01*
X6149Y6082D01*
D44*
X5211Y3071D02*
X5280D01*
X5211D02*
Y3379D01*
X5280Y3071D02*
Y3077D01*
X5211D02*
X5280D01*
X5320D02*
X5389D01*
X5320Y3071D02*
Y3077D01*
X5211Y3379D02*
X5242D01*
X5320Y3071D02*
X5389D01*
X5358Y3379D02*
X5389D01*
Y3071D02*
Y3379D01*
X5280Y3209D02*
X5320D01*
X5300D02*
X5316Y3237D01*
X5280D02*
X5300Y3209D01*
X5280Y3237D02*
X5316D01*
X5300Y3201D02*
Y3209D01*
Y3237D02*
Y3249D01*
X5406Y3076D02*
X5475D01*
X5406D02*
Y3384D01*
X5475Y3076D02*
Y3082D01*
X5406D02*
X5475D01*
X5515D02*
X5584D01*
X5515Y3076D02*
Y3082D01*
X5406Y3384D02*
X5437D01*
X5515Y3076D02*
X5584D01*
X5553Y3384D02*
X5584D01*
Y3076D02*
Y3384D01*
X5475Y3214D02*
X5515D01*
X5495D02*
X5511Y3242D01*
X5475D02*
X5495Y3214D01*
X5475Y3242D02*
X5511D01*
X5495Y3206D02*
Y3214D01*
Y3242D02*
Y3254D01*
X5606Y3076D02*
X5675D01*
X5606D02*
Y3384D01*
X5675Y3076D02*
Y3082D01*
X5606D02*
X5675D01*
X5715D02*
X5784D01*
X5715Y3076D02*
Y3082D01*
X5606Y3384D02*
X5637D01*
X5715Y3076D02*
X5784D01*
X5753Y3384D02*
X5784D01*
Y3076D02*
Y3384D01*
X5675Y3214D02*
X5715D01*
X5695D02*
X5711Y3242D01*
X5675D02*
X5695Y3214D01*
X5675Y3242D02*
X5711D01*
X5695Y3206D02*
Y3214D01*
Y3242D02*
Y3254D01*
X3489Y5521D02*
Y5590D01*
X3181Y5521D02*
X3489D01*
X3483Y5590D02*
X3489D01*
X3483Y5521D02*
Y5590D01*
Y5630D02*
Y5699D01*
Y5630D02*
X3489D01*
X3181Y5521D02*
Y5552D01*
X3489Y5630D02*
Y5699D01*
X3181Y5668D02*
Y5699D01*
X3489D01*
X3351Y5590D02*
Y5630D01*
X3323Y5626D02*
X3351Y5610D01*
X3323Y5590D02*
X3351Y5610D01*
X3323Y5590D02*
Y5626D01*
X3351Y5610D02*
X3359D01*
X3311D02*
X3323D01*
X3484Y5321D02*
Y5390D01*
X3176Y5321D02*
X3484D01*
X3478Y5390D02*
X3484D01*
X3478Y5321D02*
Y5390D01*
Y5430D02*
Y5499D01*
Y5430D02*
X3484D01*
X3176Y5321D02*
Y5352D01*
X3484Y5430D02*
Y5499D01*
X3176Y5468D02*
Y5499D01*
X3484D01*
X3346Y5390D02*
Y5430D01*
X3318Y5426D02*
X3346Y5410D01*
X3318Y5390D02*
X3346Y5410D01*
X3318Y5390D02*
Y5426D01*
X3346Y5410D02*
X3354D01*
X3306D02*
X3318D01*
X4085Y3394D02*
X4154D01*
Y3086D02*
Y3394D01*
X4085Y3388D02*
Y3394D01*
Y3388D02*
X4154D01*
X3976D02*
X4045D01*
Y3394D01*
X4123Y3086D02*
X4154D01*
X3976Y3394D02*
X4045D01*
X3976Y3086D02*
X4007D01*
X3976D02*
Y3394D01*
X4045Y3256D02*
X4085D01*
X4049Y3228D02*
X4065Y3256D01*
X4085Y3228D01*
X4049D02*
X4085D01*
X4065Y3256D02*
Y3264D01*
Y3216D02*
Y3228D01*
X6960Y3074D02*
X7029D01*
Y2766D02*
Y3074D01*
X6960Y3068D02*
Y3074D01*
Y3068D02*
X7029D01*
X6851D02*
X6920D01*
Y3074D01*
X6998Y2766D02*
X7029D01*
X6851Y3074D02*
X6920D01*
X6851Y2766D02*
X6882D01*
X6851D02*
Y3074D01*
X6920Y2936D02*
X6960D01*
X6924Y2908D02*
X6940Y2936D01*
X6960Y2908D01*
X6924D02*
X6960D01*
X6940Y2936D02*
Y2944D01*
Y2896D02*
Y2908D01*
X6845Y4109D02*
X6914D01*
Y3801D02*
Y4109D01*
X6845Y4103D02*
Y4109D01*
Y4103D02*
X6914D01*
X6736D02*
X6805D01*
Y4109D01*
X6883Y3801D02*
X6914D01*
X6736Y4109D02*
X6805D01*
X6736Y3801D02*
X6767D01*
X6736D02*
Y4109D01*
X6805Y3971D02*
X6845D01*
X6809Y3943D02*
X6825Y3971D01*
X6845Y3943D01*
X6809D02*
X6845D01*
X6825Y3971D02*
Y3979D01*
Y3931D02*
Y3943D01*
X7035Y4109D02*
X7104D01*
Y3801D02*
Y4109D01*
X7035Y4103D02*
Y4109D01*
Y4103D02*
X7104D01*
X6926D02*
X6995D01*
Y4109D01*
X7073Y3801D02*
X7104D01*
X6926Y4109D02*
X6995D01*
X6926Y3801D02*
X6957D01*
X6926D02*
Y4109D01*
X6995Y3971D02*
X7035D01*
X6999Y3943D02*
X7015Y3971D01*
X7035Y3943D01*
X6999D02*
X7035D01*
X7015Y3971D02*
Y3979D01*
Y3931D02*
Y3943D01*
X7225Y4109D02*
X7294D01*
Y3801D02*
Y4109D01*
X7225Y4103D02*
Y4109D01*
Y4103D02*
X7294D01*
X7116D02*
X7185D01*
Y4109D01*
X7263Y3801D02*
X7294D01*
X7116Y4109D02*
X7185D01*
X7116Y3801D02*
X7147D01*
X7116D02*
Y4109D01*
X7185Y3971D02*
X7225D01*
X7189Y3943D02*
X7205Y3971D01*
X7225Y3943D01*
X7189D02*
X7225D01*
X7205Y3971D02*
Y3979D01*
Y3931D02*
Y3943D01*
X7415Y4109D02*
X7484D01*
Y3801D02*
Y4109D01*
X7415Y4103D02*
Y4109D01*
Y4103D02*
X7484D01*
X7306D02*
X7375D01*
Y4109D01*
X7453Y3801D02*
X7484D01*
X7306Y4109D02*
X7375D01*
X7306Y3801D02*
X7337D01*
X7306D02*
Y4109D01*
X7375Y3971D02*
X7415D01*
X7379Y3943D02*
X7395Y3971D01*
X7415Y3943D01*
X7379D02*
X7415D01*
X7395Y3971D02*
Y3979D01*
Y3931D02*
Y3943D01*
X4960Y4539D02*
X4970D01*
X4960Y4571D02*
X4970D01*
X4960Y4259D02*
X4970D01*
X4960Y4291D02*
X4970D01*
X4960Y3979D02*
X4970D01*
X4960Y4011D02*
X4970D01*
X3771Y3745D02*
Y3755D01*
X3739Y3745D02*
Y3755D01*
X3475Y3879D02*
X3485D01*
X3475Y3911D02*
X3485D01*
X3374Y3690D02*
Y3700D01*
X3406Y3690D02*
Y3700D01*
X4250Y4444D02*
X4260D01*
X4250Y4476D02*
X4260D01*
X4000Y4681D02*
X4010D01*
X4000Y4649D02*
X4010D01*
X4000Y4626D02*
X4010D01*
X4000Y4594D02*
X4010D01*
X4000Y4499D02*
X4010D01*
X4000Y4531D02*
X4010D01*
X4000Y4396D02*
X4010D01*
X4000Y4364D02*
X4010D01*
X4000Y4346D02*
X4010D01*
X4000Y4314D02*
X4010D01*
X4000Y4214D02*
X4010D01*
X4000Y4246D02*
X4010D01*
X3995Y4146D02*
X4005D01*
X3995Y4114D02*
X4005D01*
X4015Y4071D02*
X4025D01*
X4015Y4039D02*
X4025D01*
X3995Y3944D02*
X4005D01*
X3995Y3976D02*
X4005D01*
X4215Y3884D02*
X4225D01*
X4215Y3916D02*
X4225D01*
X4215Y4154D02*
X4225D01*
X4215Y4186D02*
X4225D01*
X4410Y4544D02*
X4420D01*
X4410Y4576D02*
X4420D01*
X3511Y4066D02*
Y4374D01*
Y4066D02*
X3542D01*
X3580Y4236D02*
X3620D01*
X3511Y4374D02*
X3580D01*
X3511Y4368D02*
X3580D01*
X3584Y4208D02*
X3620D01*
X3600Y4196D02*
Y4208D01*
X3658Y4066D02*
X3689D01*
Y4374D01*
X3584Y4208D02*
X3600Y4236D01*
X3580Y4368D02*
Y4374D01*
X3600Y4236D02*
Y4244D01*
Y4236D02*
X3620Y4208D01*
Y4368D02*
X3689D01*
X3620D02*
Y4374D01*
X3689D01*
X3681Y4066D02*
Y4374D01*
Y4066D02*
X3712D01*
X3750Y4236D02*
X3790D01*
X3681Y4374D02*
X3750D01*
X3681Y4368D02*
X3750D01*
X3754Y4208D02*
X3790D01*
X3770Y4196D02*
Y4208D01*
X3828Y4066D02*
X3859D01*
Y4374D01*
X3754Y4208D02*
X3770Y4236D01*
X3750Y4368D02*
Y4374D01*
X3770Y4236D02*
Y4244D01*
Y4236D02*
X3790Y4208D01*
Y4368D02*
X3859D01*
X3790D02*
Y4374D01*
X3859D01*
X4420Y4021D02*
X4430D01*
X4420Y3989D02*
X4430D01*
X4415Y4301D02*
X4425D01*
X4415Y4269D02*
X4425D01*
X3360Y3561D02*
X3370D01*
X3360Y3529D02*
X3370D01*
X3384Y3475D02*
Y3485D01*
X3416Y3475D02*
Y3485D01*
X3490Y3401D02*
X3500D01*
X3490Y3369D02*
X3500D01*
M02*
