G04 Layer_Color=12632256*
%FSLAX23Y23*%
%MOIN*%
G70*
G01*
G75*
%ADD26C,0.004*%
%ADD27C,0.201*%
%ADD28C,0.087*%
%ADD29C,0.098*%
%ADD30C,0.079*%
%ADD31C,0.087*%
%ADD32C,0.059*%
%ADD33C,0.083*%
%ADD34R,0.087X0.087*%
%ADD35C,0.360*%
%ADD36C,0.059*%
%ADD37R,0.079X0.079*%
%ADD38R,0.087X0.087*%
%ADD39C,0.060*%
%ADD41C,0.004*%
D26*
X7537Y5965D02*
G03*
X7536Y5976I-40J0D01*
G01*
X7457Y5808D02*
G03*
X7537Y5808I40J0D01*
G01*
X7536Y5976D02*
G03*
X7457Y5965I-39J-11D01*
G01*
Y5415D02*
G03*
X7497Y5375I40J0D01*
G01*
D02*
G03*
X7537Y5415I0J40D01*
G01*
Y5572D02*
G03*
X7457Y5572I-40J0D01*
G01*
D27*
X3509Y2969D02*
D03*
Y5095D02*
D03*
X7446Y2969D02*
D03*
Y5095D02*
D03*
D28*
X3604Y6240D02*
D03*
Y6040D02*
D03*
X6419Y6260D02*
D03*
Y6060D02*
D03*
X4990Y6264D02*
D03*
Y6064D02*
D03*
X3647Y5748D02*
D03*
Y5548D02*
D03*
X6188Y5728D02*
D03*
Y5528D02*
D03*
X4276Y6253D02*
D03*
X4076D02*
D03*
X5025Y5748D02*
D03*
Y5548D02*
D03*
X5383Y5444D02*
D03*
Y5544D02*
D03*
Y5644D02*
D03*
Y5744D02*
D03*
Y5844D02*
D03*
Y5944D02*
D03*
X5683Y5444D02*
D03*
Y5544D02*
D03*
Y5644D02*
D03*
Y5844D02*
D03*
X5383Y6044D02*
D03*
X5683Y5744D02*
D03*
Y6044D02*
D03*
Y5944D02*
D03*
X5615Y6253D02*
D03*
X5415D02*
D03*
X6554Y5446D02*
D03*
Y5546D02*
D03*
Y5646D02*
D03*
Y5746D02*
D03*
Y5846D02*
D03*
Y5946D02*
D03*
X6854Y5446D02*
D03*
Y5546D02*
D03*
Y5646D02*
D03*
Y5846D02*
D03*
X6554Y6046D02*
D03*
X6854Y5746D02*
D03*
Y6046D02*
D03*
Y5946D02*
D03*
X7014Y6267D02*
D03*
X6814D02*
D03*
X4797Y6214D02*
D03*
X4190Y5449D02*
D03*
Y5549D02*
D03*
Y5649D02*
D03*
Y5749D02*
D03*
Y5849D02*
D03*
Y5949D02*
D03*
X4490Y5449D02*
D03*
Y5549D02*
D03*
Y5649D02*
D03*
Y5849D02*
D03*
X4190Y6049D02*
D03*
X4490Y5749D02*
D03*
Y6049D02*
D03*
Y5949D02*
D03*
X7600Y6390D02*
D03*
X6577Y4315D02*
D03*
X6877D02*
D03*
X7177D02*
D03*
Y3715D02*
D03*
X6877D02*
D03*
X6577D02*
D03*
X5377Y4315D02*
D03*
X5677D02*
D03*
X5977D02*
D03*
X6277D02*
D03*
Y3715D02*
D03*
X5977D02*
D03*
X5677D02*
D03*
X5377D02*
D03*
X7077Y4315D02*
D03*
X6977D02*
D03*
Y3715D02*
D03*
X7077D02*
D03*
X6777Y4315D02*
D03*
X6677D02*
D03*
Y3715D02*
D03*
X6777D02*
D03*
X6477Y4315D02*
D03*
X6377D02*
D03*
Y3715D02*
D03*
X6477D02*
D03*
X6177Y4315D02*
D03*
X6077D02*
D03*
Y3715D02*
D03*
X6177D02*
D03*
X5877Y4315D02*
D03*
X5777D02*
D03*
Y3715D02*
D03*
X5877D02*
D03*
X5577Y4315D02*
D03*
X5477D02*
D03*
Y3715D02*
D03*
X5577D02*
D03*
X5277Y4315D02*
D03*
Y3715D02*
D03*
X6130Y6225D02*
D03*
X3471Y6365D02*
D03*
D29*
X5575Y2795D02*
D03*
Y3464D02*
D03*
X7150Y2795D02*
D03*
Y3464D02*
D03*
X3800Y2795D02*
D03*
Y3464D02*
D03*
X5375Y2795D02*
D03*
Y3464D02*
D03*
D30*
X6765Y2880D02*
D03*
X6665D02*
D03*
X3668Y3293D02*
D03*
Y3193D02*
D03*
X4695Y5640D02*
D03*
Y5540D02*
D03*
X5887Y5727D02*
D03*
Y5627D02*
D03*
X5186Y5932D02*
D03*
Y5832D02*
D03*
X6357Y5932D02*
D03*
Y5832D02*
D03*
X6365Y5648D02*
D03*
Y5548D02*
D03*
X3816Y5648D02*
D03*
Y5548D02*
D03*
X3762Y5935D02*
D03*
Y5835D02*
D03*
X7058Y5525D02*
D03*
Y5425D02*
D03*
X3230Y4695D02*
D03*
Y4895D02*
D03*
Y4795D02*
D03*
Y4595D02*
D03*
Y4995D02*
D03*
X7675Y4270D02*
D03*
Y4470D02*
D03*
Y4370D02*
D03*
Y4170D02*
D03*
Y4570D02*
D03*
X5185Y5650D02*
D03*
Y5550D02*
D03*
X3250Y3450D02*
D03*
Y3650D02*
D03*
Y3750D02*
D03*
Y3350D02*
D03*
Y3550D02*
D03*
D31*
X6405Y5010D02*
D03*
Y4910D02*
D03*
X6305Y5010D02*
D03*
Y4910D02*
D03*
X6205Y5010D02*
D03*
Y4910D02*
D03*
X5905Y5010D02*
D03*
Y4910D02*
D03*
X5505Y5010D02*
D03*
Y4910D02*
D03*
X5405Y5010D02*
D03*
Y4910D02*
D03*
X5305Y5010D02*
D03*
Y4910D02*
D03*
X5205Y5010D02*
D03*
Y4910D02*
D03*
X5105Y5010D02*
D03*
Y4910D02*
D03*
X5005Y5010D02*
D03*
Y4910D02*
D03*
X4905Y5010D02*
D03*
Y4910D02*
D03*
X4305Y5010D02*
D03*
Y4910D02*
D03*
X4205Y5010D02*
D03*
Y4910D02*
D03*
X4105Y5010D02*
D03*
Y4910D02*
D03*
X4005Y5010D02*
D03*
Y4910D02*
D03*
X6405Y3010D02*
D03*
Y2910D02*
D03*
X6305Y3010D02*
D03*
Y2910D02*
D03*
X6205Y3010D02*
D03*
Y2910D02*
D03*
X6105Y3010D02*
D03*
Y2910D02*
D03*
X6005Y3010D02*
D03*
Y2910D02*
D03*
X5905Y3010D02*
D03*
Y2910D02*
D03*
X5805Y3010D02*
D03*
Y2910D02*
D03*
X5705Y3010D02*
D03*
Y2910D02*
D03*
X5605Y3010D02*
D03*
Y2910D02*
D03*
X5205Y3010D02*
D03*
Y2910D02*
D03*
X5105Y3010D02*
D03*
Y2910D02*
D03*
X5005Y3010D02*
D03*
Y2910D02*
D03*
X4905Y3010D02*
D03*
Y2910D02*
D03*
X4805Y3010D02*
D03*
Y2910D02*
D03*
X4705Y3010D02*
D03*
Y2910D02*
D03*
X4605Y3010D02*
D03*
Y2910D02*
D03*
X4505Y3010D02*
D03*
Y2910D02*
D03*
X4405Y3010D02*
D03*
Y2910D02*
D03*
X4305Y3010D02*
D03*
Y2910D02*
D03*
X4205Y3010D02*
D03*
Y2910D02*
D03*
X4105Y3010D02*
D03*
Y2910D02*
D03*
X4005Y3010D02*
D03*
Y2910D02*
D03*
D32*
X6105Y5010D02*
D03*
Y4910D02*
D03*
X6005Y5010D02*
D03*
Y4910D02*
D03*
X5805Y5010D02*
D03*
Y4910D02*
D03*
X5705Y5010D02*
D03*
Y4910D02*
D03*
X5605Y5010D02*
D03*
Y4910D02*
D03*
X4805Y5010D02*
D03*
Y4910D02*
D03*
X4705Y5010D02*
D03*
Y4910D02*
D03*
X4605Y5010D02*
D03*
Y4910D02*
D03*
X4505Y5010D02*
D03*
Y4910D02*
D03*
X4405Y5010D02*
D03*
Y4910D02*
D03*
X5505Y3010D02*
D03*
Y2910D02*
D03*
X5405Y3010D02*
D03*
Y2910D02*
D03*
X5305Y3010D02*
D03*
Y2910D02*
D03*
D33*
X5278Y4409D02*
D03*
X5578Y4414D02*
D03*
X5478D02*
D03*
X5577Y4520D02*
D03*
X5477D02*
D03*
X5878Y3504D02*
D03*
Y4414D02*
D03*
X5778D02*
D03*
X5777Y4520D02*
D03*
X5877D02*
D03*
X6078Y3504D02*
D03*
Y4414D02*
D03*
X6178D02*
D03*
X6378Y3519D02*
D03*
X6478D02*
D03*
Y4414D02*
D03*
X6378D02*
D03*
X6678Y3504D02*
D03*
X6778D02*
D03*
X6678Y4414D02*
D03*
X6778D02*
D03*
X7078D02*
D03*
X6978D02*
D03*
X5278Y3619D02*
D03*
X5578D02*
D03*
X5478D02*
D03*
X5878D02*
D03*
X5778D02*
D03*
X6178D02*
D03*
X6078D02*
D03*
X6378D02*
D03*
X6478D02*
D03*
X6778D02*
D03*
X6678D02*
D03*
X7078D02*
D03*
X6978D02*
D03*
X7740Y5335D02*
D03*
Y5864D02*
D03*
X5978Y3504D02*
D03*
Y4414D02*
D03*
X5678D02*
D03*
X5378Y4409D02*
D03*
X5677Y4520D02*
D03*
X6278Y3519D02*
D03*
X6878Y3504D02*
D03*
X7178Y4414D02*
D03*
X6578D02*
D03*
X6878D02*
D03*
X6278D02*
D03*
X4319Y6360D02*
D03*
X4419D02*
D03*
X4519D02*
D03*
X5678Y3619D02*
D03*
X5378D02*
D03*
X5978D02*
D03*
X5697Y6360D02*
D03*
X5797D02*
D03*
X5897D02*
D03*
X5099D02*
D03*
X5199D02*
D03*
X5299D02*
D03*
X5525Y6367D02*
D03*
X7178Y3619D02*
D03*
X6878D02*
D03*
X6578D02*
D03*
X6278D02*
D03*
X6477Y6358D02*
D03*
X6577D02*
D03*
X6677D02*
D03*
X6911Y6367D02*
D03*
X3721Y6360D02*
D03*
X3821D02*
D03*
X3921D02*
D03*
X4147Y6367D02*
D03*
X7084Y6363D02*
D03*
X7184D02*
D03*
X7284D02*
D03*
D34*
X4797Y6414D02*
D03*
X7600Y6190D02*
D03*
X6130Y6425D02*
D03*
D35*
X7497Y5493D02*
D03*
Y5887D02*
D03*
D36*
X6655Y5690D02*
D03*
Y5765D02*
D03*
Y5615D02*
D03*
D37*
X3230Y4495D02*
D03*
X7675Y4070D02*
D03*
X3250Y3250D02*
D03*
D38*
X3271Y6365D02*
D03*
D39*
X3225Y4155D02*
D03*
Y4055D02*
D03*
Y4355D02*
D03*
Y4255D02*
D03*
D41*
X7537Y5415D02*
Y5453D01*
Y5808D02*
Y5864D01*
Y5878D01*
Y5887D01*
X7457Y5808D02*
Y5887D01*
Y5965D01*
X7537Y5887D02*
Y5965D01*
X7457Y5453D02*
Y5493D01*
Y5533D02*
Y5572D01*
X7537Y5453D02*
Y5493D01*
X7457Y5415D02*
Y5453D01*
Y5493D02*
Y5533D01*
X7537Y5493D02*
Y5572D01*
M02*
